{"glyphs":{"0":{"ha":899,"x_min":39,"x_max":860,"o":"m 450 -22 q 217 47 308 -22 q 83 231 126 115 q 39 488 39 346 q 63 684 39 592 q 138 846 88 776 q 267 955 189 915 q 450 994 344 994 q 633 955 556 994 q 760 846 710 915 q 835 684 811 776 q 860 488 860 592 q 816 231 860 346 q 681 47 772 115 q 450 -22 590 -22 m 450 161 q 567 208 524 161 q 631 330 611 256 q 650 488 650 404 q 631 644 650 569 q 567 765 611 718 q 450 811 524 811 q 332 765 376 811 q 268 644 288 718 q 249 488 249 569 q 268 330 249 404 q 332 208 288 256 q 450 161 376 161 z "},"1":{"ha":724,"x_min":28,"x_max":696,"o":"m 261 972 l 463 972 l 463 0 l 261 0 l 261 972 m 28 972 l 299 972 l 299 797 l 28 797 l 28 972 m 28 175 l 299 175 l 299 0 l 28 0 l 28 175 m 425 175 l 696 175 l 696 0 l 425 0 l 425 175 z "},"2":{"ha":804,"x_min":21,"x_max":769,"o":"m 21 0 q 52 179 22 104 q 130 308 82 254 q 235 401 178 363 q 349 469 292 439 q 453 528 406 500 q 528 590 500 557 q 557 668 557 622 q 517 774 557 738 q 404 811 478 811 q 285 772 322 811 q 240 664 247 733 l 29 664 q 78 837 29 763 q 210 953 126 911 q 397 994 293 994 q 598 951 515 994 q 724 834 681 908 q 767 668 767 760 q 740 544 767 594 q 667 457 713 493 q 568 391 622 421 q 460 329 514 361 q 360 254 406 297 q 288 150 315 211 q 261 0 261 89 l 21 0 m 136 175 l 769 175 l 769 0 l 21 0 l 136 175 z "},"3":{"ha":840,"x_min":42,"x_max":801,"o":"m 338 583 l 403 583 q 545 616 506 583 q 585 708 585 649 q 569 760 585 738 q 522 797 554 783 q 436 811 489 811 q 342 794 382 811 q 280 743 303 776 q 253 664 257 710 l 42 664 q 95 837 42 763 q 237 953 149 911 q 429 994 325 994 q 622 956 540 994 q 749 851 704 917 q 794 708 794 786 q 768 594 794 647 q 684 508 742 542 q 532 467 626 474 l 533 510 q 690 469 631 504 q 775 380 749 433 q 801 264 801 326 q 757 121 801 186 q 629 17 713 56 q 428 -22 546 -22 q 235 19 324 -22 q 94 136 147 61 q 42 308 42 211 l 253 308 q 279 230 257 263 q 341 179 301 197 q 435 161 381 161 q 524 176 489 161 q 575 218 558 192 q 592 278 592 244 q 549 370 592 338 q 399 403 506 403 l 338 403 l 338 583 z "},"4":{"ha":807,"x_min":42,"x_max":793,"o":"m 461 972 l 660 972 l 660 0 l 461 0 l 461 972 m 42 392 l 793 392 l 793 217 l 42 217 l 42 392 m 421 972 l 629 972 l 136 217 l 42 217 l 42 392 l 421 972 z "},"5":{"ha":829,"x_min":42,"x_max":801,"o":"m 436 653 q 640 610 560 653 q 761 492 721 568 q 801 315 801 415 q 757 144 801 221 q 629 22 713 67 q 428 -22 546 -22 q 235 19 324 -22 q 94 136 147 61 q 42 308 42 211 l 253 308 q 279 230 257 263 q 341 179 301 197 q 435 161 381 161 q 524 184 489 161 q 575 243 558 207 q 592 319 592 279 q 554 430 592 388 q 436 472 517 472 q 324 451 375 472 q 246 399 274 431 l 126 399 q 158 471 135 428 q 221 556 182 514 q 314 625 260 597 q 436 653 368 653 m 42 399 l 146 972 l 347 972 l 239 399 l 42 399 m 199 972 l 722 972 l 722 797 l 199 797 l 199 972 z "},"6":{"ha":838,"x_min":39,"x_max":799,"o":"m 560 697 q 547 743 556 722 q 523 779 538 764 q 484 803 508 794 q 424 811 460 811 q 337 783 379 811 q 265 690 294 754 q 233 518 236 626 l 181 528 q 240 593 203 565 q 326 637 276 621 q 433 653 375 653 q 629 608 547 653 q 755 488 711 564 q 799 315 799 411 q 754 144 799 221 q 626 22 710 67 q 425 -22 543 -22 q 277 2 347 -22 q 153 81 207 26 q 69 229 100 136 q 39 460 39 322 q 140 856 39 717 q 431 994 240 994 q 664 913 578 994 q 775 697 750 831 l 560 697 m 264 322 q 308 206 264 251 q 425 161 353 161 q 512 182 475 161 q 569 238 549 203 q 589 319 589 274 q 544 433 589 393 q 426 472 500 472 q 308 433 353 472 q 264 322 264 393 z "},"7":{"ha":729,"x_min":28,"x_max":701,"o":"m 224 0 q 262 396 224 211 q 375 728 300 581 q 557 972 450 875 l 701 972 l 701 835 q 560 646 619 757 q 467 376 500 535 q 435 0 435 218 l 224 0 m 28 972 l 649 972 l 649 797 l 28 797 l 28 972 z "},"8":{"ha":819,"x_min":39,"x_max":781,"o":"m 410 994 q 602 956 521 994 q 728 851 683 917 q 774 708 774 786 q 738 577 774 636 q 624 489 703 518 q 744 399 708 460 q 781 264 781 338 q 737 121 781 186 q 610 17 693 56 q 410 -22 528 -22 q 210 17 293 -22 q 83 121 126 56 q 39 264 39 186 q 75 399 39 338 q 196 489 111 460 q 81 577 117 518 q 46 708 46 636 q 91 851 46 786 q 218 956 136 917 q 410 994 300 994 m 249 285 q 263 227 249 256 q 313 180 278 199 q 410 161 347 161 q 507 180 472 161 q 556 227 542 199 q 571 285 571 256 q 535 376 571 340 q 410 413 499 413 q 285 376 321 413 q 249 285 249 340 m 256 701 q 292 610 256 646 q 410 574 329 574 q 527 610 490 574 q 564 701 564 646 q 524 779 564 747 q 410 811 483 811 q 297 779 338 811 q 256 701 256 747 z "},"9":{"ha":838,"x_min":39,"x_max":799,"o":"m 278 275 q 291 229 282 250 q 315 193 300 208 q 353 169 329 178 q 414 161 378 161 q 501 190 458 161 q 573 282 544 218 q 604 454 601 346 l 657 444 q 599 379 636 407 q 512 335 561 351 q 404 319 463 319 q 208 364 290 319 q 83 485 126 408 q 39 657 39 563 q 83 829 39 753 q 211 950 128 906 q 413 994 294 994 q 560 970 490 994 q 684 891 631 946 q 768 743 738 836 q 799 513 799 650 q 698 117 799 257 q 407 -22 597 -22 q 174 60 260 -22 q 63 275 88 142 l 278 275 m 574 650 q 530 766 574 721 q 413 811 486 811 q 326 791 363 811 q 269 735 289 771 q 249 653 249 699 q 293 540 249 581 q 411 500 338 500 q 529 540 485 500 q 574 650 574 579 z "},"A":{"ha":926,"x_min":28,"x_max":899,"o":"m 321 972 l 513 972 l 233 0 l 28 0 l 321 972 m 606 972 l 899 0 l 693 0 l 414 972 l 606 972 m 201 379 l 725 379 l 725 204 l 201 204 l 201 379 z "},"Á":{"ha":926,"x_min":28,"x_max":899,"o":"m 321 972 l 513 972 l 233 0 l 28 0 l 321 972 m 606 972 l 899 0 l 693 0 l 414 972 l 606 972 m 201 379 l 725 379 l 725 204 l 201 204 l 201 379 m 694 1264 l 551 1069 l 389 1069 l 472 1264 l 694 1264 z "},"Ă":{"ha":926,"x_min":28,"x_max":899,"o":"m 321 972 l 513 972 l 233 0 l 28 0 l 321 972 m 606 972 l 899 0 l 693 0 l 414 972 l 606 972 m 201 379 l 725 379 l 725 204 l 201 204 l 201 379 m 700 1264 q 624 1110 690 1165 q 464 1056 558 1056 q 304 1110 371 1056 q 228 1264 238 1165 l 389 1264 q 464 1196 397 1196 q 516 1213 496 1196 q 539 1264 536 1231 l 700 1264 z "},"Â":{"ha":926,"x_min":28,"x_max":899,"o":"m 321 972 l 513 972 l 233 0 l 28 0 l 321 972 m 606 972 l 899 0 l 693 0 l 414 972 l 606 972 m 201 379 l 725 379 l 725 204 l 201 204 l 201 379 m 565 1264 l 703 1069 l 525 1069 l 429 1206 l 499 1206 l 401 1069 l 224 1069 l 361 1264 l 565 1264 z "},"Ä":{"ha":926,"x_min":28,"x_max":899,"o":"m 321 972 l 513 972 l 233 0 l 28 0 l 321 972 m 606 972 l 899 0 l 693 0 l 414 972 l 606 972 m 201 379 l 725 379 l 725 204 l 201 204 l 201 379 m 217 1260 l 418 1260 l 418 1074 l 217 1074 l 217 1260 m 510 1260 l 711 1260 l 711 1074 l 510 1074 l 510 1260 z "},"À":{"ha":926,"x_min":28,"x_max":899,"o":"m 321 972 l 513 972 l 233 0 l 28 0 l 321 972 m 606 972 l 899 0 l 693 0 l 414 972 l 606 972 m 201 379 l 725 379 l 725 204 l 201 204 l 201 379 m 375 1069 l 232 1264 l 454 1264 l 538 1069 l 375 1069 z "},"Ā":{"ha":926,"x_min":28,"x_max":899,"o":"m 321 972 l 513 972 l 233 0 l 28 0 l 321 972 m 606 972 l 899 0 l 693 0 l 414 972 l 606 972 m 201 379 l 725 379 l 725 204 l 201 204 l 201 379 m 253 1244 l 676 1244 l 676 1089 l 253 1089 l 253 1244 z "},"Ą":{"ha":926,"x_min":28,"x_max":933,"o":"m 321 972 l 513 972 l 233 0 l 28 0 l 321 972 m 606 972 l 899 0 l 693 0 l 414 972 l 606 972 m 201 379 l 725 379 l 725 204 l 201 204 l 201 379 m 899 0 q 850 -15 869 -6 q 821 -35 831 -24 q 811 -62 811 -47 q 817 -82 811 -74 q 835 -95 822 -90 q 871 -100 849 -100 l 933 -100 l 933 -278 l 864 -278 q 717 -240 775 -278 q 658 -133 658 -201 q 704 -27 658 -69 q 835 49 750 15 l 899 0 z "},"Å":{"ha":926,"x_min":28,"x_max":899,"o":"m 321 972 l 513 972 l 233 0 l 28 0 l 321 972 m 606 972 l 899 0 l 693 0 l 414 972 l 606 972 m 201 379 l 725 379 l 725 204 l 201 204 l 201 379 m 458 1021 q 358 1063 399 1021 q 317 1163 317 1104 q 358 1263 317 1221 q 458 1304 399 1304 q 558 1263 517 1304 q 600 1163 600 1221 q 558 1063 600 1104 q 458 1021 517 1021 m 460 1128 q 485 1138 475 1128 q 494 1163 494 1149 q 485 1188 494 1178 q 460 1197 475 1197 q 435 1188 446 1197 q 425 1164 425 1178 q 435 1138 425 1149 q 460 1128 446 1128 z "},"Ã":{"ha":926,"x_min":28,"x_max":899,"o":"m 321 972 l 513 972 l 233 0 l 28 0 l 321 972 m 606 972 l 899 0 l 693 0 l 414 972 l 606 972 m 201 379 l 725 379 l 725 204 l 201 204 l 201 379 m 393 1124 q 365 1113 375 1124 q 356 1078 356 1101 l 211 1078 q 235 1194 211 1151 q 294 1253 260 1236 q 357 1271 328 1271 q 432 1256 401 1271 q 487 1227 463 1242 q 536 1213 511 1213 q 562 1224 554 1213 q 569 1258 569 1235 l 715 1258 q 691 1142 715 1185 q 633 1081 667 1099 q 569 1063 599 1063 q 497 1078 526 1063 q 443 1108 467 1093 q 393 1124 419 1124 z "},"Æ":{"ha":1301,"x_min":28,"x_max":1243,"o":"m 474 972 l 675 972 l 243 0 l 28 0 l 474 972 m 239 379 l 763 379 l 763 204 l 239 204 l 239 379 m 631 972 l 832 972 l 832 0 l 631 0 l 631 972 m 531 972 l 1238 972 l 1238 797 l 531 797 l 531 972 m 832 175 l 1243 175 l 1243 0 l 832 0 l 832 175 m 832 576 l 1182 576 l 1182 401 l 832 401 l 832 576 z "},"B":{"ha":853,"x_min":72,"x_max":804,"o":"m 72 972 l 274 972 l 274 0 l 72 0 l 72 972 m 149 578 l 368 578 q 453 585 414 578 q 517 615 493 592 q 540 688 540 639 q 517 760 540 736 q 453 790 493 783 q 368 797 414 797 l 149 797 l 149 972 l 368 972 q 560 948 474 972 q 699 862 647 924 q 750 688 750 800 q 735 595 750 643 q 683 513 719 547 q 582 475 647 479 l 582 521 q 695 488 644 518 q 775 407 746 457 q 804 293 804 357 q 753 117 804 182 q 615 26 701 53 q 422 0 528 0 l 149 0 l 149 175 l 422 175 q 508 184 468 175 q 571 219 547 193 q 594 293 594 244 q 571 365 594 342 q 508 396 547 389 q 422 403 468 403 l 149 403 l 149 578 z "},"C":{"ha":1003,"x_min":39,"x_max":964,"o":"m 964 396 q 901 176 954 271 q 752 30 847 82 q 519 -22 657 -22 q 258 47 365 -22 q 94 231 150 115 q 39 488 39 346 q 70 684 39 592 q 163 846 101 776 q 313 955 224 915 q 519 994 403 994 q 826 891 715 994 q 958 613 936 788 l 744 613 q 721 697 738 660 q 677 759 704 733 q 611 798 650 785 q 519 811 572 811 q 365 765 425 811 q 276 644 304 718 q 249 488 249 569 q 276 330 249 404 q 365 208 304 256 q 519 161 425 161 q 619 178 578 161 q 690 225 661 194 q 733 299 718 256 q 753 396 749 342 l 964 396 z "},"Ć":{"ha":1003,"x_min":39,"x_max":964,"o":"m 964 396 q 901 176 954 271 q 752 30 847 82 q 519 -22 657 -22 q 258 47 365 -22 q 94 231 150 115 q 39 488 39 346 q 70 684 39 592 q 163 846 101 776 q 313 955 224 915 q 519 994 403 994 q 826 891 715 994 q 958 613 936 788 l 744 613 q 721 697 738 660 q 677 759 704 733 q 611 798 650 785 q 519 811 572 811 q 365 765 425 811 q 276 644 304 718 q 249 488 249 569 q 276 330 249 404 q 365 208 304 256 q 519 161 425 161 q 619 178 578 161 q 690 225 661 194 q 733 299 718 256 q 753 396 749 342 l 964 396 m 744 1264 l 601 1069 l 439 1069 l 522 1264 l 744 1264 z "},"Č":{"ha":1003,"x_min":39,"x_max":964,"o":"m 964 396 q 901 176 954 271 q 752 30 847 82 q 519 -22 657 -22 q 258 47 365 -22 q 94 231 150 115 q 39 488 39 346 q 70 684 39 592 q 163 846 101 776 q 313 955 224 915 q 519 994 403 994 q 826 891 715 994 q 958 613 936 788 l 744 613 q 721 697 738 660 q 677 759 704 733 q 611 798 650 785 q 519 811 572 811 q 365 765 425 811 q 276 644 304 718 q 249 488 249 569 q 276 330 249 404 q 365 208 304 256 q 519 161 425 161 q 619 178 578 161 q 690 225 661 194 q 733 299 718 256 q 753 396 749 342 l 964 396 m 411 1069 l 274 1264 l 451 1264 l 549 1128 l 479 1128 l 575 1264 l 753 1264 l 615 1069 l 411 1069 z "},"Ç":{"ha":1003,"x_min":39,"x_max":964,"o":"m 964 396 q 901 176 954 271 q 752 30 847 82 q 519 -22 657 -22 q 258 47 365 -22 q 94 231 150 115 q 39 488 39 346 q 70 684 39 592 q 163 846 101 776 q 313 955 224 915 q 519 994 403 994 q 826 891 715 994 q 958 613 936 788 l 744 613 q 721 697 738 660 q 677 759 704 733 q 611 798 650 785 q 519 811 572 811 q 365 765 425 811 q 276 644 304 718 q 249 488 249 569 q 276 330 249 404 q 365 208 304 256 q 519 161 425 161 q 619 178 578 161 q 690 225 661 194 q 733 299 718 256 q 753 396 749 342 l 964 396 m 472 56 l 601 56 l 601 -126 l 472 -126 l 472 56 m 539 -126 l 589 -35 q 715 -63 672 -35 q 758 -150 758 -92 q 716 -243 758 -208 q 592 -278 674 -278 l 433 -278 l 433 -174 l 539 -174 q 569 -167 563 -174 q 576 -150 576 -160 q 569 -133 576 -139 q 539 -126 563 -126 z "},"Ĉ":{"ha":1003,"x_min":39,"x_max":964,"o":"m 964 396 q 901 176 954 271 q 752 30 847 82 q 519 -22 657 -22 q 258 47 365 -22 q 94 231 150 115 q 39 488 39 346 q 70 684 39 592 q 163 846 101 776 q 313 955 224 915 q 519 994 403 994 q 826 891 715 994 q 958 613 936 788 l 744 613 q 721 697 738 660 q 677 759 704 733 q 611 798 650 785 q 519 811 572 811 q 365 765 425 811 q 276 644 304 718 q 249 488 249 569 q 276 330 249 404 q 365 208 304 256 q 519 161 425 161 q 619 178 578 161 q 690 225 661 194 q 733 299 718 256 q 753 396 749 342 l 964 396 m 615 1264 l 753 1069 l 575 1069 l 479 1206 l 549 1206 l 451 1069 l 274 1069 l 411 1264 l 615 1264 z "},"Ċ":{"ha":1003,"x_min":39,"x_max":964,"o":"m 964 396 q 901 176 954 271 q 752 30 847 82 q 519 -22 657 -22 q 258 47 365 -22 q 94 231 150 115 q 39 488 39 346 q 70 684 39 592 q 163 846 101 776 q 313 955 224 915 q 519 994 403 994 q 826 891 715 994 q 958 613 936 788 l 744 613 q 721 697 738 660 q 677 759 704 733 q 611 798 650 785 q 519 811 572 811 q 365 765 425 811 q 276 644 304 718 q 249 488 249 569 q 276 330 249 404 q 365 208 304 256 q 519 161 425 161 q 619 178 578 161 q 690 225 661 194 q 733 299 718 256 q 753 396 749 342 l 964 396 m 421 1236 l 607 1236 l 607 1050 l 421 1050 l 421 1236 z "},"D":{"ha":954,"x_min":72,"x_max":915,"o":"m 72 0 l 72 972 l 436 972 q 697 909 590 972 q 860 737 804 846 q 915 488 915 628 q 860 236 915 346 q 697 63 804 126 q 436 0 590 0 l 72 0 m 274 175 l 436 175 q 590 219 531 175 q 678 333 650 263 q 706 488 706 404 q 678 640 706 569 q 590 754 650 711 q 436 797 531 797 l 274 797 l 274 175 z "},"Ď":{"ha":954,"x_min":72,"x_max":915,"o":"m 72 0 l 72 972 l 436 972 q 697 909 590 972 q 860 737 804 846 q 915 488 915 628 q 860 236 915 346 q 697 63 804 126 q 436 0 590 0 l 72 0 m 274 175 l 436 175 q 590 219 531 175 q 678 333 650 263 q 706 488 706 404 q 678 640 706 569 q 590 754 650 711 q 436 797 531 797 l 274 797 l 274 175 m 354 1069 l 217 1264 l 394 1264 l 492 1128 l 422 1128 l 518 1264 l 696 1264 l 558 1069 l 354 1069 z "},"Đ":{"ha":1065,"x_min":58,"x_max":1026,"o":"m 183 972 l 385 972 l 385 0 l 183 0 l 183 972 m 260 175 l 547 175 l 547 0 l 260 0 l 260 175 m 547 175 q 701 219 642 175 q 789 333 761 263 q 817 488 817 404 q 789 640 817 569 q 701 754 761 711 q 547 797 642 797 l 547 972 q 808 909 701 972 q 971 737 915 846 q 1026 488 1026 628 q 971 236 1026 346 q 808 63 915 126 q 547 0 701 0 l 547 175 m 260 972 l 547 972 l 547 797 l 260 797 l 260 972 m 58 576 l 579 576 l 579 401 l 58 401 l 58 576 z "},"Ð":{"ha":1065,"x_min":58,"x_max":1026,"o":"m 183 972 l 385 972 l 385 0 l 183 0 l 183 972 m 260 175 l 547 175 l 547 0 l 260 0 l 260 175 m 547 175 q 701 219 642 175 q 789 333 761 263 q 817 488 817 404 q 789 640 817 569 q 701 754 761 711 q 547 797 642 797 l 547 972 q 808 909 701 972 q 971 737 915 846 q 1026 488 1026 628 q 971 236 1026 346 q 808 63 915 126 q 547 0 701 0 l 547 175 m 260 972 l 547 972 l 547 797 l 260 797 l 260 972 m 58 576 l 579 576 l 579 401 l 58 401 l 58 576 z "},"E":{"ha":813,"x_min":72,"x_max":754,"o":"m 72 0 l 72 972 l 749 972 l 749 797 l 274 797 l 274 576 l 693 576 l 693 401 l 274 401 l 274 175 l 754 175 l 754 0 l 72 0 z "},"É":{"ha":813,"x_min":72,"x_max":754,"o":"m 72 0 l 72 972 l 749 972 l 749 797 l 274 797 l 274 576 l 693 576 l 693 401 l 274 401 l 274 175 l 754 175 l 754 0 l 72 0 m 639 1264 l 496 1069 l 333 1069 l 417 1264 l 639 1264 z "},"Ě":{"ha":813,"x_min":72,"x_max":754,"o":"m 72 0 l 72 972 l 749 972 l 749 797 l 274 797 l 274 576 l 693 576 l 693 401 l 274 401 l 274 175 l 754 175 l 754 0 l 72 0 m 306 1069 l 168 1264 l 346 1264 l 443 1128 l 374 1128 l 469 1264 l 647 1264 l 510 1069 l 306 1069 z "},"Ê":{"ha":813,"x_min":72,"x_max":754,"o":"m 72 0 l 72 972 l 749 972 l 749 797 l 274 797 l 274 576 l 693 576 l 693 401 l 274 401 l 274 175 l 754 175 l 754 0 l 72 0 m 510 1264 l 647 1069 l 469 1069 l 374 1206 l 443 1206 l 346 1069 l 168 1069 l 306 1264 l 510 1264 z "},"Ë":{"ha":813,"x_min":72,"x_max":754,"o":"m 72 0 l 72 972 l 749 972 l 749 797 l 274 797 l 274 576 l 693 576 l 693 401 l 274 401 l 274 175 l 754 175 l 754 0 l 72 0 m 161 1260 l 363 1260 l 363 1074 l 161 1074 l 161 1260 m 454 1260 l 656 1260 l 656 1074 l 454 1074 l 454 1260 z "},"Ė":{"ha":813,"x_min":72,"x_max":754,"o":"m 72 0 l 72 972 l 749 972 l 749 797 l 274 797 l 274 576 l 693 576 l 693 401 l 274 401 l 274 175 l 754 175 l 754 0 l 72 0 m 315 1236 l 501 1236 l 501 1050 l 315 1050 l 315 1236 z "},"È":{"ha":813,"x_min":72,"x_max":754,"o":"m 72 0 l 72 972 l 749 972 l 749 797 l 274 797 l 274 576 l 693 576 l 693 401 l 274 401 l 274 175 l 754 175 l 754 0 l 72 0 m 319 1069 l 176 1264 l 399 1264 l 482 1069 l 319 1069 z "},"Ē":{"ha":813,"x_min":72,"x_max":754,"o":"m 72 0 l 72 972 l 749 972 l 749 797 l 274 797 l 274 576 l 693 576 l 693 401 l 274 401 l 274 175 l 754 175 l 754 0 l 72 0 m 197 1244 l 621 1244 l 621 1089 l 197 1089 l 197 1244 z "},"Ę":{"ha":813,"x_min":72,"x_max":789,"o":"m 72 0 l 72 972 l 749 972 l 749 797 l 274 797 l 274 576 l 693 576 l 693 401 l 274 401 l 274 175 l 754 175 l 754 0 l 72 0 m 754 0 q 706 -15 725 -6 q 676 -35 686 -24 q 667 -62 667 -47 q 672 -82 667 -74 q 691 -95 678 -90 q 726 -100 704 -100 l 789 -100 l 789 -278 l 719 -278 q 572 -240 631 -278 q 514 -133 514 -201 q 560 -27 514 -69 q 690 49 606 15 l 754 0 z "},"Ẽ":{"ha":813,"x_min":72,"x_max":754,"o":"m 72 0 l 72 972 l 749 972 l 749 797 l 274 797 l 274 576 l 693 576 l 693 401 l 274 401 l 274 175 l 754 175 l 754 0 l 72 0 m 338 1124 q 310 1113 319 1124 q 300 1078 300 1101 l 156 1078 q 180 1194 156 1151 q 238 1253 204 1236 q 301 1271 272 1271 q 376 1256 346 1271 q 431 1227 407 1242 q 481 1213 456 1213 q 506 1224 499 1213 q 514 1258 514 1235 l 660 1258 q 635 1142 660 1185 q 577 1081 611 1099 q 514 1063 543 1063 q 441 1078 471 1063 q 388 1108 411 1093 q 338 1124 364 1124 z "},"Ə":{"ha":1013,"x_min":26,"x_max":974,"o":"m 483 -22 q 299 17 386 -22 q 147 132 211 56 q 55 318 83 208 q 46 569 26 428 l 869 569 l 869 394 l 185 394 l 250 428 q 253 341 243 389 q 292 251 264 293 q 367 181 319 208 q 483 153 415 153 q 647 197 586 153 q 736 317 708 242 q 764 488 764 393 q 736 657 764 582 q 647 776 708 732 q 483 819 586 819 q 370 795 417 819 q 297 735 324 771 q 260 661 269 699 l 43 661 q 124 835 64 760 q 275 952 183 910 q 483 994 367 994 q 742 930 632 994 q 913 751 853 865 q 974 488 974 636 q 913 223 974 338 q 742 43 853 108 q 483 -22 632 -22 z "},"F":{"ha":793,"x_min":72,"x_max":735,"o":"m 72 972 l 274 972 l 274 0 l 72 0 l 72 972 m 274 549 l 679 549 l 679 374 l 274 374 l 274 549 m 149 972 l 735 972 l 735 797 l 149 797 l 149 972 z "},"G":{"ha":1004,"x_min":39,"x_max":976,"o":"m 519 -22 q 258 47 365 -22 q 94 231 150 115 q 39 488 39 346 q 70 684 39 592 q 163 846 101 776 q 313 955 224 915 q 519 994 403 994 q 826 891 715 994 q 958 613 936 788 l 744 613 q 721 697 738 660 q 677 759 704 733 q 611 798 650 785 q 519 811 572 811 q 365 765 425 811 q 276 644 304 718 q 249 488 249 569 q 276 330 249 404 q 365 208 304 256 q 519 161 425 161 q 627 178 581 161 q 703 228 674 196 q 747 306 733 260 q 754 411 760 353 l 818 364 l 519 364 l 519 539 l 963 539 q 928 234 976 360 q 776 43 879 108 q 519 -22 672 -22 z "},"Ğ":{"ha":1004,"x_min":39,"x_max":976,"o":"m 519 -22 q 258 47 365 -22 q 94 231 150 115 q 39 488 39 346 q 70 684 39 592 q 163 846 101 776 q 313 955 224 915 q 519 994 403 994 q 826 891 715 994 q 958 613 936 788 l 744 613 q 721 697 738 660 q 677 759 704 733 q 611 798 650 785 q 519 811 572 811 q 365 765 425 811 q 276 644 304 718 q 249 488 249 569 q 276 330 249 404 q 365 208 304 256 q 519 161 425 161 q 627 178 581 161 q 703 228 674 196 q 747 306 733 260 q 754 411 760 353 l 818 364 l 519 364 l 519 539 l 963 539 q 928 234 976 360 q 776 43 879 108 q 519 -22 672 -22 m 756 1264 q 680 1110 746 1165 q 519 1056 614 1056 q 360 1110 426 1056 q 283 1264 293 1165 l 444 1264 q 519 1196 453 1196 q 572 1213 551 1196 q 594 1264 592 1231 l 756 1264 z "},"Ǧ":{"ha":1004,"x_min":39,"x_max":976,"o":"m 519 -22 q 258 47 365 -22 q 94 231 150 115 q 39 488 39 346 q 70 684 39 592 q 163 846 101 776 q 313 955 224 915 q 519 994 403 994 q 826 891 715 994 q 958 613 936 788 l 744 613 q 721 697 738 660 q 677 759 704 733 q 611 798 650 785 q 519 811 572 811 q 365 765 425 811 q 276 644 304 718 q 249 488 249 569 q 276 330 249 404 q 365 208 304 256 q 519 161 425 161 q 627 178 581 161 q 703 228 674 196 q 747 306 733 260 q 754 411 760 353 l 818 364 l 519 364 l 519 539 l 963 539 q 928 234 976 360 q 776 43 879 108 q 519 -22 672 -22 m 417 1069 l 279 1264 l 457 1264 l 554 1128 l 485 1128 l 581 1264 l 758 1264 l 621 1069 l 417 1069 z "},"Ĝ":{"ha":1004,"x_min":39,"x_max":976,"o":"m 519 -22 q 258 47 365 -22 q 94 231 150 115 q 39 488 39 346 q 70 684 39 592 q 163 846 101 776 q 313 955 224 915 q 519 994 403 994 q 826 891 715 994 q 958 613 936 788 l 744 613 q 721 697 738 660 q 677 759 704 733 q 611 798 650 785 q 519 811 572 811 q 365 765 425 811 q 276 644 304 718 q 249 488 249 569 q 276 330 249 404 q 365 208 304 256 q 519 161 425 161 q 627 178 581 161 q 703 228 674 196 q 747 306 733 260 q 754 411 760 353 l 818 364 l 519 364 l 519 539 l 963 539 q 928 234 976 360 q 776 43 879 108 q 519 -22 672 -22 m 621 1264 l 758 1069 l 581 1069 l 485 1206 l 554 1206 l 457 1069 l 279 1069 l 417 1264 l 621 1264 z "},"Ģ":{"ha":1004,"x_min":39,"x_max":976,"o":"m 519 -22 q 258 47 365 -22 q 94 231 150 115 q 39 488 39 346 q 70 684 39 592 q 163 846 101 776 q 313 955 224 915 q 519 994 403 994 q 826 891 715 994 q 958 613 936 788 l 744 613 q 721 697 738 660 q 677 759 704 733 q 611 798 650 785 q 519 811 572 811 q 365 765 425 811 q 276 644 304 718 q 249 488 249 569 q 276 330 249 404 q 365 208 304 256 q 519 161 425 161 q 627 178 581 161 q 703 228 674 196 q 747 306 733 260 q 754 411 760 353 l 818 364 l 519 364 l 519 539 l 963 539 q 928 234 976 360 q 776 43 879 108 q 519 -22 672 -22 m 471 -379 l 471 -301 q 510 -287 499 -301 q 521 -246 521 -272 l 422 -246 l 422 -58 l 615 -58 l 615 -246 q 574 -346 615 -312 q 471 -379 533 -379 z "},"Ġ":{"ha":1004,"x_min":39,"x_max":976,"o":"m 519 -22 q 258 47 365 -22 q 94 231 150 115 q 39 488 39 346 q 70 684 39 592 q 163 846 101 776 q 313 955 224 915 q 519 994 403 994 q 826 891 715 994 q 958 613 936 788 l 744 613 q 721 697 738 660 q 677 759 704 733 q 611 798 650 785 q 519 811 572 811 q 365 765 425 811 q 276 644 304 718 q 249 488 249 569 q 276 330 249 404 q 365 208 304 256 q 519 161 425 161 q 627 178 581 161 q 703 228 674 196 q 747 306 733 260 q 754 411 760 353 l 818 364 l 519 364 l 519 539 l 963 539 q 928 234 976 360 q 776 43 879 108 q 519 -22 672 -22 m 426 1236 l 613 1236 l 613 1050 l 426 1050 l 426 1236 z "},"Ḡ":{"ha":1004,"x_min":39,"x_max":976,"o":"m 519 -22 q 258 47 365 -22 q 94 231 150 115 q 39 488 39 346 q 70 684 39 592 q 163 846 101 776 q 313 955 224 915 q 519 994 403 994 q 826 891 715 994 q 958 613 936 788 l 744 613 q 721 697 738 660 q 677 759 704 733 q 611 798 650 785 q 519 811 572 811 q 365 765 425 811 q 276 644 304 718 q 249 488 249 569 q 276 330 249 404 q 365 208 304 256 q 519 161 425 161 q 627 178 581 161 q 703 228 674 196 q 747 306 733 260 q 754 411 760 353 l 818 364 l 519 364 l 519 539 l 963 539 q 928 234 976 360 q 776 43 879 108 q 519 -22 672 -22 m 308 1244 l 732 1244 l 732 1089 l 308 1089 l 308 1244 z "},"H":{"ha":935,"x_min":72,"x_max":863,"o":"m 72 972 l 274 972 l 274 0 l 72 0 l 72 972 m 661 972 l 863 972 l 863 0 l 661 0 l 661 972 m 149 576 l 832 576 l 832 401 l 149 401 l 149 576 z "},"Ħ":{"ha":1171,"x_min":65,"x_max":1106,"o":"m 190 972 l 392 972 l 392 0 l 190 0 l 190 972 m 779 972 l 981 972 l 981 0 l 779 0 l 779 972 m 267 576 l 950 576 l 950 401 l 267 401 l 267 576 m 65 861 l 1106 861 l 1106 686 l 65 686 l 65 861 z "},"Ĥ":{"ha":935,"x_min":72,"x_max":863,"o":"m 72 972 l 274 972 l 274 0 l 72 0 l 72 972 m 661 972 l 863 972 l 863 0 l 661 0 l 661 972 m 149 576 l 832 576 l 832 401 l 149 401 l 149 576 m 569 1264 l 707 1069 l 529 1069 l 433 1206 l 503 1206 l 406 1069 l 228 1069 l 365 1264 l 569 1264 z "},"I":{"ha":346,"x_min":72,"x_max":274,"o":"m 72 972 l 274 972 l 274 0 l 72 0 l 72 972 z "},"Ĳ":{"ha":831,"x_min":72,"x_max":758,"o":"m 72 972 l 274 972 l 274 0 l 72 0 l 72 972 m 758 972 l 758 239 q 690 60 758 119 q 486 0 622 0 l 388 0 l 388 175 l 485 175 q 540 192 522 175 q 557 244 557 210 l 557 972 l 758 972 z "},"Í":{"ha":346,"x_min":72,"x_max":404,"o":"m 72 972 l 274 972 l 274 0 l 72 0 l 72 972 m 404 1264 l 261 1069 l 99 1069 l 182 1264 l 404 1264 z "},"Ĭ":{"ha":346,"x_min":-14,"x_max":361,"o":"m 72 972 l 274 972 l 274 0 l 72 0 l 72 972 m 361 1265 q 314 1127 360 1185 q 174 1069 268 1069 q 35 1127 81 1069 q -14 1265 -11 1185 l 126 1265 q 135 1211 126 1235 q 174 1188 143 1188 q 214 1211 206 1188 q 221 1265 222 1235 l 361 1265 z "},"Î":{"ha":346,"x_min":-3,"x_max":349,"o":"m 72 972 l 274 972 l 274 0 l 72 0 l 72 972 m 219 1264 l 132 1069 l -3 1069 l 93 1264 l 219 1264 m 126 1264 l 253 1264 l 349 1069 l 214 1069 l 126 1264 z "},"Ï":{"ha":346,"x_min":-32,"x_max":378,"o":"m 72 972 l 274 972 l 274 0 l 72 0 l 72 972 m -32 1250 l 149 1250 l 149 1069 l -32 1069 l -32 1250 m 197 1250 l 378 1250 l 378 1069 l 197 1069 l 197 1250 z "},"İ":{"ha":346,"x_min":72,"x_max":274,"o":"m 72 972 l 274 972 l 274 0 l 72 0 l 72 972 m 81 1236 l 267 1236 l 267 1050 l 81 1050 l 81 1236 z "},"Ì":{"ha":346,"x_min":-58,"x_max":274,"o":"m 72 972 l 274 972 l 274 0 l 72 0 l 72 972 m 85 1069 l -58 1264 l 164 1264 l 247 1069 l 85 1069 z "},"Ī":{"ha":346,"x_min":-37,"x_max":386,"o":"m 72 972 l 274 972 l 274 0 l 72 0 l 72 972 m -37 1244 l 386 1244 l 386 1089 l -37 1089 l -37 1244 z "},"Į":{"ha":346,"x_min":33,"x_max":308,"o":"m 72 972 l 274 972 l 274 0 l 72 0 l 72 972 m 274 0 q 225 -15 244 -6 q 196 -35 206 -24 q 186 -62 186 -47 q 192 -82 186 -74 q 210 -95 197 -90 q 246 -100 224 -100 l 308 -100 l 308 -278 l 239 -278 q 92 -240 150 -278 q 33 -133 33 -201 q 79 -27 33 -69 q 210 49 125 15 l 274 0 z "},"Ĩ":{"ha":346,"x_min":-50,"x_max":396,"o":"m 72 972 l 274 972 l 274 0 l 72 0 l 72 972 m 115 1125 q 90 1109 97 1125 q 83 1069 83 1093 l -50 1069 q -10 1216 -50 1169 q 76 1263 29 1263 q 142 1246 118 1263 q 187 1212 167 1229 q 233 1194 207 1194 q 258 1210 253 1194 q 263 1250 263 1226 l 396 1250 q 356 1101 396 1149 q 271 1054 317 1054 q 206 1072 231 1054 q 163 1107 182 1089 q 115 1125 143 1125 z "},"J":{"ha":485,"x_min":42,"x_max":413,"o":"m 413 972 l 413 239 q 344 60 413 119 q 140 0 276 0 l 42 0 l 42 175 l 139 175 q 194 192 176 175 q 211 244 211 210 l 211 972 l 413 972 z "},"Ĵ":{"ha":485,"x_min":42,"x_max":486,"o":"m 413 972 l 413 239 q 344 60 413 119 q 140 0 276 0 l 42 0 l 42 175 l 139 175 q 194 192 176 175 q 211 244 211 210 l 211 972 l 413 972 m 357 1264 l 269 1069 l 135 1069 l 231 1264 l 357 1264 m 264 1264 l 390 1264 l 486 1069 l 351 1069 l 264 1264 z "},"K":{"ha":890,"x_min":72,"x_max":854,"o":"m 72 972 l 271 972 l 271 0 l 72 0 l 72 972 m 826 972 l 196 175 l 83 343 l 579 972 l 826 972 m 436 622 l 854 0 l 607 0 l 315 465 l 436 622 z "},"Ķ":{"ha":890,"x_min":72,"x_max":854,"o":"m 72 972 l 271 972 l 271 0 l 72 0 l 72 972 m 826 972 l 196 175 l 83 343 l 579 972 l 826 972 m 436 622 l 854 0 l 607 0 l 315 465 l 436 622 m 400 -379 l 400 -301 q 439 -287 428 -301 q 450 -246 450 -272 l 351 -246 l 351 -58 l 544 -58 l 544 -246 q 503 -346 544 -312 q 400 -379 463 -379 z "},"L":{"ha":699,"x_min":72,"x_max":671,"o":"m 72 972 l 274 972 l 274 0 l 72 0 l 72 972 m 274 175 l 671 175 l 671 0 l 274 0 l 274 175 z "},"Ĺ":{"ha":699,"x_min":72,"x_max":671,"o":"m 72 972 l 274 972 l 274 0 l 72 0 l 72 972 m 274 175 l 671 175 l 671 0 l 274 0 l 274 175 m 394 1264 l 251 1069 l 89 1069 l 172 1264 l 394 1264 z "},"Ľ":{"ha":699,"x_min":72,"x_max":671,"o":"m 72 972 l 274 972 l 274 0 l 72 0 l 72 972 m 274 175 l 671 175 l 671 0 l 274 0 l 274 175 m 435 651 l 435 729 q 474 744 463 729 q 485 785 485 758 l 386 785 l 386 972 l 579 972 l 579 785 q 538 685 579 718 q 435 651 497 651 z "},"Ļ":{"ha":699,"x_min":72,"x_max":671,"o":"m 72 972 l 274 972 l 274 0 l 72 0 l 72 972 m 274 175 l 671 175 l 671 0 l 274 0 l 274 175 m 308 -379 l 308 -301 q 347 -287 336 -301 q 358 -246 358 -272 l 260 -246 l 260 -58 l 453 -58 l 453 -246 q 412 -346 453 -312 q 308 -379 371 -379 z "},"Ł":{"ha":806,"x_min":65,"x_max":778,"o":"m 179 972 l 381 972 l 381 0 l 179 0 l 179 972 m 381 175 l 778 175 l 778 0 l 381 0 l 381 175 m 65 549 l 532 715 l 532 549 l 65 382 l 65 549 z "},"M":{"ha":1171,"x_min":72,"x_max":1099,"o":"m 443 0 l 192 972 l 397 972 l 635 0 l 443 0 m 728 0 l 536 0 l 774 972 l 979 972 l 728 0 m 72 972 l 267 972 l 267 0 l 72 0 l 72 972 m 904 972 l 1099 972 l 1099 0 l 904 0 l 904 972 z "},"N":{"ha":965,"x_min":72,"x_max":893,"o":"m 596 0 l 150 972 l 369 972 l 815 0 l 596 0 m 72 972 l 267 972 l 267 0 l 72 0 l 72 972 m 699 972 l 893 972 l 893 0 l 699 0 l 699 972 z "},"Ń":{"ha":965,"x_min":72,"x_max":893,"o":"m 596 0 l 150 972 l 369 972 l 815 0 l 596 0 m 72 972 l 267 972 l 267 0 l 72 0 l 72 972 m 699 972 l 893 972 l 893 0 l 699 0 l 699 972 m 714 1264 l 571 1069 l 408 1069 l 492 1264 l 714 1264 z "},"Ň":{"ha":965,"x_min":72,"x_max":893,"o":"m 596 0 l 150 972 l 369 972 l 815 0 l 596 0 m 72 972 l 267 972 l 267 0 l 72 0 l 72 972 m 699 972 l 893 972 l 893 0 l 699 0 l 699 972 m 381 1069 l 243 1264 l 421 1264 l 518 1128 l 449 1128 l 544 1264 l 722 1264 l 585 1069 l 381 1069 z "},"Ņ":{"ha":965,"x_min":72,"x_max":893,"o":"m 596 0 l 150 972 l 369 972 l 815 0 l 596 0 m 72 972 l 267 972 l 267 0 l 72 0 l 72 972 m 699 972 l 893 972 l 893 0 l 699 0 l 699 972 m 435 -379 l 435 -301 q 474 -287 463 -301 q 485 -246 485 -272 l 386 -246 l 386 -58 l 579 -58 l 579 -246 q 538 -346 579 -312 q 435 -379 497 -379 z "},"Ñ":{"ha":965,"x_min":72,"x_max":893,"o":"m 596 0 l 150 972 l 369 972 l 815 0 l 596 0 m 72 972 l 267 972 l 267 0 l 72 0 l 72 972 m 699 972 l 893 972 l 893 0 l 699 0 l 699 972 m 413 1124 q 385 1113 394 1124 q 375 1078 375 1101 l 231 1078 q 255 1194 231 1151 q 313 1253 279 1236 q 376 1271 347 1271 q 451 1256 421 1271 q 506 1227 482 1242 q 556 1213 531 1213 q 581 1224 574 1213 q 589 1258 589 1235 l 735 1258 q 710 1142 735 1185 q 652 1081 686 1099 q 589 1063 618 1063 q 516 1078 546 1063 q 463 1108 486 1093 q 413 1124 439 1124 z "},"O":{"ha":1038,"x_min":39,"x_max":999,"o":"m 519 -22 q 258 47 365 -22 q 94 231 150 115 q 39 488 39 346 q 70 684 39 592 q 163 846 101 776 q 313 955 224 915 q 519 994 403 994 q 724 955 635 994 q 875 846 814 915 q 967 684 936 776 q 999 488 999 592 q 943 231 999 346 q 781 47 888 115 q 519 -22 674 -22 m 519 161 q 674 208 614 161 q 761 330 733 256 q 789 488 789 404 q 761 644 789 569 q 674 765 733 718 q 519 811 614 811 q 365 765 425 811 q 276 644 304 718 q 249 488 249 569 q 276 330 249 404 q 365 208 304 256 q 519 161 425 161 z "},"Ó":{"ha":1038,"x_min":39,"x_max":999,"o":"m 519 -22 q 258 47 365 -22 q 94 231 150 115 q 39 488 39 346 q 70 684 39 592 q 163 846 101 776 q 313 955 224 915 q 519 994 403 994 q 724 955 635 994 q 875 846 814 915 q 967 684 936 776 q 999 488 999 592 q 943 231 999 346 q 781 47 888 115 q 519 -22 674 -22 m 519 161 q 674 208 614 161 q 761 330 733 256 q 789 488 789 404 q 761 644 789 569 q 674 765 733 718 q 519 811 614 811 q 365 765 425 811 q 276 644 304 718 q 249 488 249 569 q 276 330 249 404 q 365 208 304 256 q 519 161 425 161 m 750 1264 l 607 1069 l 444 1069 l 528 1264 l 750 1264 z "},"Ŏ":{"ha":1038,"x_min":39,"x_max":999,"o":"m 519 -22 q 258 47 365 -22 q 94 231 150 115 q 39 488 39 346 q 70 684 39 592 q 163 846 101 776 q 313 955 224 915 q 519 994 403 994 q 724 955 635 994 q 875 846 814 915 q 967 684 936 776 q 999 488 999 592 q 943 231 999 346 q 781 47 888 115 q 519 -22 674 -22 m 519 161 q 674 208 614 161 q 761 330 733 256 q 789 488 789 404 q 761 644 789 569 q 674 765 733 718 q 519 811 614 811 q 365 765 425 811 q 276 644 304 718 q 249 488 249 569 q 276 330 249 404 q 365 208 304 256 q 519 161 425 161 m 756 1264 q 680 1110 746 1165 q 519 1056 614 1056 q 360 1110 426 1056 q 283 1264 293 1165 l 444 1264 q 519 1196 453 1196 q 572 1213 551 1196 q 594 1264 592 1231 l 756 1264 z "},"Ô":{"ha":1038,"x_min":39,"x_max":999,"o":"m 519 -22 q 258 47 365 -22 q 94 231 150 115 q 39 488 39 346 q 70 684 39 592 q 163 846 101 776 q 313 955 224 915 q 519 994 403 994 q 724 955 635 994 q 875 846 814 915 q 967 684 936 776 q 999 488 999 592 q 943 231 999 346 q 781 47 888 115 q 519 -22 674 -22 m 519 161 q 674 208 614 161 q 761 330 733 256 q 789 488 789 404 q 761 644 789 569 q 674 765 733 718 q 519 811 614 811 q 365 765 425 811 q 276 644 304 718 q 249 488 249 569 q 276 330 249 404 q 365 208 304 256 q 519 161 425 161 m 621 1264 l 758 1069 l 581 1069 l 485 1206 l 554 1206 l 457 1069 l 279 1069 l 417 1264 l 621 1264 z "},"Ö":{"ha":1038,"x_min":39,"x_max":999,"o":"m 519 -22 q 258 47 365 -22 q 94 231 150 115 q 39 488 39 346 q 70 684 39 592 q 163 846 101 776 q 313 955 224 915 q 519 994 403 994 q 724 955 635 994 q 875 846 814 915 q 967 684 936 776 q 999 488 999 592 q 943 231 999 346 q 781 47 888 115 q 519 -22 674 -22 m 519 161 q 674 208 614 161 q 761 330 733 256 q 789 488 789 404 q 761 644 789 569 q 674 765 733 718 q 519 811 614 811 q 365 765 425 811 q 276 644 304 718 q 249 488 249 569 q 276 330 249 404 q 365 208 304 256 q 519 161 425 161 m 272 1260 l 474 1260 l 474 1074 l 272 1074 l 272 1260 m 565 1260 l 767 1260 l 767 1074 l 565 1074 l 565 1260 z "},"Ò":{"ha":1038,"x_min":39,"x_max":999,"o":"m 519 -22 q 258 47 365 -22 q 94 231 150 115 q 39 488 39 346 q 70 684 39 592 q 163 846 101 776 q 313 955 224 915 q 519 994 403 994 q 724 955 635 994 q 875 846 814 915 q 967 684 936 776 q 999 488 999 592 q 943 231 999 346 q 781 47 888 115 q 519 -22 674 -22 m 519 161 q 674 208 614 161 q 761 330 733 256 q 789 488 789 404 q 761 644 789 569 q 674 765 733 718 q 519 811 614 811 q 365 765 425 811 q 276 644 304 718 q 249 488 249 569 q 276 330 249 404 q 365 208 304 256 q 519 161 425 161 m 431 1069 l 288 1264 l 510 1264 l 593 1069 l 431 1069 z "},"Ő":{"ha":1038,"x_min":39,"x_max":999,"o":"m 519 -22 q 258 47 365 -22 q 94 231 150 115 q 39 488 39 346 q 70 684 39 592 q 163 846 101 776 q 313 955 224 915 q 519 994 403 994 q 724 955 635 994 q 875 846 814 915 q 967 684 936 776 q 999 488 999 592 q 943 231 999 346 q 781 47 888 115 q 519 -22 674 -22 m 519 161 q 674 208 614 161 q 761 330 733 256 q 789 488 789 404 q 761 644 789 569 q 674 765 733 718 q 519 811 614 811 q 365 765 425 811 q 276 644 304 718 q 249 488 249 569 q 276 330 249 404 q 365 208 304 256 q 519 161 425 161 m 574 1264 l 469 1069 l 307 1069 l 376 1264 l 574 1264 m 815 1264 l 711 1069 l 549 1069 l 618 1264 l 815 1264 z "},"Ō":{"ha":1038,"x_min":39,"x_max":999,"o":"m 519 -22 q 258 47 365 -22 q 94 231 150 115 q 39 488 39 346 q 70 684 39 592 q 163 846 101 776 q 313 955 224 915 q 519 994 403 994 q 724 955 635 994 q 875 846 814 915 q 967 684 936 776 q 999 488 999 592 q 943 231 999 346 q 781 47 888 115 q 519 -22 674 -22 m 519 161 q 674 208 614 161 q 761 330 733 256 q 789 488 789 404 q 761 644 789 569 q 674 765 733 718 q 519 811 614 811 q 365 765 425 811 q 276 644 304 718 q 249 488 249 569 q 276 330 249 404 q 365 208 304 256 q 519 161 425 161 m 308 1244 l 732 1244 l 732 1089 l 308 1089 l 308 1244 z "},"Ø":{"ha":1038,"x_min":39,"x_max":999,"o":"m 519 -22 q 258 47 365 -22 q 94 231 150 115 q 39 488 39 346 q 70 684 39 592 q 163 846 101 776 q 313 955 224 915 q 519 994 403 994 q 724 955 635 994 q 875 846 814 915 q 967 684 936 776 q 999 488 999 592 q 943 231 999 346 q 781 47 888 115 q 519 -22 674 -22 m 186 -24 l 39 107 l 851 1015 l 999 885 l 186 -24 m 519 161 q 641 188 590 161 q 725 262 692 215 q 774 367 758 308 q 789 488 789 425 q 774 607 789 549 q 725 711 758 665 q 641 784 692 757 q 519 811 590 811 q 397 784 449 811 q 313 711 346 757 q 265 607 281 665 q 249 488 249 549 q 265 367 249 425 q 313 262 281 308 q 397 188 346 215 q 519 161 449 161 z "},"Õ":{"ha":1038,"x_min":39,"x_max":999,"o":"m 519 -22 q 258 47 365 -22 q 94 231 150 115 q 39 488 39 346 q 70 684 39 592 q 163 846 101 776 q 313 955 224 915 q 519 994 403 994 q 724 955 635 994 q 875 846 814 915 q 967 684 936 776 q 999 488 999 592 q 943 231 999 346 q 781 47 888 115 q 519 -22 674 -22 m 519 161 q 674 208 614 161 q 761 330 733 256 q 789 488 789 404 q 761 644 789 569 q 674 765 733 718 q 519 811 614 811 q 365 765 425 811 q 276 644 304 718 q 249 488 249 569 q 276 330 249 404 q 365 208 304 256 q 519 161 425 161 m 449 1124 q 421 1113 431 1124 q 411 1078 411 1101 l 267 1078 q 291 1194 267 1151 q 349 1253 315 1236 q 413 1271 383 1271 q 488 1256 457 1271 q 542 1227 518 1242 q 592 1213 567 1213 q 617 1224 610 1213 q 625 1258 625 1235 l 771 1258 q 747 1142 771 1185 q 688 1081 722 1099 q 625 1063 654 1063 q 552 1078 582 1063 q 499 1108 522 1093 q 449 1124 475 1124 z "},"Œ":{"ha":1503,"x_min":39,"x_max":1444,"o":"m 519 -22 q 258 47 365 -22 q 94 231 150 115 q 39 488 39 346 q 70 684 39 592 q 163 846 101 776 q 313 955 224 915 q 519 994 403 994 q 708 955 635 994 q 819 846 781 915 q 873 684 858 776 q 888 488 888 592 q 873 290 888 382 q 819 127 858 197 q 708 17 781 57 q 519 -22 635 -22 m 519 161 q 641 188 590 161 q 725 262 692 215 q 774 367 758 308 q 789 488 789 425 q 774 607 789 549 q 725 711 758 665 q 641 784 692 757 q 519 811 590 811 q 397 784 449 811 q 313 711 346 757 q 265 607 281 665 q 249 488 249 549 q 265 367 249 425 q 313 262 281 308 q 397 188 346 215 q 519 161 449 161 m 992 0 l 992 175 l 1444 175 l 1444 0 l 992 0 m 790 0 l 790 972 l 992 972 l 992 0 l 790 0 m 992 401 l 992 576 l 1383 576 l 1383 401 l 992 401 m 867 797 l 867 972 l 1439 972 l 1439 797 l 867 797 z "},"P":{"ha":879,"x_min":72,"x_max":832,"o":"m 72 972 l 274 972 l 274 0 l 72 0 l 72 972 m 149 494 l 408 494 l 408 319 l 149 319 l 149 494 m 408 494 q 523 506 475 494 q 597 551 571 518 q 622 646 622 583 q 597 741 622 708 q 523 785 571 774 q 408 797 475 797 l 408 972 q 630 940 535 972 q 778 837 725 908 q 832 646 832 765 q 778 456 832 528 q 630 351 725 383 q 408 319 535 319 l 408 494 m 149 972 l 408 972 l 408 797 l 149 797 l 149 972 z "},"Þ":{"ha":833,"x_min":58,"x_max":818,"o":"m 58 972 l 260 972 l 260 0 l 58 0 l 58 972 m 135 335 l 394 335 l 394 160 l 135 160 l 135 335 m 394 335 q 509 347 461 335 q 583 391 557 358 q 608 486 608 424 q 583 581 608 549 q 509 626 557 614 q 394 638 461 638 l 394 813 q 616 781 521 813 q 765 677 711 749 q 818 486 818 606 q 765 296 818 368 q 616 192 711 224 q 394 160 521 160 l 394 335 m 135 813 l 394 813 l 394 638 l 135 638 l 135 813 z "},"Q":{"ha":1038,"x_min":39,"x_max":999,"o":"m 519 -22 q 258 47 365 -22 q 94 231 150 115 q 39 488 39 346 q 70 684 39 592 q 163 846 101 776 q 313 955 224 915 q 519 994 403 994 q 724 955 635 994 q 875 846 814 915 q 967 684 936 776 q 999 488 999 592 q 943 231 999 346 q 781 47 888 115 q 519 -22 674 -22 m 418 -278 l 418 44 l 619 44 l 619 -103 l 789 -103 l 789 -278 l 418 -278 m 519 161 q 641 188 590 161 q 725 262 692 215 q 774 367 758 308 q 789 488 789 425 q 774 607 789 549 q 725 711 758 665 q 641 784 692 757 q 519 811 590 811 q 397 784 449 811 q 313 711 346 757 q 265 607 281 665 q 249 488 249 549 q 265 367 249 425 q 313 262 281 308 q 397 188 346 215 q 519 161 449 161 z "},"R":{"ha":892,"x_min":72,"x_max":839,"o":"m 72 972 l 274 972 l 274 0 l 72 0 l 72 972 m 149 508 l 408 508 l 408 333 l 149 333 l 149 508 m 408 508 q 523 522 475 508 q 597 566 571 535 q 622 653 622 597 q 597 740 622 708 q 523 784 571 771 q 408 797 475 797 l 408 972 q 630 942 535 972 q 778 842 725 911 q 832 653 832 772 q 778 465 832 535 q 630 364 725 394 q 408 333 535 333 l 408 508 m 149 972 l 408 972 l 408 797 l 149 797 l 149 972 m 419 449 l 621 449 l 839 0 l 610 0 l 419 449 z "},"Ŕ":{"ha":892,"x_min":72,"x_max":839,"o":"m 72 972 l 274 972 l 274 0 l 72 0 l 72 972 m 149 508 l 408 508 l 408 333 l 149 333 l 149 508 m 408 508 q 523 522 475 508 q 597 566 571 535 q 622 653 622 597 q 597 740 622 708 q 523 784 571 771 q 408 797 475 797 l 408 972 q 630 942 535 972 q 778 842 725 911 q 832 653 832 772 q 778 465 832 535 q 630 364 725 394 q 408 333 535 333 l 408 508 m 149 972 l 408 972 l 408 797 l 149 797 l 149 972 m 419 449 l 621 449 l 839 0 l 610 0 l 419 449 m 651 1264 l 508 1069 l 346 1069 l 429 1264 l 651 1264 z "},"Ř":{"ha":892,"x_min":72,"x_max":839,"o":"m 72 972 l 274 972 l 274 0 l 72 0 l 72 972 m 149 508 l 408 508 l 408 333 l 149 333 l 149 508 m 408 508 q 523 522 475 508 q 597 566 571 535 q 622 653 622 597 q 597 740 622 708 q 523 784 571 771 q 408 797 475 797 l 408 972 q 630 942 535 972 q 778 842 725 911 q 832 653 832 772 q 778 465 832 535 q 630 364 725 394 q 408 333 535 333 l 408 508 m 149 972 l 408 972 l 408 797 l 149 797 l 149 972 m 419 449 l 621 449 l 839 0 l 610 0 l 419 449 m 318 1069 l 181 1264 l 358 1264 l 456 1128 l 386 1128 l 482 1264 l 660 1264 l 522 1069 l 318 1069 z "},"Ŗ":{"ha":892,"x_min":72,"x_max":839,"o":"m 72 972 l 274 972 l 274 0 l 72 0 l 72 972 m 149 508 l 408 508 l 408 333 l 149 333 l 149 508 m 408 508 q 523 522 475 508 q 597 566 571 535 q 622 653 622 597 q 597 740 622 708 q 523 784 571 771 q 408 797 475 797 l 408 972 q 630 942 535 972 q 778 842 725 911 q 832 653 832 772 q 778 465 832 535 q 630 364 725 394 q 408 333 535 333 l 408 508 m 149 972 l 408 972 l 408 797 l 149 797 l 149 972 m 419 449 l 621 449 l 839 0 l 610 0 l 419 449 m 392 -379 l 392 -301 q 431 -287 419 -301 q 442 -246 442 -272 l 343 -246 l 343 -58 l 536 -58 l 536 -246 q 495 -346 536 -312 q 392 -379 454 -379 z "},"S":{"ha":883,"x_min":49,"x_max":835,"o":"m 261 310 q 293 231 267 264 q 362 179 319 197 q 457 161 404 161 q 576 185 528 161 q 625 263 625 210 q 594 322 625 300 q 513 358 564 344 q 403 386 463 372 q 283 420 343 400 q 172 475 222 440 q 90 566 121 510 q 60 708 60 622 q 109 856 60 792 q 245 958 158 921 q 443 994 332 994 q 636 951 551 994 q 770 833 721 908 q 819 664 819 758 l 608 664 q 560 772 603 733 q 436 811 518 811 q 313 782 356 811 q 269 708 269 753 q 300 643 269 667 q 381 604 331 619 q 492 576 432 589 q 613 543 553 563 q 723 490 672 524 q 804 402 774 457 q 835 263 835 347 q 733 53 835 128 q 449 -22 632 -22 q 247 21 336 -22 q 106 139 158 64 q 49 310 53 214 l 261 310 z "},"Ś":{"ha":883,"x_min":49,"x_max":835,"o":"m 261 310 q 293 231 267 264 q 362 179 319 197 q 457 161 404 161 q 576 185 528 161 q 625 263 625 210 q 594 322 625 300 q 513 358 564 344 q 403 386 463 372 q 283 420 343 400 q 172 475 222 440 q 90 566 121 510 q 60 708 60 622 q 109 856 60 792 q 245 958 158 921 q 443 994 332 994 q 636 951 551 994 q 770 833 721 908 q 819 664 819 758 l 608 664 q 560 772 603 733 q 436 811 518 811 q 313 782 356 811 q 269 708 269 753 q 300 643 269 667 q 381 604 331 619 q 492 576 432 589 q 613 543 553 563 q 723 490 672 524 q 804 402 774 457 q 835 263 835 347 q 733 53 835 128 q 449 -22 632 -22 q 247 21 336 -22 q 106 139 158 64 q 49 310 53 214 l 261 310 m 672 1264 l 529 1069 l 367 1069 l 450 1264 l 672 1264 z "},"Š":{"ha":883,"x_min":49,"x_max":835,"o":"m 261 310 q 293 231 267 264 q 362 179 319 197 q 457 161 404 161 q 576 185 528 161 q 625 263 625 210 q 594 322 625 300 q 513 358 564 344 q 403 386 463 372 q 283 420 343 400 q 172 475 222 440 q 90 566 121 510 q 60 708 60 622 q 109 856 60 792 q 245 958 158 921 q 443 994 332 994 q 636 951 551 994 q 770 833 721 908 q 819 664 819 758 l 608 664 q 560 772 603 733 q 436 811 518 811 q 313 782 356 811 q 269 708 269 753 q 300 643 269 667 q 381 604 331 619 q 492 576 432 589 q 613 543 553 563 q 723 490 672 524 q 804 402 774 457 q 835 263 835 347 q 733 53 835 128 q 449 -22 632 -22 q 247 21 336 -22 q 106 139 158 64 q 49 310 53 214 l 261 310 m 339 1069 l 201 1264 l 379 1264 l 476 1128 l 407 1128 l 503 1264 l 681 1264 l 543 1069 l 339 1069 z "},"Ş":{"ha":883,"x_min":49,"x_max":835,"o":"m 261 310 q 293 231 267 264 q 362 179 319 197 q 457 161 404 161 q 576 185 528 161 q 625 263 625 210 q 594 322 625 300 q 513 358 564 344 q 403 386 463 372 q 283 420 343 400 q 172 475 222 440 q 90 566 121 510 q 60 708 60 622 q 109 856 60 792 q 245 958 158 921 q 443 994 332 994 q 636 951 551 994 q 770 833 721 908 q 819 664 819 758 l 608 664 q 560 772 603 733 q 436 811 518 811 q 313 782 356 811 q 269 708 269 753 q 300 643 269 667 q 381 604 331 619 q 492 576 432 589 q 613 543 553 563 q 723 490 672 524 q 804 402 774 457 q 835 263 835 347 q 733 53 835 128 q 449 -22 632 -22 q 247 21 336 -22 q 106 139 158 64 q 49 310 53 214 l 261 310 m 404 56 l 533 56 l 533 -126 l 404 -126 l 404 56 m 471 -126 l 521 -35 q 647 -63 604 -35 q 690 -150 690 -92 q 648 -243 690 -208 q 524 -278 606 -278 l 365 -278 l 365 -174 l 471 -174 q 501 -167 494 -174 q 508 -150 508 -160 q 501 -133 508 -139 q 471 -126 494 -126 z "},"Ŝ":{"ha":883,"x_min":49,"x_max":835,"o":"m 261 310 q 293 231 267 264 q 362 179 319 197 q 457 161 404 161 q 576 185 528 161 q 625 263 625 210 q 594 322 625 300 q 513 358 564 344 q 403 386 463 372 q 283 420 343 400 q 172 475 222 440 q 90 566 121 510 q 60 708 60 622 q 109 856 60 792 q 245 958 158 921 q 443 994 332 994 q 636 951 551 994 q 770 833 721 908 q 819 664 819 758 l 608 664 q 560 772 603 733 q 436 811 518 811 q 313 782 356 811 q 269 708 269 753 q 300 643 269 667 q 381 604 331 619 q 492 576 432 589 q 613 543 553 563 q 723 490 672 524 q 804 402 774 457 q 835 263 835 347 q 733 53 835 128 q 449 -22 632 -22 q 247 21 336 -22 q 106 139 158 64 q 49 310 53 214 l 261 310 m 543 1264 l 681 1069 l 503 1069 l 407 1206 l 476 1206 l 379 1069 l 201 1069 l 339 1264 l 543 1264 z "},"Ș":{"ha":883,"x_min":49,"x_max":835,"o":"m 261 310 q 293 231 267 264 q 362 179 319 197 q 457 161 404 161 q 576 185 528 161 q 625 263 625 210 q 594 322 625 300 q 513 358 564 344 q 403 386 463 372 q 283 420 343 400 q 172 475 222 440 q 90 566 121 510 q 60 708 60 622 q 109 856 60 792 q 245 958 158 921 q 443 994 332 994 q 636 951 551 994 q 770 833 721 908 q 819 664 819 758 l 608 664 q 560 772 603 733 q 436 811 518 811 q 313 782 356 811 q 269 708 269 753 q 300 643 269 667 q 381 604 331 619 q 492 576 432 589 q 613 543 553 563 q 723 490 672 524 q 804 402 774 457 q 835 263 835 347 q 733 53 835 128 q 449 -22 632 -22 q 247 21 336 -22 q 106 139 158 64 q 49 310 53 214 l 261 310 m 393 -379 l 393 -301 q 432 -287 421 -301 q 443 -246 443 -272 l 344 -246 l 344 -58 l 538 -58 l 538 -246 q 497 -346 538 -312 q 393 -379 456 -379 z "},"ẞ":{"ha":917,"x_min":72,"x_max":868,"o":"m 338 0 l 338 175 l 486 175 q 572 184 532 175 q 635 219 611 193 q 658 293 658 244 q 635 365 658 342 q 572 396 611 389 q 486 403 532 403 l 379 403 l 379 542 l 590 850 l 619 797 l 274 797 l 274 0 l 72 0 l 72 972 l 804 972 l 804 797 l 597 501 l 563 549 q 744 516 678 551 q 840 422 811 481 q 868 293 868 363 q 838 153 868 210 q 756 63 808 96 q 635 15 704 29 q 486 0 565 0 l 338 0 z "},"T":{"ha":863,"x_min":28,"x_max":835,"o":"m 331 972 l 532 972 l 532 0 l 331 0 l 331 972 m 28 972 l 835 972 l 835 797 l 28 797 l 28 972 z "},"Ť":{"ha":863,"x_min":28,"x_max":835,"o":"m 331 972 l 532 972 l 532 0 l 331 0 l 331 972 m 28 972 l 835 972 l 835 797 l 28 797 l 28 972 m 329 1069 l 192 1264 l 369 1264 l 467 1128 l 397 1128 l 493 1264 l 671 1264 l 533 1069 l 329 1069 z "},"Ţ":{"ha":863,"x_min":28,"x_max":835,"o":"m 331 972 l 532 972 l 532 0 l 331 0 l 331 972 m 28 972 l 835 972 l 835 797 l 28 797 l 28 972 m 363 56 l 492 56 l 492 -126 l 363 -126 l 363 56 m 429 -126 l 479 -35 q 606 -63 563 -35 q 649 -150 649 -92 q 606 -243 649 -208 q 482 -278 564 -278 l 324 -278 l 324 -174 l 429 -174 q 460 -167 453 -174 q 467 -150 467 -160 q 460 -133 467 -139 q 429 -126 453 -126 z "},"Ț":{"ha":863,"x_min":28,"x_max":835,"o":"m 331 972 l 532 972 l 532 0 l 331 0 l 331 972 m 28 972 l 835 972 l 835 797 l 28 797 l 28 972 m 383 -379 l 383 -301 q 422 -287 411 -301 q 433 -246 433 -272 l 335 -246 l 335 -58 l 528 -58 l 528 -246 q 487 -346 528 -312 q 383 -379 446 -379 z "},"U":{"ha":935,"x_min":65,"x_max":869,"o":"m 869 417 q 829 181 869 279 q 701 31 789 83 q 468 -22 613 -22 q 234 31 322 -22 q 106 181 146 83 q 65 417 65 279 l 267 417 q 284 278 267 336 q 346 190 301 221 q 468 160 390 160 q 590 190 546 160 q 651 278 633 221 q 668 417 668 336 l 869 417 m 65 972 l 267 972 l 267 417 l 65 417 l 65 972 m 668 972 l 869 972 l 869 417 l 668 417 l 668 972 z "},"Ú":{"ha":935,"x_min":65,"x_max":869,"o":"m 869 417 q 829 181 869 279 q 701 31 789 83 q 468 -22 613 -22 q 234 31 322 -22 q 106 181 146 83 q 65 417 65 279 l 267 417 q 284 278 267 336 q 346 190 301 221 q 468 160 390 160 q 590 190 546 160 q 651 278 633 221 q 668 417 668 336 l 869 417 m 65 972 l 267 972 l 267 417 l 65 417 l 65 972 m 668 972 l 869 972 l 869 417 l 668 417 l 668 972 m 699 1264 l 556 1069 l 393 1069 l 476 1264 l 699 1264 z "},"Ŭ":{"ha":935,"x_min":65,"x_max":869,"o":"m 869 417 q 829 181 869 279 q 701 31 789 83 q 468 -22 613 -22 q 234 31 322 -22 q 106 181 146 83 q 65 417 65 279 l 267 417 q 284 278 267 336 q 346 190 301 221 q 468 160 390 160 q 590 190 546 160 q 651 278 633 221 q 668 417 668 336 l 869 417 m 65 972 l 267 972 l 267 417 l 65 417 l 65 972 m 668 972 l 869 972 l 869 417 l 668 417 l 668 972 m 704 1264 q 628 1110 694 1165 q 468 1056 563 1056 q 308 1110 375 1056 q 232 1264 242 1165 l 393 1264 q 468 1196 401 1196 q 520 1213 500 1196 q 543 1264 540 1231 l 704 1264 z "},"Û":{"ha":935,"x_min":65,"x_max":869,"o":"m 869 417 q 829 181 869 279 q 701 31 789 83 q 468 -22 613 -22 q 234 31 322 -22 q 106 181 146 83 q 65 417 65 279 l 267 417 q 284 278 267 336 q 346 190 301 221 q 468 160 390 160 q 590 190 546 160 q 651 278 633 221 q 668 417 668 336 l 869 417 m 65 972 l 267 972 l 267 417 l 65 417 l 65 972 m 668 972 l 869 972 l 869 417 l 668 417 l 668 972 m 569 1264 l 707 1069 l 529 1069 l 433 1206 l 503 1206 l 406 1069 l 228 1069 l 365 1264 l 569 1264 z "},"Ü":{"ha":935,"x_min":65,"x_max":869,"o":"m 869 417 q 829 181 869 279 q 701 31 789 83 q 468 -22 613 -22 q 234 31 322 -22 q 106 181 146 83 q 65 417 65 279 l 267 417 q 284 278 267 336 q 346 190 301 221 q 468 160 390 160 q 590 190 546 160 q 651 278 633 221 q 668 417 668 336 l 869 417 m 65 972 l 267 972 l 267 417 l 65 417 l 65 972 m 668 972 l 869 972 l 869 417 l 668 417 l 668 972 m 221 1260 l 422 1260 l 422 1074 l 221 1074 l 221 1260 m 514 1260 l 715 1260 l 715 1074 l 514 1074 l 514 1260 z "},"Ù":{"ha":935,"x_min":65,"x_max":869,"o":"m 869 417 q 829 181 869 279 q 701 31 789 83 q 468 -22 613 -22 q 234 31 322 -22 q 106 181 146 83 q 65 417 65 279 l 267 417 q 284 278 267 336 q 346 190 301 221 q 468 160 390 160 q 590 190 546 160 q 651 278 633 221 q 668 417 668 336 l 869 417 m 65 972 l 267 972 l 267 417 l 65 417 l 65 972 m 668 972 l 869 972 l 869 417 l 668 417 l 668 972 m 379 1069 l 236 1264 l 458 1264 l 542 1069 l 379 1069 z "},"Ű":{"ha":935,"x_min":65,"x_max":869,"o":"m 869 417 q 829 181 869 279 q 701 31 789 83 q 468 -22 613 -22 q 234 31 322 -22 q 106 181 146 83 q 65 417 65 279 l 267 417 q 284 278 267 336 q 346 190 301 221 q 468 160 390 160 q 590 190 546 160 q 651 278 633 221 q 668 417 668 336 l 869 417 m 65 972 l 267 972 l 267 417 l 65 417 l 65 972 m 668 972 l 869 972 l 869 417 l 668 417 l 668 972 m 522 1264 l 418 1069 l 256 1069 l 325 1264 l 522 1264 m 764 1264 l 660 1069 l 497 1069 l 567 1264 l 764 1264 z "},"Ū":{"ha":935,"x_min":65,"x_max":869,"o":"m 869 417 q 829 181 869 279 q 701 31 789 83 q 468 -22 613 -22 q 234 31 322 -22 q 106 181 146 83 q 65 417 65 279 l 267 417 q 284 278 267 336 q 346 190 301 221 q 468 160 390 160 q 590 190 546 160 q 651 278 633 221 q 668 417 668 336 l 869 417 m 65 972 l 267 972 l 267 417 l 65 417 l 65 972 m 668 972 l 869 972 l 869 417 l 668 417 l 668 972 m 257 1244 l 681 1244 l 681 1089 l 257 1089 l 257 1244 z "},"Ų":{"ha":935,"x_min":65,"x_max":869,"o":"m 869 417 q 829 181 869 279 q 701 31 789 83 q 468 -22 613 -22 q 234 31 322 -22 q 106 181 146 83 q 65 417 65 279 l 267 417 q 284 278 267 336 q 346 190 301 221 q 468 160 390 160 q 590 190 546 160 q 651 278 633 221 q 668 417 668 336 l 869 417 m 65 972 l 267 972 l 267 417 l 65 417 l 65 972 m 668 972 l 869 972 l 869 417 l 668 417 l 668 972 m 668 14 q 619 -1 639 8 q 590 -22 600 -10 q 581 -49 581 -33 q 586 -68 581 -60 q 605 -81 592 -76 q 640 -86 618 -86 l 703 -86 l 703 -264 l 633 -264 q 486 -226 544 -264 q 428 -119 428 -187 q 474 -13 428 -56 q 604 63 519 29 l 668 14 z "},"Ů":{"ha":935,"x_min":65,"x_max":869,"o":"m 869 417 q 829 181 869 279 q 701 31 789 83 q 468 -22 613 -22 q 234 31 322 -22 q 106 181 146 83 q 65 417 65 279 l 267 417 q 284 278 267 336 q 346 190 301 221 q 468 160 390 160 q 590 190 546 160 q 651 278 633 221 q 668 417 668 336 l 869 417 m 65 972 l 267 972 l 267 417 l 65 417 l 65 972 m 668 972 l 869 972 l 869 417 l 668 417 l 668 972 m 463 1021 q 362 1063 403 1021 q 321 1163 321 1104 q 362 1263 321 1221 q 463 1304 403 1304 q 563 1263 521 1304 q 604 1163 604 1221 q 563 1063 604 1104 q 463 1021 521 1021 m 464 1128 q 489 1138 479 1128 q 499 1163 499 1149 q 489 1188 499 1178 q 464 1197 479 1197 q 440 1188 450 1197 q 429 1164 429 1178 q 440 1138 429 1149 q 464 1128 450 1128 z "},"Ũ":{"ha":935,"x_min":65,"x_max":869,"o":"m 869 417 q 829 181 869 279 q 701 31 789 83 q 468 -22 613 -22 q 234 31 322 -22 q 106 181 146 83 q 65 417 65 279 l 267 417 q 284 278 267 336 q 346 190 301 221 q 468 160 390 160 q 590 190 546 160 q 651 278 633 221 q 668 417 668 336 l 869 417 m 65 972 l 267 972 l 267 417 l 65 417 l 65 972 m 668 972 l 869 972 l 869 417 l 668 417 l 668 972 m 397 1124 q 369 1113 379 1124 q 360 1078 360 1101 l 215 1078 q 240 1194 215 1151 q 298 1253 264 1236 q 361 1271 332 1271 q 436 1256 406 1271 q 491 1227 467 1242 q 540 1213 515 1213 q 566 1224 558 1213 q 574 1258 574 1235 l 719 1258 q 695 1142 719 1185 q 637 1081 671 1099 q 574 1063 603 1063 q 501 1078 531 1063 q 447 1108 471 1093 q 397 1124 424 1124 z "},"V":{"ha":926,"x_min":28,"x_max":899,"o":"m 321 0 l 28 972 l 233 972 l 513 0 l 321 0 m 606 0 l 414 0 l 693 972 l 899 972 l 606 0 z "},"W":{"ha":1425,"x_min":28,"x_max":1397,"o":"m 279 0 l 28 972 l 226 972 l 464 0 l 279 0 m 550 0 l 365 0 l 603 972 l 801 972 l 550 0 m 875 0 l 624 972 l 822 972 l 1060 0 l 875 0 m 1146 0 l 961 0 l 1199 972 l 1397 972 l 1146 0 z "},"Ẃ":{"ha":1425,"x_min":28,"x_max":1397,"o":"m 279 0 l 28 972 l 226 972 l 464 0 l 279 0 m 550 0 l 365 0 l 603 972 l 801 972 l 550 0 m 875 0 l 624 972 l 822 972 l 1060 0 l 875 0 m 1146 0 l 961 0 l 1199 972 l 1397 972 l 1146 0 m 943 1264 l 800 1069 l 638 1069 l 721 1264 l 943 1264 z "},"Ŵ":{"ha":1425,"x_min":28,"x_max":1397,"o":"m 279 0 l 28 972 l 226 972 l 464 0 l 279 0 m 550 0 l 365 0 l 603 972 l 801 972 l 550 0 m 875 0 l 624 972 l 822 972 l 1060 0 l 875 0 m 1146 0 l 961 0 l 1199 972 l 1397 972 l 1146 0 m 814 1264 l 951 1069 l 774 1069 l 678 1206 l 747 1206 l 650 1069 l 472 1069 l 610 1264 l 814 1264 z "},"Ẅ":{"ha":1425,"x_min":28,"x_max":1397,"o":"m 279 0 l 28 972 l 226 972 l 464 0 l 279 0 m 550 0 l 365 0 l 603 972 l 801 972 l 550 0 m 875 0 l 624 972 l 822 972 l 1060 0 l 875 0 m 1146 0 l 961 0 l 1199 972 l 1397 972 l 1146 0 m 465 1260 l 667 1260 l 667 1074 l 465 1074 l 465 1260 m 758 1260 l 960 1260 l 960 1074 l 758 1074 l 758 1260 z "},"Ẁ":{"ha":1425,"x_min":28,"x_max":1397,"o":"m 279 0 l 28 972 l 226 972 l 464 0 l 279 0 m 550 0 l 365 0 l 603 972 l 801 972 l 550 0 m 875 0 l 624 972 l 822 972 l 1060 0 l 875 0 m 1146 0 l 961 0 l 1199 972 l 1397 972 l 1146 0 m 624 1069 l 481 1264 l 703 1264 l 786 1069 l 624 1069 z "},"X":{"ha":929,"x_min":28,"x_max":901,"o":"m 668 0 l 32 972 l 265 972 l 901 0 l 668 0 m 261 0 l 28 0 l 664 972 l 897 972 l 261 0 z "},"Y":{"ha":871,"x_min":28,"x_max":843,"o":"m 361 267 l 28 972 l 233 972 l 463 471 l 410 471 l 638 972 l 843 972 l 510 267 l 361 267 m 335 485 l 536 485 l 536 0 l 335 0 l 335 485 z "},"Ý":{"ha":871,"x_min":28,"x_max":843,"o":"m 361 267 l 28 972 l 233 972 l 463 471 l 410 471 l 638 972 l 843 972 l 510 267 l 361 267 m 335 485 l 536 485 l 536 0 l 335 0 l 335 485 m 667 1264 l 524 1069 l 361 1069 l 444 1264 l 667 1264 z "},"Ŷ":{"ha":871,"x_min":28,"x_max":843,"o":"m 361 267 l 28 972 l 233 972 l 463 471 l 410 471 l 638 972 l 843 972 l 510 267 l 361 267 m 335 485 l 536 485 l 536 0 l 335 0 l 335 485 m 538 1264 l 675 1069 l 497 1069 l 401 1206 l 471 1206 l 374 1069 l 196 1069 l 333 1264 l 538 1264 z "},"Ÿ":{"ha":871,"x_min":28,"x_max":843,"o":"m 361 267 l 28 972 l 233 972 l 463 471 l 410 471 l 638 972 l 843 972 l 510 267 l 361 267 m 335 485 l 536 485 l 536 0 l 335 0 l 335 485 m 189 1260 l 390 1260 l 390 1074 l 189 1074 l 189 1260 m 482 1260 l 683 1260 l 683 1074 l 482 1074 l 482 1260 z "},"Ỳ":{"ha":871,"x_min":28,"x_max":843,"o":"m 361 267 l 28 972 l 233 972 l 463 471 l 410 471 l 638 972 l 843 972 l 510 267 l 361 267 m 335 485 l 536 485 l 536 0 l 335 0 l 335 485 m 347 1069 l 204 1264 l 426 1264 l 510 1069 l 347 1069 z "},"Ỹ":{"ha":871,"x_min":28,"x_max":843,"o":"m 361 267 l 28 972 l 233 972 l 463 471 l 410 471 l 638 972 l 843 972 l 510 267 l 361 267 m 335 485 l 536 485 l 536 0 l 335 0 l 335 485 m 365 1124 q 338 1113 347 1124 q 328 1078 328 1101 l 183 1078 q 208 1194 183 1151 q 266 1253 232 1236 q 329 1271 300 1271 q 404 1256 374 1271 q 459 1227 435 1242 q 508 1213 483 1213 q 534 1224 526 1213 q 542 1258 542 1235 l 688 1258 q 663 1142 688 1185 q 605 1081 639 1099 q 542 1063 571 1063 q 469 1078 499 1063 q 415 1108 439 1093 q 365 1124 392 1124 z "},"Z":{"ha":840,"x_min":42,"x_max":799,"o":"m 56 972 l 793 972 l 793 857 l 685 797 l 56 797 l 56 972 m 206 0 l 42 115 l 631 972 l 793 972 l 793 857 l 206 0 m 799 0 l 42 0 l 42 115 l 150 175 l 799 175 l 799 0 z "},"Ź":{"ha":840,"x_min":42,"x_max":799,"o":"m 56 972 l 793 972 l 793 857 l 685 797 l 56 797 l 56 972 m 206 0 l 42 115 l 631 972 l 793 972 l 793 857 l 206 0 m 799 0 l 42 0 l 42 115 l 150 175 l 799 175 l 799 0 m 651 1264 l 508 1069 l 346 1069 l 429 1264 l 651 1264 z "},"Ž":{"ha":840,"x_min":42,"x_max":799,"o":"m 56 972 l 793 972 l 793 857 l 685 797 l 56 797 l 56 972 m 206 0 l 42 115 l 631 972 l 793 972 l 793 857 l 206 0 m 799 0 l 42 0 l 42 115 l 150 175 l 799 175 l 799 0 m 318 1069 l 181 1264 l 358 1264 l 456 1128 l 386 1128 l 482 1264 l 660 1264 l 522 1069 l 318 1069 z "},"Ż":{"ha":840,"x_min":42,"x_max":799,"o":"m 56 972 l 793 972 l 793 857 l 685 797 l 56 797 l 56 972 m 206 0 l 42 115 l 631 972 l 793 972 l 793 857 l 206 0 m 799 0 l 42 0 l 42 115 l 150 175 l 799 175 l 799 0 m 328 1236 l 514 1236 l 514 1050 l 328 1050 l 328 1236 z "},"Ꞌ":{"ha":368,"x_min":69,"x_max":299,"o":"m 69 994 l 299 994 l 271 553 l 97 553 l 69 994 z "},"a":{"ha":800,"x_min":49,"x_max":739,"o":"m 540 444 l 739 444 l 739 0 l 540 0 l 540 444 m 403 800 q 653 704 568 800 q 739 444 739 608 l 540 444 q 531 535 540 494 q 491 601 521 576 q 403 626 461 626 q 292 590 329 626 q 256 504 256 553 l 49 504 q 90 651 49 583 q 211 759 132 718 q 403 800 290 800 m 560 489 l 589 357 q 353 326 425 364 q 282 232 282 288 q 310 176 282 194 q 376 158 339 158 q 451 169 413 158 q 515 213 489 181 q 540 307 540 244 l 578 246 q 549 108 578 168 q 466 13 519 47 q 338 -22 413 -22 q 202 6 261 -22 q 109 89 143 35 q 75 221 75 143 q 105 344 75 296 q 185 422 135 393 q 299 464 236 450 q 430 483 363 478 q 560 489 497 488 z "},"á":{"ha":800,"x_min":49,"x_max":739,"o":"m 540 444 l 739 444 l 739 0 l 540 0 l 540 444 m 403 800 q 653 704 568 800 q 739 444 739 608 l 540 444 q 531 535 540 494 q 491 601 521 576 q 403 626 461 626 q 292 590 329 626 q 256 504 256 553 l 49 504 q 90 651 49 583 q 211 759 132 718 q 403 800 290 800 m 560 489 l 589 357 q 353 326 425 364 q 282 232 282 288 q 310 176 282 194 q 376 158 339 158 q 451 169 413 158 q 515 213 489 181 q 540 307 540 244 l 578 246 q 549 108 578 168 q 466 13 519 47 q 338 -22 413 -22 q 202 6 261 -22 q 109 89 143 35 q 75 221 75 143 q 105 344 75 296 q 185 422 135 393 q 299 464 236 450 q 430 483 363 478 q 560 489 497 488 m 635 1069 l 492 875 l 329 875 l 413 1069 l 635 1069 z "},"ă":{"ha":800,"x_min":49,"x_max":739,"o":"m 540 444 l 739 444 l 739 0 l 540 0 l 540 444 m 403 800 q 653 704 568 800 q 739 444 739 608 l 540 444 q 531 535 540 494 q 491 601 521 576 q 403 626 461 626 q 292 590 329 626 q 256 504 256 553 l 49 504 q 90 651 49 583 q 211 759 132 718 q 403 800 290 800 m 560 489 l 589 357 q 353 326 425 364 q 282 232 282 288 q 310 176 282 194 q 376 158 339 158 q 451 169 413 158 q 515 213 489 181 q 540 307 540 244 l 578 246 q 549 108 578 168 q 466 13 519 47 q 338 -22 413 -22 q 202 6 261 -22 q 109 89 143 35 q 75 221 75 143 q 105 344 75 296 q 185 422 135 393 q 299 464 236 450 q 430 483 363 478 q 560 489 497 488 m 640 1069 q 565 916 631 971 q 404 861 499 861 q 244 916 311 861 q 168 1069 178 971 l 329 1069 q 404 1001 338 1001 q 456 1019 436 1001 q 479 1069 476 1036 l 640 1069 z "},"â":{"ha":800,"x_min":49,"x_max":739,"o":"m 540 444 l 739 444 l 739 0 l 540 0 l 540 444 m 403 800 q 653 704 568 800 q 739 444 739 608 l 540 444 q 531 535 540 494 q 491 601 521 576 q 403 626 461 626 q 292 590 329 626 q 256 504 256 553 l 49 504 q 90 651 49 583 q 211 759 132 718 q 403 800 290 800 m 560 489 l 589 357 q 353 326 425 364 q 282 232 282 288 q 310 176 282 194 q 376 158 339 158 q 451 169 413 158 q 515 213 489 181 q 540 307 540 244 l 578 246 q 549 108 578 168 q 466 13 519 47 q 338 -22 413 -22 q 202 6 261 -22 q 109 89 143 35 q 75 221 75 143 q 105 344 75 296 q 185 422 135 393 q 299 464 236 450 q 430 483 363 478 q 560 489 497 488 m 506 1069 l 643 875 l 465 875 l 369 1011 l 439 1011 l 342 875 l 164 875 l 301 1069 l 506 1069 z "},"ä":{"ha":800,"x_min":49,"x_max":739,"o":"m 540 444 l 739 444 l 739 0 l 540 0 l 540 444 m 403 800 q 653 704 568 800 q 739 444 739 608 l 540 444 q 531 535 540 494 q 491 601 521 576 q 403 626 461 626 q 292 590 329 626 q 256 504 256 553 l 49 504 q 90 651 49 583 q 211 759 132 718 q 403 800 290 800 m 560 489 l 589 357 q 353 326 425 364 q 282 232 282 288 q 310 176 282 194 q 376 158 339 158 q 451 169 413 158 q 515 213 489 181 q 540 307 540 244 l 578 246 q 549 108 578 168 q 466 13 519 47 q 338 -22 413 -22 q 202 6 261 -22 q 109 89 143 35 q 75 221 75 143 q 105 344 75 296 q 185 422 135 393 q 299 464 236 450 q 430 483 363 478 q 560 489 497 488 m 157 1065 l 358 1065 l 358 879 l 157 879 l 157 1065 m 450 1065 l 651 1065 l 651 879 l 450 879 l 450 1065 z "},"à":{"ha":800,"x_min":49,"x_max":739,"o":"m 540 444 l 739 444 l 739 0 l 540 0 l 540 444 m 403 800 q 653 704 568 800 q 739 444 739 608 l 540 444 q 531 535 540 494 q 491 601 521 576 q 403 626 461 626 q 292 590 329 626 q 256 504 256 553 l 49 504 q 90 651 49 583 q 211 759 132 718 q 403 800 290 800 m 560 489 l 589 357 q 353 326 425 364 q 282 232 282 288 q 310 176 282 194 q 376 158 339 158 q 451 169 413 158 q 515 213 489 181 q 540 307 540 244 l 578 246 q 549 108 578 168 q 466 13 519 47 q 338 -22 413 -22 q 202 6 261 -22 q 109 89 143 35 q 75 221 75 143 q 105 344 75 296 q 185 422 135 393 q 299 464 236 450 q 430 483 363 478 q 560 489 497 488 m 315 875 l 172 1069 l 394 1069 l 478 875 l 315 875 z "},"ā":{"ha":800,"x_min":49,"x_max":739,"o":"m 540 444 l 739 444 l 739 0 l 540 0 l 540 444 m 403 800 q 653 704 568 800 q 739 444 739 608 l 540 444 q 531 535 540 494 q 491 601 521 576 q 403 626 461 626 q 292 590 329 626 q 256 504 256 553 l 49 504 q 90 651 49 583 q 211 759 132 718 q 403 800 290 800 m 560 489 l 589 357 q 353 326 425 364 q 282 232 282 288 q 310 176 282 194 q 376 158 339 158 q 451 169 413 158 q 515 213 489 181 q 540 307 540 244 l 578 246 q 549 108 578 168 q 466 13 519 47 q 338 -22 413 -22 q 202 6 261 -22 q 109 89 143 35 q 75 221 75 143 q 105 344 75 296 q 185 422 135 393 q 299 464 236 450 q 430 483 363 478 q 560 489 497 488 m 193 1050 l 617 1050 l 617 894 l 193 894 l 193 1050 z "},"ą":{"ha":800,"x_min":49,"x_max":774,"o":"m 540 444 l 739 444 l 739 0 l 540 0 l 540 444 m 403 800 q 653 704 568 800 q 739 444 739 608 l 540 444 q 531 535 540 494 q 491 601 521 576 q 403 626 461 626 q 292 590 329 626 q 256 504 256 553 l 49 504 q 90 651 49 583 q 211 759 132 718 q 403 800 290 800 m 560 489 l 589 357 q 353 326 425 364 q 282 232 282 288 q 310 176 282 194 q 376 158 339 158 q 451 169 413 158 q 515 213 489 181 q 540 307 540 244 l 578 246 q 549 108 578 168 q 466 13 519 47 q 338 -22 413 -22 q 202 6 261 -22 q 109 89 143 35 q 75 221 75 143 q 105 344 75 296 q 185 422 135 393 q 299 464 236 450 q 430 483 363 478 q 560 489 497 488 m 739 0 q 690 -15 710 -6 q 661 -35 671 -24 q 651 -62 651 -47 q 657 -82 651 -74 q 676 -95 663 -90 q 711 -100 689 -100 l 774 -100 l 774 -278 l 704 -278 q 557 -240 615 -278 q 499 -133 499 -201 q 544 -27 499 -69 q 675 49 590 15 l 739 0 z "},"å":{"ha":800,"x_min":49,"x_max":739,"o":"m 540 444 l 739 444 l 739 0 l 540 0 l 540 444 m 403 800 q 653 704 568 800 q 739 444 739 608 l 540 444 q 531 535 540 494 q 491 601 521 576 q 403 626 461 626 q 292 590 329 626 q 256 504 256 553 l 49 504 q 90 651 49 583 q 211 759 132 718 q 403 800 290 800 m 560 489 l 589 357 q 353 326 425 364 q 282 232 282 288 q 310 176 282 194 q 376 158 339 158 q 451 169 413 158 q 515 213 489 181 q 540 307 540 244 l 578 246 q 549 108 578 168 q 466 13 519 47 q 338 -22 413 -22 q 202 6 261 -22 q 109 89 143 35 q 75 221 75 143 q 105 344 75 296 q 185 422 135 393 q 299 464 236 450 q 430 483 363 478 q 560 489 497 488 m 403 839 q 302 881 343 839 q 261 981 261 922 q 302 1081 261 1039 q 403 1122 343 1122 q 503 1081 461 1122 q 544 981 544 1039 q 503 881 544 922 q 403 839 461 839 m 404 946 q 429 956 419 946 q 439 981 439 967 q 429 1006 439 996 q 404 1015 419 1015 q 380 1006 390 1015 q 369 982 369 996 q 380 956 369 967 q 404 946 390 946 z "},"ã":{"ha":800,"x_min":49,"x_max":739,"o":"m 540 444 l 739 444 l 739 0 l 540 0 l 540 444 m 403 800 q 653 704 568 800 q 739 444 739 608 l 540 444 q 531 535 540 494 q 491 601 521 576 q 403 626 461 626 q 292 590 329 626 q 256 504 256 553 l 49 504 q 90 651 49 583 q 211 759 132 718 q 403 800 290 800 m 560 489 l 589 357 q 353 326 425 364 q 282 232 282 288 q 310 176 282 194 q 376 158 339 158 q 451 169 413 158 q 515 213 489 181 q 540 307 540 244 l 578 246 q 549 108 578 168 q 466 13 519 47 q 338 -22 413 -22 q 202 6 261 -22 q 109 89 143 35 q 75 221 75 143 q 105 344 75 296 q 185 422 135 393 q 299 464 236 450 q 430 483 363 478 q 560 489 497 488 m 333 929 q 306 918 315 929 q 296 883 296 907 l 151 883 q 176 999 151 957 q 234 1059 200 1042 q 297 1076 268 1076 q 372 1062 342 1076 q 427 1033 403 1047 q 476 1018 451 1018 q 502 1029 494 1018 q 510 1064 510 1040 l 656 1064 q 631 947 656 990 q 573 886 607 904 q 510 868 539 868 q 437 883 467 868 q 383 914 407 899 q 333 929 360 929 z "},"æ":{"ha":1331,"x_min":49,"x_max":1307,"o":"m 936 -22 q 727 30 817 -22 q 588 175 638 82 q 539 388 539 268 q 588 595 539 501 q 727 744 638 689 q 936 800 817 800 q 1086 768 1015 800 q 1208 675 1157 736 q 1283 525 1260 614 q 1290 322 1307 436 l 651 322 l 651 483 l 1156 483 l 1092 446 q 1084 527 1099 486 q 1033 595 1069 568 q 936 622 997 622 q 822 591 865 622 q 760 506 779 560 q 742 388 742 453 q 760 271 742 324 q 822 187 779 218 q 936 156 865 156 q 1031 182 993 156 q 1083 247 1068 208 l 1293 247 q 1228 106 1276 167 q 1105 12 1179 46 q 936 -22 1031 -22 m 338 -22 q 202 6 261 -22 q 109 89 143 35 q 75 221 75 143 q 105 344 75 296 q 185 422 135 393 q 299 464 236 450 q 430 483 363 478 q 560 489 497 488 l 589 321 q 353 305 425 328 q 282 226 282 282 q 310 174 282 189 q 376 158 339 158 q 451 169 413 158 q 515 213 489 181 q 540 307 540 244 l 667 196 q 547 35 633 92 q 338 -22 460 -22 m 540 444 q 532 534 540 494 q 494 597 524 574 q 403 619 465 619 q 311 601 343 619 q 267 552 279 582 q 256 490 256 522 l 49 490 q 90 640 49 569 q 211 756 132 711 q 403 800 290 800 q 588 753 513 800 q 701 627 663 707 q 739 444 739 547 l 540 444 m 540 289 l 540 444 l 739 444 l 739 289 l 540 289 z "},"b":{"ha":872,"x_min":67,"x_max":838,"o":"m 488 -22 q 335 15 393 -22 q 244 119 276 53 q 197 272 213 186 l 194 500 q 247 661 213 594 q 340 764 282 728 q 488 800 399 800 q 676 747 599 800 q 796 601 754 694 q 838 388 838 508 q 796 175 838 268 q 676 30 754 82 q 488 -22 599 -22 m 67 0 l 67 1042 l 265 1042 l 265 0 l 67 0 m 453 156 q 554 187 514 156 q 615 271 594 218 q 635 388 635 324 q 615 506 635 453 q 554 591 594 560 q 453 622 514 622 q 347 591 389 622 q 285 506 306 560 q 265 388 265 453 q 285 271 265 324 q 347 187 306 218 q 453 156 389 156 z "},"c":{"ha":832,"x_min":35,"x_max":797,"o":"m 797 326 q 751 147 797 226 q 624 23 706 68 q 432 -22 542 -22 q 223 30 313 -22 q 84 175 133 82 q 35 388 35 268 q 84 601 35 508 q 223 747 133 694 q 432 800 313 800 q 619 753 538 800 q 748 633 701 707 q 794 472 794 558 l 585 472 q 569 543 585 510 q 521 598 554 576 q 432 619 488 619 q 318 589 361 619 q 256 506 275 558 q 238 388 238 453 q 256 272 238 324 q 318 189 275 219 q 432 158 361 158 q 522 182 488 158 q 574 244 557 206 q 590 326 590 282 l 797 326 z "},"ć":{"ha":832,"x_min":35,"x_max":797,"o":"m 797 326 q 751 147 797 226 q 624 23 706 68 q 432 -22 542 -22 q 223 30 313 -22 q 84 175 133 82 q 35 388 35 268 q 84 601 35 508 q 223 747 133 694 q 432 800 313 800 q 619 753 538 800 q 748 633 701 707 q 794 472 794 558 l 585 472 q 569 543 585 510 q 521 598 554 576 q 432 619 488 619 q 318 589 361 619 q 256 506 275 558 q 238 388 238 453 q 256 272 238 324 q 318 189 275 219 q 432 158 361 158 q 522 182 488 158 q 574 244 557 206 q 590 326 590 282 l 797 326 m 647 1069 l 504 875 l 342 875 l 425 1069 l 647 1069 z "},"č":{"ha":832,"x_min":35,"x_max":797,"o":"m 797 326 q 751 147 797 226 q 624 23 706 68 q 432 -22 542 -22 q 223 30 313 -22 q 84 175 133 82 q 35 388 35 268 q 84 601 35 508 q 223 747 133 694 q 432 800 313 800 q 619 753 538 800 q 748 633 701 707 q 794 472 794 558 l 585 472 q 569 543 585 510 q 521 598 554 576 q 432 619 488 619 q 318 589 361 619 q 256 506 275 558 q 238 388 238 453 q 256 272 238 324 q 318 189 275 219 q 432 158 361 158 q 522 182 488 158 q 574 244 557 206 q 590 326 590 282 l 797 326 m 314 875 l 176 1069 l 354 1069 l 451 933 l 382 933 l 478 1069 l 656 1069 l 518 875 l 314 875 z "},"ç":{"ha":832,"x_min":35,"x_max":797,"o":"m 797 326 q 751 147 797 226 q 624 23 706 68 q 432 -22 542 -22 q 223 30 313 -22 q 84 175 133 82 q 35 388 35 268 q 84 601 35 508 q 223 747 133 694 q 432 800 313 800 q 619 753 538 800 q 748 633 701 707 q 794 472 794 558 l 585 472 q 569 543 585 510 q 521 598 554 576 q 432 619 488 619 q 318 589 361 619 q 256 506 275 558 q 238 388 238 453 q 256 272 238 324 q 318 189 275 219 q 432 158 361 158 q 522 182 488 158 q 574 244 557 206 q 590 326 590 282 l 797 326 m 379 56 l 508 56 l 508 -126 l 379 -126 l 379 56 m 446 -126 l 496 -35 q 622 -63 579 -35 q 665 -150 665 -92 q 623 -243 665 -208 q 499 -278 581 -278 l 340 -278 l 340 -174 l 446 -174 q 476 -167 469 -174 q 483 -150 483 -160 q 476 -133 483 -139 q 446 -126 469 -126 z "},"ĉ":{"ha":832,"x_min":35,"x_max":797,"o":"m 797 326 q 751 147 797 226 q 624 23 706 68 q 432 -22 542 -22 q 223 30 313 -22 q 84 175 133 82 q 35 388 35 268 q 84 601 35 508 q 223 747 133 694 q 432 800 313 800 q 619 753 538 800 q 748 633 701 707 q 794 472 794 558 l 585 472 q 569 543 585 510 q 521 598 554 576 q 432 619 488 619 q 318 589 361 619 q 256 506 275 558 q 238 388 238 453 q 256 272 238 324 q 318 189 275 219 q 432 158 361 158 q 522 182 488 158 q 574 244 557 206 q 590 326 590 282 l 797 326 m 518 1069 l 656 875 l 478 875 l 382 1011 l 451 1011 l 354 875 l 176 875 l 314 1069 l 518 1069 z "},"ċ":{"ha":832,"x_min":35,"x_max":797,"o":"m 797 326 q 751 147 797 226 q 624 23 706 68 q 432 -22 542 -22 q 223 30 313 -22 q 84 175 133 82 q 35 388 35 268 q 84 601 35 508 q 223 747 133 694 q 432 800 313 800 q 619 753 538 800 q 748 633 701 707 q 794 472 794 558 l 585 472 q 569 543 585 510 q 521 598 554 576 q 432 619 488 619 q 318 589 361 619 q 256 506 275 558 q 238 388 238 453 q 256 272 238 324 q 318 189 275 219 q 432 158 361 158 q 522 182 488 158 q 574 244 557 206 q 590 326 590 282 l 797 326 m 324 1042 l 510 1042 l 510 856 l 324 856 l 324 1042 z "},"d":{"ha":872,"x_min":35,"x_max":806,"o":"m 385 -22 q 197 30 275 -22 q 76 175 118 82 q 35 388 35 268 q 76 601 35 508 q 197 747 118 694 q 385 800 275 800 q 517 772 463 800 q 607 692 572 744 l 607 85 q 520 6 574 35 q 385 -22 467 -22 m 419 156 q 525 187 483 156 q 587 271 567 218 q 607 388 607 324 q 587 506 607 453 q 525 591 567 560 q 419 622 483 622 q 319 591 360 622 q 258 506 278 560 q 238 388 238 453 q 258 271 238 324 q 319 187 278 218 q 419 156 360 156 m 607 0 l 607 1042 l 806 1042 l 806 0 l 607 0 z "},"ď":{"ha":872,"x_min":35,"x_max":1076,"o":"m 385 -22 q 197 30 275 -22 q 76 175 118 82 q 35 388 35 268 q 76 601 35 508 q 197 747 118 694 q 385 800 275 800 q 517 772 463 800 q 607 692 572 744 l 607 85 q 520 6 574 35 q 385 -22 467 -22 m 419 156 q 525 187 483 156 q 587 271 567 218 q 607 388 607 324 q 587 506 607 453 q 525 591 567 560 q 419 622 483 622 q 319 591 360 622 q 258 506 278 560 q 238 388 238 453 q 258 271 238 324 q 319 187 278 218 q 419 156 360 156 m 607 0 l 607 1042 l 806 1042 l 806 0 l 607 0 m 932 721 l 932 799 q 971 813 960 799 q 982 854 982 828 l 883 854 l 883 1042 l 1076 1042 l 1076 854 q 1035 754 1076 788 q 932 721 994 721 z "},"đ":{"ha":976,"x_min":35,"x_max":917,"o":"m 385 -22 q 197 30 275 -22 q 76 175 118 82 q 35 388 35 268 q 76 601 35 508 q 197 747 118 694 q 385 800 275 800 q 517 772 463 800 q 607 692 572 744 l 607 85 q 520 6 574 35 q 385 -22 467 -22 m 419 156 q 525 187 483 156 q 587 271 567 218 q 607 388 607 324 q 587 506 607 453 q 525 591 567 560 q 419 622 483 622 q 319 591 360 622 q 258 506 278 560 q 238 388 238 453 q 258 271 238 324 q 319 187 278 218 q 419 156 360 156 m 607 0 l 607 1042 l 806 1042 l 806 0 l 607 0 m 440 972 l 917 972 l 917 839 l 440 839 l 440 972 z "},"ð":{"ha":831,"x_min":35,"x_max":764,"o":"m 385 -22 q 203 28 282 -22 q 79 166 124 78 q 35 367 35 254 q 79 559 35 474 q 203 694 124 644 q 385 744 282 744 q 554 701 475 744 q 676 557 633 658 l 568 564 q 513 740 553 674 q 405 838 472 807 q 243 868 338 868 l 243 1042 q 485 990 385 1042 q 646 849 585 939 q 735 642 707 758 q 764 394 764 525 q 715 172 764 265 q 581 28 667 78 q 385 -22 496 -22 m 406 156 q 483 176 447 156 q 542 242 519 196 q 565 367 565 289 q 542 476 565 432 q 483 544 519 521 q 406 567 447 567 q 326 547 365 567 q 263 483 288 526 q 238 367 238 439 q 263 242 238 289 q 326 176 288 196 q 406 156 365 156 m 274 833 l 464 1079 l 581 999 l 390 753 l 274 833 z "},"e":{"ha":826,"x_min":35,"x_max":803,"o":"m 432 -22 q 223 30 313 -22 q 84 175 133 82 q 35 388 35 268 q 84 601 35 508 q 223 747 133 694 q 432 800 313 800 q 582 768 511 800 q 704 675 653 736 q 779 525 756 614 q 786 322 803 436 l 147 322 l 147 483 l 651 483 l 588 446 q 580 527 594 486 q 529 595 565 568 q 432 622 493 622 q 318 591 361 622 q 256 506 275 560 q 238 388 238 453 q 256 271 238 324 q 318 187 275 218 q 432 156 361 156 q 526 182 489 156 q 579 247 564 208 l 789 247 q 724 106 772 167 q 601 12 675 46 q 432 -22 526 -22 z "},"é":{"ha":826,"x_min":35,"x_max":803,"o":"m 432 -22 q 223 30 313 -22 q 84 175 133 82 q 35 388 35 268 q 84 601 35 508 q 223 747 133 694 q 432 800 313 800 q 582 768 511 800 q 704 675 653 736 q 779 525 756 614 q 786 322 803 436 l 147 322 l 147 483 l 651 483 l 588 446 q 580 527 594 486 q 529 595 565 568 q 432 622 493 622 q 318 591 361 622 q 256 506 275 560 q 238 388 238 453 q 256 271 238 324 q 318 187 275 218 q 432 156 361 156 q 526 182 489 156 q 579 247 564 208 l 789 247 q 724 106 772 167 q 601 12 675 46 q 432 -22 526 -22 m 644 1069 l 501 875 l 339 875 l 422 1069 l 644 1069 z "},"ě":{"ha":826,"x_min":35,"x_max":803,"o":"m 432 -22 q 223 30 313 -22 q 84 175 133 82 q 35 388 35 268 q 84 601 35 508 q 223 747 133 694 q 432 800 313 800 q 582 768 511 800 q 704 675 653 736 q 779 525 756 614 q 786 322 803 436 l 147 322 l 147 483 l 651 483 l 588 446 q 580 527 594 486 q 529 595 565 568 q 432 622 493 622 q 318 591 361 622 q 256 506 275 560 q 238 388 238 453 q 256 271 238 324 q 318 187 275 218 q 432 156 361 156 q 526 182 489 156 q 579 247 564 208 l 789 247 q 724 106 772 167 q 601 12 675 46 q 432 -22 526 -22 m 311 875 l 174 1069 l 351 1069 l 449 933 l 379 933 l 475 1069 l 653 1069 l 515 875 l 311 875 z "},"ê":{"ha":826,"x_min":35,"x_max":803,"o":"m 432 -22 q 223 30 313 -22 q 84 175 133 82 q 35 388 35 268 q 84 601 35 508 q 223 747 133 694 q 432 800 313 800 q 582 768 511 800 q 704 675 653 736 q 779 525 756 614 q 786 322 803 436 l 147 322 l 147 483 l 651 483 l 588 446 q 580 527 594 486 q 529 595 565 568 q 432 622 493 622 q 318 591 361 622 q 256 506 275 560 q 238 388 238 453 q 256 271 238 324 q 318 187 275 218 q 432 156 361 156 q 526 182 489 156 q 579 247 564 208 l 789 247 q 724 106 772 167 q 601 12 675 46 q 432 -22 526 -22 m 515 1069 l 653 875 l 475 875 l 379 1011 l 449 1011 l 351 875 l 174 875 l 311 1069 l 515 1069 z "},"ë":{"ha":826,"x_min":35,"x_max":803,"o":"m 432 -22 q 223 30 313 -22 q 84 175 133 82 q 35 388 35 268 q 84 601 35 508 q 223 747 133 694 q 432 800 313 800 q 582 768 511 800 q 704 675 653 736 q 779 525 756 614 q 786 322 803 436 l 147 322 l 147 483 l 651 483 l 588 446 q 580 527 594 486 q 529 595 565 568 q 432 622 493 622 q 318 591 361 622 q 256 506 275 560 q 238 388 238 453 q 256 271 238 324 q 318 187 275 218 q 432 156 361 156 q 526 182 489 156 q 579 247 564 208 l 789 247 q 724 106 772 167 q 601 12 675 46 q 432 -22 526 -22 m 167 1065 l 368 1065 l 368 879 l 167 879 l 167 1065 m 460 1065 l 661 1065 l 661 879 l 460 879 l 460 1065 z "},"ė":{"ha":826,"x_min":35,"x_max":803,"o":"m 432 -22 q 223 30 313 -22 q 84 175 133 82 q 35 388 35 268 q 84 601 35 508 q 223 747 133 694 q 432 800 313 800 q 582 768 511 800 q 704 675 653 736 q 779 525 756 614 q 786 322 803 436 l 147 322 l 147 483 l 651 483 l 588 446 q 580 527 594 486 q 529 595 565 568 q 432 622 493 622 q 318 591 361 622 q 256 506 275 560 q 238 388 238 453 q 256 271 238 324 q 318 187 275 218 q 432 156 361 156 q 526 182 489 156 q 579 247 564 208 l 789 247 q 724 106 772 167 q 601 12 675 46 q 432 -22 526 -22 m 321 1042 l 507 1042 l 507 856 l 321 856 l 321 1042 z "},"è":{"ha":826,"x_min":35,"x_max":803,"o":"m 432 -22 q 223 30 313 -22 q 84 175 133 82 q 35 388 35 268 q 84 601 35 508 q 223 747 133 694 q 432 800 313 800 q 582 768 511 800 q 704 675 653 736 q 779 525 756 614 q 786 322 803 436 l 147 322 l 147 483 l 651 483 l 588 446 q 580 527 594 486 q 529 595 565 568 q 432 622 493 622 q 318 591 361 622 q 256 506 275 560 q 238 388 238 453 q 256 271 238 324 q 318 187 275 218 q 432 156 361 156 q 526 182 489 156 q 579 247 564 208 l 789 247 q 724 106 772 167 q 601 12 675 46 q 432 -22 526 -22 m 325 875 l 182 1069 l 404 1069 l 488 875 l 325 875 z "},"ē":{"ha":826,"x_min":35,"x_max":803,"o":"m 432 -22 q 223 30 313 -22 q 84 175 133 82 q 35 388 35 268 q 84 601 35 508 q 223 747 133 694 q 432 800 313 800 q 582 768 511 800 q 704 675 653 736 q 779 525 756 614 q 786 322 803 436 l 147 322 l 147 483 l 651 483 l 588 446 q 580 527 594 486 q 529 595 565 568 q 432 622 493 622 q 318 591 361 622 q 256 506 275 560 q 238 388 238 453 q 256 271 238 324 q 318 187 275 218 q 432 156 361 156 q 526 182 489 156 q 579 247 564 208 l 789 247 q 724 106 772 167 q 601 12 675 46 q 432 -22 526 -22 m 203 1050 l 626 1050 l 626 894 l 203 894 l 203 1050 z "},"ę":{"ha":826,"x_min":35,"x_max":803,"o":"m 432 -22 q 223 30 313 -22 q 84 175 133 82 q 35 388 35 268 q 84 601 35 508 q 223 747 133 694 q 432 800 313 800 q 582 768 511 800 q 704 675 653 736 q 779 525 756 614 q 786 322 803 436 l 147 322 l 147 483 l 651 483 l 588 446 q 580 527 594 486 q 529 595 565 568 q 432 622 493 622 q 318 591 361 622 q 256 506 275 560 q 238 388 238 453 q 256 271 238 324 q 318 187 275 218 q 432 156 361 156 q 526 182 489 156 q 579 247 564 208 l 789 247 q 724 106 772 167 q 601 12 675 46 q 432 -22 526 -22 m 569 0 q 521 -15 540 -6 q 492 -35 501 -24 q 482 -62 482 -47 q 488 -82 482 -74 q 506 -95 493 -90 q 542 -100 519 -100 l 604 -100 l 604 -278 l 535 -278 q 388 -240 446 -278 q 329 -133 329 -201 q 375 -27 329 -69 q 506 49 421 15 l 569 0 z "},"ẽ":{"ha":826,"x_min":35,"x_max":803,"o":"m 432 -22 q 223 30 313 -22 q 84 175 133 82 q 35 388 35 268 q 84 601 35 508 q 223 747 133 694 q 432 800 313 800 q 582 768 511 800 q 704 675 653 736 q 779 525 756 614 q 786 322 803 436 l 147 322 l 147 483 l 651 483 l 588 446 q 580 527 594 486 q 529 595 565 568 q 432 622 493 622 q 318 591 361 622 q 256 506 275 560 q 238 388 238 453 q 256 271 238 324 q 318 187 275 218 q 432 156 361 156 q 526 182 489 156 q 579 247 564 208 l 789 247 q 724 106 772 167 q 601 12 675 46 q 432 -22 526 -22 m 343 929 q 315 918 325 929 q 306 883 306 907 l 161 883 q 185 999 161 957 q 244 1059 210 1042 q 307 1076 278 1076 q 382 1062 351 1076 q 437 1033 413 1047 q 486 1018 461 1018 q 512 1029 504 1018 q 519 1064 519 1040 l 665 1064 q 641 947 665 990 q 583 886 617 904 q 519 868 549 868 q 447 883 476 868 q 393 914 417 899 q 343 929 369 929 z "},"ə":{"ha":826,"x_min":24,"x_max":792,"o":"m 394 -22 q 244 10 315 -22 q 122 103 174 42 q 47 253 71 164 q 40 456 24 342 l 679 456 l 679 294 l 175 294 l 239 332 q 247 251 233 292 q 297 183 261 210 q 394 156 333 156 q 509 187 467 156 q 570 272 551 218 q 589 390 589 325 q 570 508 589 456 q 509 591 551 560 q 394 622 467 622 q 301 597 339 622 q 247 531 263 571 l 38 531 q 103 672 54 611 q 226 766 151 732 q 394 800 300 800 q 604 748 515 800 q 742 603 693 696 q 792 390 792 511 q 742 176 792 269 q 604 31 693 83 q 394 -22 515 -22 z "},"f":{"ha":501,"x_min":28,"x_max":460,"o":"m 117 0 l 117 803 q 147 936 117 883 q 238 1015 176 989 q 389 1042 299 1042 l 460 1042 l 460 872 l 390 872 q 315 803 315 872 l 315 0 l 117 0 m 28 778 l 454 778 l 454 608 l 28 608 l 28 778 z "},"g":{"ha":869,"x_min":35,"x_max":806,"o":"m 385 6 q 197 54 275 6 q 76 192 118 103 q 35 401 35 282 q 76 612 35 522 q 197 751 118 701 q 385 800 275 800 q 585 727 518 800 q 678 514 651 654 l 675 286 q 628 137 660 200 q 538 40 596 74 q 385 6 479 6 m 447 -300 q 246 -261 324 -300 q 127 -160 168 -222 q 75 -33 86 -99 l 279 -33 q 340 -105 294 -87 q 447 -122 386 -122 q 525 -107 489 -122 q 584 -56 561 -92 q 607 42 607 -21 l 806 42 q 758 -144 806 -68 q 629 -260 710 -221 q 447 -300 549 -300 m 419 183 q 561 244 515 183 q 607 401 607 304 q 561 561 607 500 q 419 622 515 622 q 283 561 329 622 q 238 401 238 500 q 283 244 238 304 q 419 183 329 183 m 607 42 l 607 778 l 806 778 l 806 42 l 607 42 z "},"ğ":{"ha":869,"x_min":35,"x_max":806,"o":"m 385 6 q 197 54 275 6 q 76 192 118 103 q 35 401 35 282 q 76 612 35 522 q 197 751 118 701 q 385 800 275 800 q 585 727 518 800 q 678 514 651 654 l 675 286 q 628 137 660 200 q 538 40 596 74 q 385 6 479 6 m 447 -300 q 246 -261 324 -300 q 127 -160 168 -222 q 75 -33 86 -99 l 279 -33 q 340 -105 294 -87 q 447 -122 386 -122 q 525 -107 489 -122 q 584 -56 561 -92 q 607 42 607 -21 l 806 42 q 758 -144 806 -68 q 629 -260 710 -221 q 447 -300 549 -300 m 419 183 q 561 244 515 183 q 607 401 607 304 q 561 561 607 500 q 419 622 515 622 q 283 561 329 622 q 238 401 238 500 q 283 244 238 304 q 419 183 329 183 m 607 42 l 607 778 l 806 778 l 806 42 l 607 42 m 665 1069 q 590 916 656 971 q 429 861 524 861 q 269 916 336 861 q 193 1069 203 971 l 354 1069 q 429 1001 363 1001 q 481 1019 461 1001 q 504 1069 501 1036 l 665 1069 z "},"ǧ":{"ha":869,"x_min":35,"x_max":806,"o":"m 385 6 q 197 54 275 6 q 76 192 118 103 q 35 401 35 282 q 76 612 35 522 q 197 751 118 701 q 385 800 275 800 q 585 727 518 800 q 678 514 651 654 l 675 286 q 628 137 660 200 q 538 40 596 74 q 385 6 479 6 m 447 -300 q 246 -261 324 -300 q 127 -160 168 -222 q 75 -33 86 -99 l 279 -33 q 340 -105 294 -87 q 447 -122 386 -122 q 525 -107 489 -122 q 584 -56 561 -92 q 607 42 607 -21 l 806 42 q 758 -144 806 -68 q 629 -260 710 -221 q 447 -300 549 -300 m 419 183 q 561 244 515 183 q 607 401 607 304 q 561 561 607 500 q 419 622 515 622 q 283 561 329 622 q 238 401 238 500 q 283 244 238 304 q 419 183 329 183 m 607 42 l 607 778 l 806 778 l 806 42 l 607 42 m 326 875 l 189 1069 l 367 1069 l 464 933 l 394 933 l 490 1069 l 668 1069 l 531 875 l 326 875 z "},"ĝ":{"ha":869,"x_min":35,"x_max":806,"o":"m 385 6 q 197 54 275 6 q 76 192 118 103 q 35 401 35 282 q 76 612 35 522 q 197 751 118 701 q 385 800 275 800 q 585 727 518 800 q 678 514 651 654 l 675 286 q 628 137 660 200 q 538 40 596 74 q 385 6 479 6 m 447 -300 q 246 -261 324 -300 q 127 -160 168 -222 q 75 -33 86 -99 l 279 -33 q 340 -105 294 -87 q 447 -122 386 -122 q 525 -107 489 -122 q 584 -56 561 -92 q 607 42 607 -21 l 806 42 q 758 -144 806 -68 q 629 -260 710 -221 q 447 -300 549 -300 m 419 183 q 561 244 515 183 q 607 401 607 304 q 561 561 607 500 q 419 622 515 622 q 283 561 329 622 q 238 401 238 500 q 283 244 238 304 q 419 183 329 183 m 607 42 l 607 778 l 806 778 l 806 42 l 607 42 m 531 1069 l 668 875 l 490 875 l 394 1011 l 464 1011 l 367 875 l 189 875 l 326 1069 l 531 1069 z "},"ģ":{"ha":869,"x_min":35,"x_max":806,"o":"m 385 6 q 197 54 275 6 q 76 192 118 103 q 35 401 35 282 q 76 612 35 522 q 197 751 118 701 q 385 800 275 800 q 585 727 518 800 q 678 514 651 654 l 675 286 q 628 137 660 200 q 538 40 596 74 q 385 6 479 6 m 447 -300 q 246 -261 324 -300 q 127 -160 168 -222 q 75 -33 86 -99 l 279 -33 q 340 -105 294 -87 q 447 -122 386 -122 q 525 -107 489 -122 q 584 -56 561 -92 q 607 42 607 -21 l 806 42 q 758 -144 806 -68 q 629 -260 710 -221 q 447 -300 549 -300 m 419 183 q 561 244 515 183 q 607 401 607 304 q 561 561 607 500 q 419 622 515 622 q 283 561 329 622 q 238 401 238 500 q 283 244 238 304 q 419 183 329 183 m 607 42 l 607 778 l 806 778 l 806 42 l 607 42 m 476 1174 l 476 1096 q 438 1081 449 1096 q 426 1040 426 1067 l 525 1040 l 525 853 l 332 853 l 332 1040 q 373 1140 332 1107 q 476 1174 414 1174 z "},"ġ":{"ha":869,"x_min":35,"x_max":806,"o":"m 385 6 q 197 54 275 6 q 76 192 118 103 q 35 401 35 282 q 76 612 35 522 q 197 751 118 701 q 385 800 275 800 q 585 727 518 800 q 678 514 651 654 l 675 286 q 628 137 660 200 q 538 40 596 74 q 385 6 479 6 m 447 -300 q 246 -261 324 -300 q 127 -160 168 -222 q 75 -33 86 -99 l 279 -33 q 340 -105 294 -87 q 447 -122 386 -122 q 525 -107 489 -122 q 584 -56 561 -92 q 607 42 607 -21 l 806 42 q 758 -144 806 -68 q 629 -260 710 -221 q 447 -300 549 -300 m 419 183 q 561 244 515 183 q 607 401 607 304 q 561 561 607 500 q 419 622 515 622 q 283 561 329 622 q 238 401 238 500 q 283 244 238 304 q 419 183 329 183 m 607 42 l 607 778 l 806 778 l 806 42 l 607 42 m 336 1042 l 522 1042 l 522 856 l 336 856 l 336 1042 z "},"ḡ":{"ha":869,"x_min":35,"x_max":806,"o":"m 385 6 q 197 54 275 6 q 76 192 118 103 q 35 401 35 282 q 76 612 35 522 q 197 751 118 701 q 385 800 275 800 q 585 727 518 800 q 678 514 651 654 l 675 286 q 628 137 660 200 q 538 40 596 74 q 385 6 479 6 m 447 -300 q 246 -261 324 -300 q 127 -160 168 -222 q 75 -33 86 -99 l 279 -33 q 340 -105 294 -87 q 447 -122 386 -122 q 525 -107 489 -122 q 584 -56 561 -92 q 607 42 607 -21 l 806 42 q 758 -144 806 -68 q 629 -260 710 -221 q 447 -300 549 -300 m 419 183 q 561 244 515 183 q 607 401 607 304 q 561 561 607 500 q 419 622 515 622 q 283 561 329 622 q 238 401 238 500 q 283 244 238 304 q 419 183 329 183 m 607 42 l 607 778 l 806 778 l 806 42 l 607 42 m 218 1050 l 642 1050 l 642 894 l 218 894 l 218 1050 z "},"h":{"ha":831,"x_min":67,"x_max":769,"o":"m 67 1042 l 265 1042 l 265 0 l 67 0 l 67 1042 m 265 381 l 243 540 q 253 621 243 576 q 292 706 264 665 q 374 774 321 747 q 511 800 426 800 q 644 769 586 800 q 736 669 703 739 q 769 479 769 599 l 769 0 l 571 0 l 571 461 q 564 545 571 507 q 533 606 557 583 q 456 628 508 628 q 369 604 414 628 q 295 527 325 581 q 265 381 265 474 z "},"ħ":{"ha":935,"x_min":60,"x_max":874,"o":"m 675 0 l 675 461 q 668 545 675 507 q 637 606 661 583 q 560 628 613 628 q 474 604 518 628 q 399 527 429 581 q 369 381 369 474 l 347 540 q 358 621 347 576 q 397 706 368 665 q 478 774 425 747 q 615 800 531 800 q 749 769 690 800 q 840 669 807 739 q 874 479 874 599 l 874 0 l 675 0 m 171 0 l 171 1042 l 369 1042 l 369 0 l 171 0 m 60 839 l 60 972 l 536 972 l 536 839 l 60 839 z "},"ĥ":{"ha":831,"x_min":67,"x_max":769,"o":"m 67 1042 l 265 1042 l 265 0 l 67 0 l 67 1042 m 265 381 l 243 540 q 253 621 243 576 q 292 706 264 665 q 374 774 321 747 q 511 800 426 800 q 644 769 586 800 q 736 669 703 739 q 769 479 769 599 l 769 0 l 571 0 l 571 461 q 564 545 571 507 q 533 606 557 583 q 456 628 508 628 q 369 604 414 628 q 295 527 325 581 q 265 381 265 474 m 513 1306 l 650 1111 l 472 1111 l 376 1247 l 446 1247 l 349 1111 l 171 1111 l 308 1306 l 513 1306 z "},"i":{"ha":346,"x_min":67,"x_max":279,"o":"m 74 778 l 272 778 l 272 0 l 74 0 l 74 778 m 67 1042 l 279 1042 l 279 829 l 67 829 l 67 1042 z "},"ı":{"ha":332,"x_min":67,"x_max":265,"o":"m 67 778 l 265 778 l 265 0 l 67 0 l 67 778 z "},"í":{"ha":332,"x_min":67,"x_max":397,"o":"m 67 778 l 265 778 l 265 0 l 67 0 l 67 778 m 397 1069 l 254 875 l 92 875 l 175 1069 l 397 1069 z "},"ĭ":{"ha":332,"x_min":-21,"x_max":354,"o":"m 67 778 l 265 778 l 265 0 l 67 0 l 67 778 m 354 1071 q 307 933 353 990 q 167 875 261 875 q 28 933 74 875 q -21 1071 -18 990 l 119 1071 q 128 1017 119 1040 q 167 993 136 993 q 207 1017 199 993 q 214 1071 215 1040 l 354 1071 z "},"î":{"ha":332,"x_min":-10,"x_max":342,"o":"m 67 778 l 265 778 l 265 0 l 67 0 l 67 778 m 213 1069 l 125 875 l -10 875 l 86 1069 l 213 1069 m 119 1069 l 246 1069 l 342 875 l 207 875 l 119 1069 z "},"ï":{"ha":332,"x_min":-39,"x_max":371,"o":"m 67 778 l 265 778 l 265 0 l 67 0 l 67 778 m -39 1056 l 142 1056 l 142 875 l -39 875 l -39 1056 m 190 1056 l 371 1056 l 371 875 l 190 875 l 190 1056 z "},"ì":{"ha":332,"x_min":-65,"x_max":265,"o":"m 67 778 l 265 778 l 265 0 l 67 0 l 67 778 m 78 875 l -65 1069 l 157 1069 l 240 875 l 78 875 z "},"ī":{"ha":332,"x_min":11,"x_max":324,"o":"m 67 778 l 265 778 l 265 0 l 67 0 l 67 778 m 11 1050 l 324 1050 l 324 894 l 11 894 l 11 1050 z "},"į":{"ha":332,"x_min":25,"x_max":300,"o":"m 67 778 l 265 778 l 265 0 l 67 0 l 67 778 m 74 1042 l 260 1042 l 260 856 l 74 856 l 74 1042 m 265 0 q 217 -15 236 -6 q 188 -35 197 -24 q 178 -62 178 -47 q 183 -82 178 -74 q 202 -95 189 -90 q 238 -100 215 -100 l 300 -100 l 300 -278 l 231 -278 q 83 -240 142 -278 q 25 -133 25 -201 q 71 -27 25 -69 q 201 49 117 15 l 265 0 z "},"ĩ":{"ha":332,"x_min":-57,"x_max":389,"o":"m 67 778 l 265 778 l 265 0 l 67 0 l 67 778 m 108 931 q 83 915 90 931 q 76 875 76 899 l -57 875 q -17 1022 -57 975 q 69 1068 22 1068 q 135 1051 111 1068 q 180 1017 160 1035 q 226 1000 200 1000 q 251 1016 246 1000 q 256 1056 256 1032 l 389 1056 q 349 907 389 954 q 264 860 310 860 q 199 877 224 860 q 156 913 175 894 q 108 931 136 931 z "},"ĳ":{"ha":690,"x_min":67,"x_max":624,"o":"m 74 778 l 272 778 l 272 0 l 74 0 l 74 778 m 67 1042 l 279 1042 l 279 829 l 67 829 l 67 1042 m 411 1042 l 624 1042 l 624 829 l 411 829 l 411 1042 m 617 778 l 617 -39 q 549 -218 617 -158 q 344 -278 481 -278 l 246 -278 l 246 -108 l 343 -108 q 399 -91 381 -108 q 418 -39 418 -74 l 418 778 l 617 778 z "},"j":{"ha":344,"x_min":-100,"x_max":278,"o":"m 65 1042 l 278 1042 l 278 829 l 65 829 l 65 1042 m 271 778 l 271 -39 q 203 -218 271 -158 q -1 -278 135 -278 l -100 -278 l -100 -108 l -3 -108 q 53 -91 35 -108 q 72 -39 72 -74 l 72 778 l 271 778 z "},"ȷ":{"ha":351,"x_min":-100,"x_max":271,"o":"m 271 778 l 271 -39 q 203 -218 271 -158 q -1 -278 135 -278 l -100 -278 l -100 -108 l -3 -108 q 53 -91 35 -108 q 72 -39 72 -74 l 72 778 l 271 778 z "},"ĵ":{"ha":351,"x_min":-100,"x_max":343,"o":"m 271 778 l 271 -39 q 203 -218 271 -158 q -1 -278 135 -278 l -100 -278 l -100 -108 l -3 -108 q 53 -91 35 -108 q 72 -39 72 -74 l 72 778 l 271 778 m 214 1069 l 126 875 l -8 875 l 88 1069 l 214 1069 m 121 1069 l 247 1069 l 343 875 l 208 875 l 121 1069 z "},"k":{"ha":772,"x_min":67,"x_max":742,"o":"m 67 1042 l 265 1042 l 265 0 l 67 0 l 67 1042 m 274 467 l 472 467 l 742 0 l 525 0 l 274 467 m 724 778 l 246 175 l 147 343 l 490 778 l 724 778 z "},"ķ":{"ha":772,"x_min":67,"x_max":742,"o":"m 67 1042 l 265 1042 l 265 0 l 67 0 l 67 1042 m 274 467 l 472 467 l 742 0 l 525 0 l 274 467 m 724 778 l 246 175 l 147 343 l 490 778 l 724 778 m 332 -379 l 332 -301 q 371 -287 360 -301 q 382 -246 382 -272 l 283 -246 l 283 -58 l 476 -58 l 476 -246 q 435 -346 476 -312 q 332 -379 394 -379 z "},"l":{"ha":332,"x_min":67,"x_max":265,"o":"m 67 1042 l 265 1042 l 265 0 l 67 0 l 67 1042 z "},"ĺ":{"ha":332,"x_min":67,"x_max":376,"o":"m 67 1042 l 265 1042 l 265 0 l 67 0 l 67 1042 m 376 1333 l 233 1139 l 71 1139 l 154 1333 l 376 1333 z "},"ľ":{"ha":332,"x_min":67,"x_max":536,"o":"m 67 1042 l 265 1042 l 265 0 l 67 0 l 67 1042 m 392 721 l 392 799 q 431 813 419 799 q 442 854 442 828 l 343 854 l 343 1042 l 536 1042 l 536 854 q 495 754 536 788 q 392 721 454 721 z "},"ļ":{"ha":332,"x_min":67,"x_max":265,"o":"m 67 1042 l 265 1042 l 265 0 l 67 0 l 67 1042 m 118 -379 l 118 -301 q 157 -287 146 -301 q 168 -246 168 -272 l 69 -246 l 69 -58 l 263 -58 l 263 -246 q 222 -346 263 -312 q 118 -379 181 -379 z "},"ł":{"ha":568,"x_min":60,"x_max":508,"o":"m 185 1042 l 383 1042 l 383 0 l 185 0 l 185 1042 m 60 549 l 508 715 l 508 549 l 60 382 l 60 549 z "},"m":{"ha":1249,"x_min":64,"x_max":1188,"o":"m 64 778 l 263 778 l 263 0 l 64 0 l 64 778 m 263 381 l 240 540 q 251 621 240 576 q 290 706 263 665 q 365 774 317 747 q 488 800 413 800 q 610 769 557 800 q 694 669 664 739 q 725 479 725 599 l 725 0 l 526 0 l 526 461 q 522 545 526 507 q 497 606 517 583 q 432 628 478 628 q 358 604 397 628 q 290 527 318 581 q 263 381 263 474 m 725 381 l 672 540 q 688 621 672 576 q 736 706 703 665 q 822 774 769 747 q 950 800 875 800 q 1073 769 1019 800 q 1157 669 1126 739 q 1188 479 1188 599 l 1188 0 l 989 0 l 989 461 q 984 545 989 507 q 960 606 979 583 q 894 628 940 628 q 820 604 860 628 q 753 527 781 581 q 725 381 725 474 z "},"n":{"ha":828,"x_min":64,"x_max":767,"o":"m 64 778 l 263 778 l 263 658 q 308 728 278 696 q 387 780 338 760 q 508 800 436 800 q 642 769 583 800 q 733 669 700 739 q 767 479 767 599 l 767 0 l 568 0 l 568 461 q 561 545 568 507 q 530 606 554 583 q 453 628 506 628 q 367 604 411 628 q 292 527 322 581 q 263 381 263 474 l 263 0 l 64 0 l 64 778 z "},"ń":{"ha":828,"x_min":64,"x_max":767,"o":"m 64 778 l 263 778 l 263 658 q 308 728 278 696 q 387 780 338 760 q 508 800 436 800 q 642 769 583 800 q 733 669 700 739 q 767 479 767 599 l 767 0 l 568 0 l 568 461 q 561 545 568 507 q 530 606 554 583 q 453 628 506 628 q 367 604 411 628 q 292 527 322 581 q 263 381 263 474 l 263 0 l 64 0 l 64 778 m 644 1069 l 501 875 l 339 875 l 422 1069 l 644 1069 z "},"ň":{"ha":828,"x_min":64,"x_max":767,"o":"m 64 778 l 263 778 l 263 658 q 308 728 278 696 q 387 780 338 760 q 508 800 436 800 q 642 769 583 800 q 733 669 700 739 q 767 479 767 599 l 767 0 l 568 0 l 568 461 q 561 545 568 507 q 530 606 554 583 q 453 628 506 628 q 367 604 411 628 q 292 527 322 581 q 263 381 263 474 l 263 0 l 64 0 l 64 778 m 311 875 l 174 1069 l 351 1069 l 449 933 l 379 933 l 475 1069 l 653 1069 l 515 875 l 311 875 z "},"ņ":{"ha":828,"x_min":64,"x_max":767,"o":"m 64 778 l 263 778 l 263 658 q 308 728 278 696 q 387 780 338 760 q 508 800 436 800 q 642 769 583 800 q 733 669 700 739 q 767 479 767 599 l 767 0 l 568 0 l 568 461 q 561 545 568 507 q 530 606 554 583 q 453 628 506 628 q 367 604 411 628 q 292 527 322 581 q 263 381 263 474 l 263 0 l 64 0 l 64 778 m 365 -379 l 365 -301 q 404 -287 393 -301 q 415 -246 415 -272 l 317 -246 l 317 -58 l 510 -58 l 510 -246 q 469 -346 510 -312 q 365 -379 428 -379 z "},"ñ":{"ha":828,"x_min":64,"x_max":767,"o":"m 64 778 l 263 778 l 263 658 q 308 728 278 696 q 387 780 338 760 q 508 800 436 800 q 642 769 583 800 q 733 669 700 739 q 767 479 767 599 l 767 0 l 568 0 l 568 461 q 561 545 568 507 q 530 606 554 583 q 453 628 506 628 q 367 604 411 628 q 292 527 322 581 q 263 381 263 474 l 263 0 l 64 0 l 64 778 m 343 929 q 315 918 325 929 q 306 883 306 907 l 161 883 q 185 999 161 957 q 244 1059 210 1042 q 307 1076 278 1076 q 382 1062 351 1076 q 437 1033 413 1047 q 486 1018 461 1018 q 512 1029 504 1018 q 519 1064 519 1040 l 665 1064 q 641 947 665 990 q 583 886 617 904 q 519 868 549 868 q 447 883 476 868 q 393 914 417 899 q 343 929 369 929 z "},"o":{"ha":864,"x_min":35,"x_max":829,"o":"m 432 -22 q 223 30 313 -22 q 84 175 133 82 q 35 388 35 268 q 84 601 35 508 q 223 747 133 694 q 433 800 313 800 q 642 747 553 800 q 780 601 731 694 q 829 388 829 508 q 780 175 829 268 q 642 30 731 82 q 432 -22 553 -22 m 433 156 q 542 187 500 156 q 606 271 585 218 q 626 388 626 324 q 606 506 626 453 q 542 591 585 560 q 433 622 500 622 q 322 591 365 622 q 258 506 279 560 q 238 388 238 453 q 258 271 238 324 q 322 187 279 218 q 433 156 365 156 z "},"ó":{"ha":864,"x_min":35,"x_max":829,"o":"m 432 -22 q 223 30 313 -22 q 84 175 133 82 q 35 388 35 268 q 84 601 35 508 q 223 747 133 694 q 433 800 313 800 q 642 747 553 800 q 780 601 731 694 q 829 388 829 508 q 780 175 829 268 q 642 30 731 82 q 432 -22 553 -22 m 433 156 q 542 187 500 156 q 606 271 585 218 q 626 388 626 324 q 606 506 626 453 q 542 591 585 560 q 433 622 500 622 q 322 591 365 622 q 258 506 279 560 q 238 388 238 453 q 258 271 238 324 q 322 187 279 218 q 433 156 365 156 m 663 1069 l 519 875 l 357 875 l 440 1069 l 663 1069 z "},"ŏ":{"ha":864,"x_min":35,"x_max":829,"o":"m 432 -22 q 223 30 313 -22 q 84 175 133 82 q 35 388 35 268 q 84 601 35 508 q 223 747 133 694 q 433 800 313 800 q 642 747 553 800 q 780 601 731 694 q 829 388 829 508 q 780 175 829 268 q 642 30 731 82 q 432 -22 553 -22 m 433 156 q 542 187 500 156 q 606 271 585 218 q 626 388 626 324 q 606 506 626 453 q 542 591 585 560 q 433 622 500 622 q 322 591 365 622 q 258 506 279 560 q 238 388 238 453 q 258 271 238 324 q 322 187 279 218 q 433 156 365 156 m 668 1069 q 592 916 658 971 q 432 861 526 861 q 272 916 339 861 q 196 1069 206 971 l 357 1069 q 432 1001 365 1001 q 484 1019 464 1001 q 507 1069 504 1036 l 668 1069 z "},"ô":{"ha":864,"x_min":35,"x_max":829,"o":"m 432 -22 q 223 30 313 -22 q 84 175 133 82 q 35 388 35 268 q 84 601 35 508 q 223 747 133 694 q 433 800 313 800 q 642 747 553 800 q 780 601 731 694 q 829 388 829 508 q 780 175 829 268 q 642 30 731 82 q 432 -22 553 -22 m 433 156 q 542 187 500 156 q 606 271 585 218 q 626 388 626 324 q 606 506 626 453 q 542 591 585 560 q 433 622 500 622 q 322 591 365 622 q 258 506 279 560 q 238 388 238 453 q 258 271 238 324 q 322 187 279 218 q 433 156 365 156 m 533 1069 l 671 875 l 493 875 l 397 1011 l 467 1011 l 369 875 l 192 875 l 329 1069 l 533 1069 z "},"ö":{"ha":864,"x_min":35,"x_max":829,"o":"m 432 -22 q 223 30 313 -22 q 84 175 133 82 q 35 388 35 268 q 84 601 35 508 q 223 747 133 694 q 433 800 313 800 q 642 747 553 800 q 780 601 731 694 q 829 388 829 508 q 780 175 829 268 q 642 30 731 82 q 432 -22 553 -22 m 433 156 q 542 187 500 156 q 606 271 585 218 q 626 388 626 324 q 606 506 626 453 q 542 591 585 560 q 433 622 500 622 q 322 591 365 622 q 258 506 279 560 q 238 388 238 453 q 258 271 238 324 q 322 187 279 218 q 433 156 365 156 m 185 1065 l 386 1065 l 386 879 l 185 879 l 185 1065 m 478 1065 l 679 1065 l 679 879 l 478 879 l 478 1065 z "},"ò":{"ha":864,"x_min":35,"x_max":829,"o":"m 432 -22 q 223 30 313 -22 q 84 175 133 82 q 35 388 35 268 q 84 601 35 508 q 223 747 133 694 q 433 800 313 800 q 642 747 553 800 q 780 601 731 694 q 829 388 829 508 q 780 175 829 268 q 642 30 731 82 q 432 -22 553 -22 m 433 156 q 542 187 500 156 q 606 271 585 218 q 626 388 626 324 q 606 506 626 453 q 542 591 585 560 q 433 622 500 622 q 322 591 365 622 q 258 506 279 560 q 238 388 238 453 q 258 271 238 324 q 322 187 279 218 q 433 156 365 156 m 343 875 l 200 1069 l 422 1069 l 506 875 l 343 875 z "},"ő":{"ha":864,"x_min":35,"x_max":829,"o":"m 432 -22 q 223 30 313 -22 q 84 175 133 82 q 35 388 35 268 q 84 601 35 508 q 223 747 133 694 q 433 800 313 800 q 642 747 553 800 q 780 601 731 694 q 829 388 829 508 q 780 175 829 268 q 642 30 731 82 q 432 -22 553 -22 m 433 156 q 542 187 500 156 q 606 271 585 218 q 626 388 626 324 q 606 506 626 453 q 542 591 585 560 q 433 622 500 622 q 322 591 365 622 q 258 506 279 560 q 238 388 238 453 q 258 271 238 324 q 322 187 279 218 q 433 156 365 156 m 486 1069 l 382 875 l 219 875 l 289 1069 l 486 1069 m 728 1069 l 624 875 l 461 875 l 531 1069 l 728 1069 z "},"ō":{"ha":864,"x_min":35,"x_max":829,"o":"m 432 -22 q 223 30 313 -22 q 84 175 133 82 q 35 388 35 268 q 84 601 35 508 q 223 747 133 694 q 433 800 313 800 q 642 747 553 800 q 780 601 731 694 q 829 388 829 508 q 780 175 829 268 q 642 30 731 82 q 432 -22 553 -22 m 433 156 q 542 187 500 156 q 606 271 585 218 q 626 388 626 324 q 606 506 626 453 q 542 591 585 560 q 433 622 500 622 q 322 591 365 622 q 258 506 279 560 q 238 388 238 453 q 258 271 238 324 q 322 187 279 218 q 433 156 365 156 m 221 1050 l 644 1050 l 644 894 l 221 894 l 221 1050 z "},"ø":{"ha":864,"x_min":35,"x_max":829,"o":"m 432 -22 q 223 30 313 -22 q 84 175 133 82 q 35 388 35 268 q 84 601 35 508 q 223 747 133 694 q 432 800 313 800 q 642 747 553 800 q 780 601 731 694 q 829 388 829 508 q 780 175 829 268 q 642 30 731 82 q 432 -22 553 -22 m 432 156 q 542 187 500 156 q 606 271 585 218 q 626 388 626 324 q 606 506 626 453 q 542 591 585 560 q 432 622 500 622 q 322 591 365 622 q 258 506 279 560 q 238 388 238 453 q 258 271 238 324 q 322 187 279 218 q 432 156 365 156 m 236 -24 l 118 60 l 642 800 l 760 717 l 236 -24 z "},"õ":{"ha":864,"x_min":35,"x_max":829,"o":"m 432 -22 q 223 30 313 -22 q 84 175 133 82 q 35 388 35 268 q 84 601 35 508 q 223 747 133 694 q 433 800 313 800 q 642 747 553 800 q 780 601 731 694 q 829 388 829 508 q 780 175 829 268 q 642 30 731 82 q 432 -22 553 -22 m 433 156 q 542 187 500 156 q 606 271 585 218 q 626 388 626 324 q 606 506 626 453 q 542 591 585 560 q 433 622 500 622 q 322 591 365 622 q 258 506 279 560 q 238 388 238 453 q 258 271 238 324 q 322 187 279 218 q 433 156 365 156 m 361 929 q 333 918 343 929 q 324 883 324 907 l 179 883 q 203 999 179 957 q 262 1059 228 1042 q 325 1076 296 1076 q 400 1062 369 1076 q 455 1033 431 1047 q 504 1018 479 1018 q 530 1029 522 1018 q 538 1064 538 1040 l 683 1064 q 659 947 683 990 q 601 886 635 904 q 538 868 567 868 q 465 883 494 868 q 411 914 435 899 q 361 929 388 929 z "},"œ":{"ha":1418,"x_min":35,"x_max":1394,"o":"m 1024 -22 q 822 30 904 -22 q 697 175 739 82 q 654 388 654 268 q 697 601 654 508 q 822 747 739 694 q 1024 800 904 800 q 1174 768 1103 800 q 1296 675 1244 736 q 1371 525 1347 614 q 1378 322 1394 436 l 739 322 l 739 483 l 1243 483 l 1179 446 q 1172 527 1186 486 q 1121 595 1157 568 q 1024 622 1085 622 q 910 591 953 622 q 848 506 867 560 q 829 388 829 453 q 848 271 829 324 q 910 187 867 218 q 1024 156 953 156 q 1118 182 1081 156 q 1171 247 1156 208 l 1381 247 q 1315 106 1364 167 q 1192 12 1267 46 q 1024 -22 1118 -22 m 432 -22 q 223 30 313 -22 q 84 175 133 82 q 35 388 35 268 q 84 601 35 508 q 223 747 133 694 q 432 800 313 800 q 635 747 553 800 q 759 601 717 694 q 801 388 801 508 q 759 175 801 268 q 635 30 717 82 q 432 -22 553 -22 m 432 156 q 542 187 500 156 q 606 271 585 218 q 626 388 626 324 q 606 506 626 453 q 542 591 585 560 q 432 622 500 622 q 322 591 365 622 q 258 506 279 560 q 238 388 238 453 q 258 271 238 324 q 322 187 279 218 q 432 156 365 156 z "},"p":{"ha":872,"x_min":67,"x_max":838,"o":"m 488 -22 q 353 6 407 -22 q 265 85 299 35 l 265 690 q 356 772 301 743 q 488 800 410 800 q 676 747 599 800 q 796 601 754 694 q 838 388 838 508 q 796 175 838 268 q 676 30 754 82 q 488 -22 599 -22 m 67 -278 l 67 778 l 265 778 l 265 -278 l 67 -278 m 453 156 q 554 187 514 156 q 615 271 594 218 q 635 388 635 324 q 615 506 635 453 q 554 591 594 560 q 453 622 514 622 q 347 591 389 622 q 285 506 306 560 q 265 388 265 453 q 285 271 265 324 q 347 187 306 218 q 453 156 389 156 z "},"þ":{"ha":872,"x_min":67,"x_max":838,"o":"m 488 -22 q 353 6 407 -22 q 265 85 299 35 l 265 690 q 356 772 301 743 q 488 800 410 800 q 676 747 599 800 q 796 601 754 694 q 838 388 838 508 q 796 175 838 268 q 676 30 754 82 q 488 -22 599 -22 m 67 -278 l 67 1042 l 265 1042 l 265 -278 l 67 -278 m 453 156 q 554 187 514 156 q 615 271 594 218 q 635 388 635 324 q 615 506 635 453 q 554 591 594 560 q 453 622 514 622 q 347 591 389 622 q 285 506 306 560 q 265 388 265 453 q 285 271 265 324 q 347 187 306 218 q 453 156 389 156 z "},"q":{"ha":872,"x_min":35,"x_max":806,"o":"m 385 -22 q 197 30 275 -22 q 76 175 118 82 q 35 388 35 268 q 76 601 35 508 q 197 747 118 694 q 385 800 275 800 q 532 764 474 800 q 625 661 590 728 q 678 500 660 594 l 675 272 q 628 119 660 186 q 538 15 596 53 q 385 -22 479 -22 m 419 156 q 525 187 483 156 q 587 271 567 218 q 607 388 607 324 q 587 506 607 453 q 525 591 567 560 q 419 622 483 622 q 319 591 360 622 q 258 506 278 560 q 238 388 238 453 q 258 271 238 324 q 319 187 278 218 q 419 156 360 156 m 607 -278 l 607 778 l 806 778 l 806 -278 l 607 -278 z "},"r":{"ha":536,"x_min":64,"x_max":508,"o":"m 64 778 l 263 778 l 263 0 l 64 0 l 64 778 m 263 381 l 242 524 q 249 607 242 560 q 281 698 256 654 q 361 771 307 742 q 508 800 415 800 l 508 606 q 372 588 426 606 q 290 522 317 569 q 263 381 263 474 z "},"ŕ":{"ha":536,"x_min":64,"x_max":508,"o":"m 64 778 l 263 778 l 263 0 l 64 0 l 64 778 m 263 381 l 242 524 q 249 607 242 560 q 281 698 256 654 q 361 771 307 742 q 508 800 415 800 l 508 606 q 372 588 426 606 q 290 522 317 569 q 263 381 263 474 m 499 1069 l 356 875 l 193 875 l 276 1069 l 499 1069 z "},"ř":{"ha":536,"x_min":28,"x_max":508,"o":"m 64 778 l 263 778 l 263 0 l 64 0 l 64 778 m 263 381 l 242 524 q 249 607 242 560 q 281 698 256 654 q 361 771 307 742 q 508 800 415 800 l 508 606 q 372 588 426 606 q 290 522 317 569 q 263 381 263 474 m 165 875 l 28 1069 l 206 1069 l 303 933 l 233 933 l 329 1069 l 507 1069 l 369 875 l 165 875 z "},"ŗ":{"ha":536,"x_min":64,"x_max":508,"o":"m 64 778 l 263 778 l 263 0 l 64 0 l 64 778 m 263 381 l 242 524 q 249 607 242 560 q 281 698 256 654 q 361 771 307 742 q 508 800 415 800 l 508 606 q 372 588 426 606 q 290 522 317 569 q 263 381 263 474 m 118 -379 l 118 -301 q 157 -287 146 -301 q 168 -246 168 -272 l 69 -246 l 69 -58 l 263 -58 l 263 -246 q 222 -346 263 -312 q 118 -379 181 -379 z "},"s":{"ha":733,"x_min":35,"x_max":699,"o":"m 235 246 q 283 169 242 190 q 379 147 325 147 q 467 166 432 147 q 501 228 501 185 q 476 270 501 256 q 411 294 451 285 q 322 311 371 303 q 224 333 274 319 q 135 372 175 347 q 69 440 94 397 q 44 550 44 483 q 85 670 44 613 q 200 764 126 728 q 368 800 274 800 q 525 766 453 800 q 642 672 597 732 q 686 533 686 613 l 488 533 q 447 610 482 589 q 363 631 411 631 q 272 608 303 631 q 242 550 242 585 q 267 503 242 519 q 332 476 292 486 q 422 459 372 467 q 519 438 471 451 q 608 401 568 425 q 674 335 649 376 q 699 228 699 293 q 658 98 699 154 q 544 10 617 42 q 372 -22 471 -22 q 205 13 281 -22 q 83 109 129 49 q 35 246 38 169 l 235 246 z "},"ś":{"ha":733,"x_min":35,"x_max":699,"o":"m 235 246 q 283 169 242 190 q 379 147 325 147 q 467 166 432 147 q 501 228 501 185 q 476 270 501 256 q 411 294 451 285 q 322 311 371 303 q 224 333 274 319 q 135 372 175 347 q 69 440 94 397 q 44 550 44 483 q 85 670 44 613 q 200 764 126 728 q 368 800 274 800 q 525 766 453 800 q 642 672 597 732 q 686 533 686 613 l 488 533 q 447 610 482 589 q 363 631 411 631 q 272 608 303 631 q 242 550 242 585 q 267 503 242 519 q 332 476 292 486 q 422 459 372 467 q 519 438 471 451 q 608 401 568 425 q 674 335 649 376 q 699 228 699 293 q 658 98 699 154 q 544 10 617 42 q 372 -22 471 -22 q 205 13 281 -22 q 83 109 129 49 q 35 246 38 169 l 235 246 m 597 1069 l 454 875 l 292 875 l 375 1069 l 597 1069 z "},"š":{"ha":733,"x_min":35,"x_max":699,"o":"m 235 246 q 283 169 242 190 q 379 147 325 147 q 467 166 432 147 q 501 228 501 185 q 476 270 501 256 q 411 294 451 285 q 322 311 371 303 q 224 333 274 319 q 135 372 175 347 q 69 440 94 397 q 44 550 44 483 q 85 670 44 613 q 200 764 126 728 q 368 800 274 800 q 525 766 453 800 q 642 672 597 732 q 686 533 686 613 l 488 533 q 447 610 482 589 q 363 631 411 631 q 272 608 303 631 q 242 550 242 585 q 267 503 242 519 q 332 476 292 486 q 422 459 372 467 q 519 438 471 451 q 608 401 568 425 q 674 335 649 376 q 699 228 699 293 q 658 98 699 154 q 544 10 617 42 q 372 -22 471 -22 q 205 13 281 -22 q 83 109 129 49 q 35 246 38 169 l 235 246 m 264 875 l 126 1069 l 304 1069 l 401 933 l 332 933 l 428 1069 l 606 1069 l 468 875 l 264 875 z "},"ş":{"ha":733,"x_min":35,"x_max":699,"o":"m 235 246 q 283 169 242 190 q 379 147 325 147 q 467 166 432 147 q 501 228 501 185 q 476 270 501 256 q 411 294 451 285 q 322 311 371 303 q 224 333 274 319 q 135 372 175 347 q 69 440 94 397 q 44 550 44 483 q 85 670 44 613 q 200 764 126 728 q 368 800 274 800 q 525 766 453 800 q 642 672 597 732 q 686 533 686 613 l 488 533 q 447 610 482 589 q 363 631 411 631 q 272 608 303 631 q 242 550 242 585 q 267 503 242 519 q 332 476 292 486 q 422 459 372 467 q 519 438 471 451 q 608 401 568 425 q 674 335 649 376 q 699 228 699 293 q 658 98 699 154 q 544 10 617 42 q 372 -22 471 -22 q 205 13 281 -22 q 83 109 129 49 q 35 246 38 169 l 235 246 m 329 56 l 458 56 l 458 -126 l 329 -126 l 329 56 m 396 -126 l 446 -35 q 572 -63 529 -35 q 615 -150 615 -92 q 573 -243 615 -208 q 449 -278 531 -278 l 290 -278 l 290 -174 l 396 -174 q 426 -167 419 -174 q 433 -150 433 -160 q 426 -133 433 -139 q 396 -126 419 -126 z "},"ŝ":{"ha":733,"x_min":35,"x_max":699,"o":"m 235 246 q 283 169 242 190 q 379 147 325 147 q 467 166 432 147 q 501 228 501 185 q 476 270 501 256 q 411 294 451 285 q 322 311 371 303 q 224 333 274 319 q 135 372 175 347 q 69 440 94 397 q 44 550 44 483 q 85 670 44 613 q 200 764 126 728 q 368 800 274 800 q 525 766 453 800 q 642 672 597 732 q 686 533 686 613 l 488 533 q 447 610 482 589 q 363 631 411 631 q 272 608 303 631 q 242 550 242 585 q 267 503 242 519 q 332 476 292 486 q 422 459 372 467 q 519 438 471 451 q 608 401 568 425 q 674 335 649 376 q 699 228 699 293 q 658 98 699 154 q 544 10 617 42 q 372 -22 471 -22 q 205 13 281 -22 q 83 109 129 49 q 35 246 38 169 l 235 246 m 468 1069 l 606 875 l 428 875 l 332 1011 l 401 1011 l 304 875 l 126 875 l 264 1069 l 468 1069 z "},"ș":{"ha":733,"x_min":35,"x_max":699,"o":"m 235 246 q 283 169 242 190 q 379 147 325 147 q 467 166 432 147 q 501 228 501 185 q 476 270 501 256 q 411 294 451 285 q 322 311 371 303 q 224 333 274 319 q 135 372 175 347 q 69 440 94 397 q 44 550 44 483 q 85 670 44 613 q 200 764 126 728 q 368 800 274 800 q 525 766 453 800 q 642 672 597 732 q 686 533 686 613 l 488 533 q 447 610 482 589 q 363 631 411 631 q 272 608 303 631 q 242 550 242 585 q 267 503 242 519 q 332 476 292 486 q 422 459 372 467 q 519 438 471 451 q 608 401 568 425 q 674 335 649 376 q 699 228 699 293 q 658 98 699 154 q 544 10 617 42 q 372 -22 471 -22 q 205 13 281 -22 q 83 109 129 49 q 35 246 38 169 l 235 246 m 318 -379 l 318 -301 q 357 -287 346 -301 q 368 -246 368 -272 l 269 -246 l 269 -58 l 463 -58 l 463 -246 q 422 -346 463 -312 q 318 -379 381 -379 z "},"ß":{"ha":924,"x_min":72,"x_max":875,"o":"m 72 0 l 72 692 q 110 865 72 786 q 228 993 147 944 q 443 1042 310 1042 q 634 1007 549 1042 q 770 900 719 972 q 821 715 821 828 q 803 612 821 665 q 736 528 785 558 q 809 476 778 510 q 858 399 840 442 q 875 307 875 356 q 824 128 875 196 q 685 30 772 60 q 493 0 599 0 l 394 0 l 394 169 l 493 169 q 560 177 528 169 q 617 201 592 185 q 658 244 643 218 q 672 307 672 271 q 647 383 672 356 q 580 422 621 411 q 493 433 539 433 l 394 433 l 394 603 l 439 603 q 506 607 474 603 q 563 623 538 611 q 603 657 589 635 q 618 715 618 679 q 570 831 618 789 q 443 872 522 872 q 357 856 390 872 q 305 812 324 839 q 278 753 286 785 q 271 692 271 721 l 271 0 l 72 0 z "},"t":{"ha":503,"x_min":29,"x_max":461,"o":"m 29 778 l 439 778 l 439 608 l 29 608 l 29 778 m 118 972 l 317 972 l 317 239 q 335 187 317 204 q 392 169 354 169 l 461 169 l 461 0 l 390 0 q 186 60 254 0 q 118 239 118 119 l 118 972 z "},"ť":{"ha":503,"x_min":29,"x_max":651,"o":"m 29 778 l 439 778 l 439 608 l 29 608 l 29 778 m 118 972 l 317 972 l 317 239 q 335 187 317 204 q 392 169 354 169 l 461 169 l 461 0 l 390 0 q 186 60 254 0 q 118 239 118 119 l 118 972 m 507 721 l 507 799 q 546 813 535 799 q 557 854 557 828 l 458 854 l 458 1042 l 651 1042 l 651 854 q 610 754 651 788 q 507 721 569 721 z "},"ţ":{"ha":503,"x_min":29,"x_max":528,"o":"m 29 778 l 439 778 l 439 608 l 29 608 l 29 778 m 118 972 l 317 972 l 317 239 q 335 187 317 204 q 392 169 354 169 l 461 169 l 461 0 l 390 0 q 186 60 254 0 q 118 239 118 119 l 118 972 m 242 56 l 371 56 l 371 -126 l 242 -126 l 242 56 m 308 -126 l 358 -35 q 485 -63 442 -35 q 528 -150 528 -92 q 485 -243 528 -208 q 361 -278 443 -278 l 203 -278 l 203 -174 l 308 -174 q 339 -167 332 -174 q 346 -150 346 -160 q 339 -133 346 -139 q 308 -126 332 -126 z "},"ț":{"ha":503,"x_min":29,"x_max":461,"o":"m 29 778 l 439 778 l 439 608 l 29 608 l 29 778 m 118 972 l 317 972 l 317 239 q 335 187 317 204 q 392 169 354 169 l 461 169 l 461 0 l 390 0 q 186 60 254 0 q 118 239 118 119 l 118 972 m 231 -379 l 231 -301 q 269 -287 258 -301 q 281 -246 281 -272 l 182 -246 l 182 -58 l 375 -58 l 375 -246 q 334 -346 375 -312 q 231 -379 293 -379 z "},"u":{"ha":828,"x_min":61,"x_max":764,"o":"m 764 0 l 565 0 l 565 778 l 764 778 l 764 0 m 565 397 l 588 238 q 577 157 588 201 q 538 72 567 113 q 457 4 510 31 q 319 -22 404 -22 q 186 8 244 -22 q 94 110 128 39 q 61 299 61 181 l 61 778 l 258 778 l 258 317 q 265 233 258 271 q 297 173 272 196 q 375 150 322 150 q 461 174 417 150 q 535 251 506 197 q 565 397 565 306 z "},"ú":{"ha":828,"x_min":61,"x_max":764,"o":"m 764 0 l 565 0 l 565 778 l 764 778 l 764 0 m 565 397 l 588 238 q 577 157 588 201 q 538 72 567 113 q 457 4 510 31 q 319 -22 404 -22 q 186 8 244 -22 q 94 110 128 39 q 61 299 61 181 l 61 778 l 258 778 l 258 317 q 265 233 258 271 q 297 173 272 196 q 375 150 322 150 q 461 174 417 150 q 535 251 506 197 q 565 397 565 306 m 644 1069 l 501 875 l 339 875 l 422 1069 l 644 1069 z "},"ŭ":{"ha":828,"x_min":61,"x_max":764,"o":"m 764 0 l 565 0 l 565 778 l 764 778 l 764 0 m 565 397 l 588 238 q 577 157 588 201 q 538 72 567 113 q 457 4 510 31 q 319 -22 404 -22 q 186 8 244 -22 q 94 110 128 39 q 61 299 61 181 l 61 778 l 258 778 l 258 317 q 265 233 258 271 q 297 173 272 196 q 375 150 322 150 q 461 174 417 150 q 535 251 506 197 q 565 397 565 306 m 650 1069 q 574 916 640 971 q 414 861 508 861 q 254 916 321 861 q 178 1069 188 971 l 339 1069 q 414 1001 347 1001 q 466 1019 446 1001 q 489 1069 486 1036 l 650 1069 z "},"û":{"ha":828,"x_min":61,"x_max":764,"o":"m 764 0 l 565 0 l 565 778 l 764 778 l 764 0 m 565 397 l 588 238 q 577 157 588 201 q 538 72 567 113 q 457 4 510 31 q 319 -22 404 -22 q 186 8 244 -22 q 94 110 128 39 q 61 299 61 181 l 61 778 l 258 778 l 258 317 q 265 233 258 271 q 297 173 272 196 q 375 150 322 150 q 461 174 417 150 q 535 251 506 197 q 565 397 565 306 m 515 1069 l 653 875 l 475 875 l 379 1011 l 449 1011 l 351 875 l 174 875 l 311 1069 l 515 1069 z "},"ü":{"ha":828,"x_min":61,"x_max":764,"o":"m 764 0 l 565 0 l 565 778 l 764 778 l 764 0 m 565 397 l 588 238 q 577 157 588 201 q 538 72 567 113 q 457 4 510 31 q 319 -22 404 -22 q 186 8 244 -22 q 94 110 128 39 q 61 299 61 181 l 61 778 l 258 778 l 258 317 q 265 233 258 271 q 297 173 272 196 q 375 150 322 150 q 461 174 417 150 q 535 251 506 197 q 565 397 565 306 m 167 1065 l 368 1065 l 368 879 l 167 879 l 167 1065 m 460 1065 l 661 1065 l 661 879 l 460 879 l 460 1065 z "},"ù":{"ha":828,"x_min":61,"x_max":764,"o":"m 764 0 l 565 0 l 565 778 l 764 778 l 764 0 m 565 397 l 588 238 q 577 157 588 201 q 538 72 567 113 q 457 4 510 31 q 319 -22 404 -22 q 186 8 244 -22 q 94 110 128 39 q 61 299 61 181 l 61 778 l 258 778 l 258 317 q 265 233 258 271 q 297 173 272 196 q 375 150 322 150 q 461 174 417 150 q 535 251 506 197 q 565 397 565 306 m 325 875 l 182 1069 l 404 1069 l 488 875 l 325 875 z "},"ű":{"ha":828,"x_min":61,"x_max":764,"o":"m 764 0 l 565 0 l 565 778 l 764 778 l 764 0 m 565 397 l 588 238 q 577 157 588 201 q 538 72 567 113 q 457 4 510 31 q 319 -22 404 -22 q 186 8 244 -22 q 94 110 128 39 q 61 299 61 181 l 61 778 l 258 778 l 258 317 q 265 233 258 271 q 297 173 272 196 q 375 150 322 150 q 461 174 417 150 q 535 251 506 197 q 565 397 565 306 m 468 1069 l 364 875 l 201 875 l 271 1069 l 468 1069 m 710 1069 l 606 875 l 443 875 l 513 1069 l 710 1069 z "},"ū":{"ha":828,"x_min":61,"x_max":764,"o":"m 764 0 l 565 0 l 565 778 l 764 778 l 764 0 m 565 397 l 588 238 q 577 157 588 201 q 538 72 567 113 q 457 4 510 31 q 319 -22 404 -22 q 186 8 244 -22 q 94 110 128 39 q 61 299 61 181 l 61 778 l 258 778 l 258 317 q 265 233 258 271 q 297 173 272 196 q 375 150 322 150 q 461 174 417 150 q 535 251 506 197 q 565 397 565 306 m 203 1050 l 626 1050 l 626 894 l 203 894 l 203 1050 z "},"ų":{"ha":828,"x_min":61,"x_max":799,"o":"m 764 0 l 565 0 l 565 778 l 764 778 l 764 0 m 565 397 l 588 238 q 577 157 588 201 q 538 72 567 113 q 457 4 510 31 q 319 -22 404 -22 q 186 8 244 -22 q 94 110 128 39 q 61 299 61 181 l 61 778 l 258 778 l 258 317 q 265 233 258 271 q 297 173 272 196 q 375 150 322 150 q 461 174 417 150 q 535 251 506 197 q 565 397 565 306 m 764 0 q 715 -15 735 -6 q 686 -35 696 -24 q 676 -62 676 -47 q 682 -82 676 -74 q 701 -95 688 -90 q 736 -100 714 -100 l 799 -100 l 799 -278 l 729 -278 q 582 -240 640 -278 q 524 -133 524 -201 q 569 -27 524 -69 q 700 49 615 15 l 764 0 z "},"ů":{"ha":828,"x_min":61,"x_max":764,"o":"m 764 0 l 565 0 l 565 778 l 764 778 l 764 0 m 565 397 l 588 238 q 577 157 588 201 q 538 72 567 113 q 457 4 510 31 q 319 -22 404 -22 q 186 8 244 -22 q 94 110 128 39 q 61 299 61 181 l 61 778 l 258 778 l 258 317 q 265 233 258 271 q 297 173 272 196 q 375 150 322 150 q 461 174 417 150 q 535 251 506 197 q 565 397 565 306 m 413 839 q 312 881 353 839 q 271 981 271 922 q 312 1081 271 1039 q 413 1122 353 1122 q 513 1081 471 1122 q 554 981 554 1039 q 513 881 554 922 q 413 839 471 839 m 414 946 q 439 956 429 946 q 449 981 449 967 q 439 1006 449 996 q 414 1015 429 1015 q 390 1006 400 1015 q 379 982 379 996 q 390 956 379 967 q 414 946 400 946 z "},"ũ":{"ha":828,"x_min":61,"x_max":764,"o":"m 764 0 l 565 0 l 565 778 l 764 778 l 764 0 m 565 397 l 588 238 q 577 157 588 201 q 538 72 567 113 q 457 4 510 31 q 319 -22 404 -22 q 186 8 244 -22 q 94 110 128 39 q 61 299 61 181 l 61 778 l 258 778 l 258 317 q 265 233 258 271 q 297 173 272 196 q 375 150 322 150 q 461 174 417 150 q 535 251 506 197 q 565 397 565 306 m 343 929 q 315 918 325 929 q 306 883 306 907 l 161 883 q 185 999 161 957 q 244 1059 210 1042 q 307 1076 278 1076 q 382 1062 351 1076 q 437 1033 413 1047 q 486 1018 461 1018 q 512 1029 504 1018 q 519 1064 519 1040 l 665 1064 q 641 947 665 990 q 583 886 617 904 q 519 868 549 868 q 447 883 476 868 q 393 914 417 899 q 343 929 369 929 z "},"v":{"ha":790,"x_min":25,"x_max":765,"o":"m 25 778 l 238 778 l 446 0 l 261 0 l 25 778 m 765 778 l 529 0 l 344 0 l 553 778 l 765 778 z "},"w":{"ha":1126,"x_min":25,"x_max":1101,"o":"m 25 778 l 238 778 l 376 0 l 206 0 l 25 778 m 640 778 l 474 0 l 289 0 l 456 778 l 640 778 m 486 778 l 671 778 l 838 0 l 653 0 l 486 778 m 1101 778 l 921 0 l 750 0 l 889 778 l 1101 778 z "},"ẃ":{"ha":1126,"x_min":25,"x_max":1101,"o":"m 25 778 l 238 778 l 376 0 l 206 0 l 25 778 m 640 778 l 474 0 l 289 0 l 456 778 l 640 778 m 486 778 l 671 778 l 838 0 l 653 0 l 486 778 m 1101 778 l 921 0 l 750 0 l 889 778 l 1101 778 m 794 1069 l 651 875 l 489 875 l 572 1069 l 794 1069 z "},"ŵ":{"ha":1126,"x_min":25,"x_max":1101,"o":"m 25 778 l 238 778 l 376 0 l 206 0 l 25 778 m 640 778 l 474 0 l 289 0 l 456 778 l 640 778 m 486 778 l 671 778 l 838 0 l 653 0 l 486 778 m 1101 778 l 921 0 l 750 0 l 889 778 l 1101 778 m 665 1069 l 803 875 l 625 875 l 529 1011 l 599 1011 l 501 875 l 324 875 l 461 1069 l 665 1069 z "},"ẅ":{"ha":1126,"x_min":25,"x_max":1101,"o":"m 25 778 l 238 778 l 376 0 l 206 0 l 25 778 m 640 778 l 474 0 l 289 0 l 456 778 l 640 778 m 486 778 l 671 778 l 838 0 l 653 0 l 486 778 m 1101 778 l 921 0 l 750 0 l 889 778 l 1101 778 m 317 1065 l 518 1065 l 518 879 l 317 879 l 317 1065 m 610 1065 l 811 1065 l 811 879 l 610 879 l 610 1065 z "},"ẁ":{"ha":1126,"x_min":25,"x_max":1101,"o":"m 25 778 l 238 778 l 376 0 l 206 0 l 25 778 m 640 778 l 474 0 l 289 0 l 456 778 l 640 778 m 486 778 l 671 778 l 838 0 l 653 0 l 486 778 m 1101 778 l 921 0 l 750 0 l 889 778 l 1101 778 m 475 875 l 332 1069 l 554 1069 l 638 875 l 475 875 z "},"x":{"ha":788,"x_min":28,"x_max":760,"o":"m 32 778 l 264 778 l 760 0 l 528 0 l 32 778 m 756 778 l 260 0 l 28 0 l 524 778 l 756 778 z "},"y":{"ha":790,"x_min":25,"x_max":765,"o":"m 121 -278 l 121 -108 l 206 -108 q 272 -94 249 -108 q 308 -54 294 -79 q 333 6 322 -29 l 553 778 l 765 778 l 529 0 q 483 -124 507 -72 q 425 -210 458 -176 q 339 -261 392 -244 q 206 -278 286 -278 l 121 -278 m 261 0 l 25 778 l 238 778 l 446 0 l 261 0 z "},"ý":{"ha":790,"x_min":25,"x_max":765,"o":"m 121 -278 l 121 -108 l 206 -108 q 272 -94 249 -108 q 308 -54 294 -79 q 333 6 322 -29 l 553 778 l 765 778 l 529 0 q 483 -124 507 -72 q 425 -210 458 -176 q 339 -261 392 -244 q 206 -278 286 -278 l 121 -278 m 261 0 l 25 778 l 238 778 l 446 0 l 261 0 m 626 1069 l 483 875 l 321 875 l 404 1069 l 626 1069 z "},"ŷ":{"ha":790,"x_min":25,"x_max":765,"o":"m 121 -278 l 121 -108 l 206 -108 q 272 -94 249 -108 q 308 -54 294 -79 q 333 6 322 -29 l 553 778 l 765 778 l 529 0 q 483 -124 507 -72 q 425 -210 458 -176 q 339 -261 392 -244 q 206 -278 286 -278 l 121 -278 m 261 0 l 25 778 l 238 778 l 446 0 l 261 0 m 497 1069 l 635 875 l 457 875 l 361 1011 l 431 1011 l 333 875 l 156 875 l 293 1069 l 497 1069 z "},"ÿ":{"ha":790,"x_min":25,"x_max":765,"o":"m 121 -278 l 121 -108 l 206 -108 q 272 -94 249 -108 q 308 -54 294 -79 q 333 6 322 -29 l 553 778 l 765 778 l 529 0 q 483 -124 507 -72 q 425 -210 458 -176 q 339 -261 392 -244 q 206 -278 286 -278 l 121 -278 m 261 0 l 25 778 l 238 778 l 446 0 l 261 0 m 149 1065 l 350 1065 l 350 879 l 149 879 l 149 1065 m 442 1065 l 643 1065 l 643 879 l 442 879 l 442 1065 z "},"ỳ":{"ha":790,"x_min":25,"x_max":765,"o":"m 121 -278 l 121 -108 l 206 -108 q 272 -94 249 -108 q 308 -54 294 -79 q 333 6 322 -29 l 553 778 l 765 778 l 529 0 q 483 -124 507 -72 q 425 -210 458 -176 q 339 -261 392 -244 q 206 -278 286 -278 l 121 -278 m 261 0 l 25 778 l 238 778 l 446 0 l 261 0 m 307 875 l 164 1069 l 386 1069 l 469 875 l 307 875 z "},"ỹ":{"ha":790,"x_min":25,"x_max":765,"o":"m 121 -278 l 121 -108 l 206 -108 q 272 -94 249 -108 q 308 -54 294 -79 q 333 6 322 -29 l 553 778 l 765 778 l 529 0 q 483 -124 507 -72 q 425 -210 458 -176 q 339 -261 392 -244 q 206 -278 286 -278 l 121 -278 m 261 0 l 25 778 l 238 778 l 446 0 l 261 0 m 325 929 q 297 918 307 929 q 288 883 288 907 l 143 883 q 167 999 143 957 q 226 1059 192 1042 q 289 1076 260 1076 q 364 1062 333 1076 q 419 1033 394 1047 q 468 1018 443 1018 q 494 1029 486 1018 q 501 1064 501 1040 l 647 1064 q 623 947 647 990 q 565 886 599 904 q 501 868 531 868 q 428 883 458 868 q 375 914 399 899 q 325 929 351 929 z "},"z":{"ha":686,"x_min":33,"x_max":653,"o":"m 44 778 l 649 778 l 649 644 l 561 608 l 44 608 l 44 778 m 164 0 l 33 133 l 518 778 l 649 778 l 649 644 l 164 0 m 653 0 l 33 0 l 33 133 l 119 169 l 653 169 l 653 0 z "},"ź":{"ha":686,"x_min":33,"x_max":653,"o":"m 44 778 l 649 778 l 649 644 l 561 608 l 44 608 l 44 778 m 164 0 l 33 133 l 518 778 l 649 778 l 649 644 l 164 0 m 653 0 l 33 0 l 33 133 l 119 169 l 653 169 l 653 0 m 574 1069 l 431 875 l 268 875 l 351 1069 l 574 1069 z "},"ž":{"ha":686,"x_min":33,"x_max":653,"o":"m 44 778 l 649 778 l 649 644 l 561 608 l 44 608 l 44 778 m 164 0 l 33 133 l 518 778 l 649 778 l 649 644 l 164 0 m 653 0 l 33 0 l 33 133 l 119 169 l 653 169 l 653 0 m 240 875 l 103 1069 l 281 1069 l 378 933 l 308 933 l 404 1069 l 582 1069 l 444 875 l 240 875 z "},"ż":{"ha":686,"x_min":33,"x_max":653,"o":"m 44 778 l 649 778 l 649 644 l 561 608 l 44 608 l 44 778 m 164 0 l 33 133 l 518 778 l 649 778 l 649 644 l 164 0 m 653 0 l 33 0 l 33 133 l 119 169 l 653 169 l 653 0 m 250 1042 l 436 1042 l 436 856 l 250 856 l 250 1042 z "},"ꞌ":{"ha":368,"x_min":69,"x_max":299,"o":"m 69 994 l 299 994 l 271 608 l 97 608 l 69 994 z "},"ª":{"ha":503,"x_min":42,"x_max":461,"o":"m 332 781 l 461 781 l 461 514 l 332 514 l 332 781 m 257 994 q 409 937 357 994 q 461 781 461 879 l 332 781 q 328 828 332 806 q 310 863 325 850 q 257 876 294 876 q 190 854 206 876 q 175 808 175 832 l 42 808 q 67 899 42 857 q 140 968 92 942 q 257 994 189 994 m 346 808 l 363 700 q 233 692 272 703 q 193 650 193 681 q 208 625 193 632 q 240 618 224 618 q 280 622 258 618 q 317 644 301 626 q 332 699 332 661 l 364 654 q 324 545 367 590 q 215 500 281 500 q 103 538 147 500 q 58 646 58 576 q 86 733 58 701 q 158 781 114 765 q 251 801 201 796 q 346 808 301 807 z "},"º":{"ha":560,"x_min":42,"x_max":518,"o":"m 281 500 q 107 569 172 500 q 42 746 42 638 q 107 925 42 856 q 281 994 172 994 q 406 963 353 994 q 488 875 458 931 q 518 746 518 819 q 453 569 518 638 q 281 500 388 500 m 281 624 q 357 661 336 624 q 378 746 378 699 q 357 833 378 794 q 281 871 336 871 q 204 833 225 871 q 183 746 183 794 q 204 661 183 699 q 281 624 225 624 z "},"⁄":{"ha":200,"x_min":-208,"x_max":471,"o":"m 333 972 l 471 972 l -71 0 l -208 0 l 333 972 z "},"½":{"ha":1025,"x_min":14,"x_max":1007,"o":"m 131 972 l 279 972 l 279 486 l 131 486 l 131 972 m 14 972 l 149 972 l 149 846 l 14 846 l 14 972 m 14 604 l 149 604 l 149 486 l 14 486 l 14 604 m 260 604 l 396 604 l 396 486 l 260 486 l 260 604 m 743 972 l 881 972 l 339 0 l 201 0 l 743 972 m 626 0 q 644 115 621 69 q 703 190 667 160 q 776 242 739 219 q 840 285 814 264 q 865 338 865 307 q 853 372 865 361 q 819 383 842 383 q 780 365 790 383 q 767 322 769 347 l 626 322 q 683 451 626 404 q 818 497 739 497 q 957 450 908 497 q 1006 338 1006 403 q 981 249 1006 283 q 922 192 957 215 q 851 144 886 168 q 796 88 817 121 q 781 0 775 54 l 626 0 m 683 111 l 1007 111 l 1007 0 l 626 0 l 683 111 z "},"¼":{"ha":1036,"x_min":14,"x_max":1014,"o":"m 131 972 l 279 972 l 279 486 l 131 486 l 131 972 m 14 972 l 149 972 l 149 846 l 14 846 l 14 972 m 14 604 l 149 604 l 149 486 l 14 486 l 14 604 m 260 604 l 396 604 l 396 486 l 260 486 l 260 604 m 743 972 l 881 972 l 339 0 l 201 0 l 743 972 m 835 486 l 963 486 l 963 0 l 835 0 l 835 486 m 629 215 l 1014 215 l 1014 99 l 629 99 l 629 215 m 814 486 l 940 486 l 685 99 l 619 99 l 619 214 l 814 486 z "},"¾":{"ha":1056,"x_min":21,"x_max":1033,"o":"m 150 781 q 243 797 222 781 q 264 831 264 813 q 251 858 264 847 q 217 868 239 868 q 180 858 197 868 q 156 818 163 847 l 21 818 q 47 904 21 867 q 118 963 74 942 q 214 983 163 983 q 347 941 297 983 q 397 840 397 899 q 385 782 397 808 q 340 740 372 756 q 243 719 307 724 l 243 750 q 367 710 333 746 q 400 619 400 674 q 355 517 400 560 q 219 475 310 475 q 115 496 160 475 q 46 554 71 517 q 21 640 21 592 l 156 640 q 172 602 158 614 q 213 590 186 590 q 248 601 236 590 q 260 629 260 613 q 238 665 260 650 q 150 679 217 679 l 150 781 m 763 972 l 900 972 l 358 0 l 221 0 l 763 972 m 854 486 l 982 486 l 982 0 l 854 0 l 854 486 m 649 215 l 1033 215 l 1033 99 l 649 99 l 649 215 m 833 486 l 960 486 l 704 99 l 639 99 l 639 214 l 833 486 z "},"⅛":{"ha":1058,"x_min":14,"x_max":1019,"o":"m 131 972 l 279 972 l 279 486 l 131 486 l 131 972 m 14 972 l 149 972 l 149 846 l 14 846 l 14 972 m 14 604 l 149 604 l 149 486 l 14 486 l 14 604 m 260 604 l 396 604 l 396 486 l 260 486 l 260 604 m 743 972 l 881 972 l 339 0 l 201 0 l 743 972 m 833 -11 q 697 31 746 -11 q 649 132 649 74 q 667 199 649 168 q 726 244 685 231 q 670 289 688 260 q 653 354 653 318 q 703 455 653 413 q 833 497 753 497 q 965 455 915 497 q 1015 354 1015 413 q 998 289 1015 318 q 940 244 981 260 q 1001 199 983 231 q 1019 132 1019 168 q 971 31 1019 74 q 833 -11 922 -11 m 833 107 q 871 120 858 107 q 883 153 883 133 q 871 186 883 174 q 833 199 858 199 q 796 186 808 199 q 783 153 783 174 q 796 120 783 133 q 833 107 808 107 m 833 297 q 869 309 857 297 q 881 340 881 321 q 869 370 881 358 q 833 382 857 382 q 799 371 811 382 q 786 340 786 360 q 798 310 786 322 q 833 297 810 297 z "},"⅜":{"ha":1078,"x_min":21,"x_max":1039,"o":"m 150 781 q 243 797 222 781 q 264 831 264 813 q 251 858 264 847 q 217 868 239 868 q 180 858 197 868 q 156 818 163 847 l 21 818 q 47 904 21 867 q 118 963 74 942 q 214 983 163 983 q 347 941 297 983 q 397 840 397 899 q 385 782 397 808 q 340 740 372 756 q 243 719 307 724 l 243 750 q 367 710 333 746 q 400 619 400 674 q 355 517 400 560 q 219 475 310 475 q 115 496 160 475 q 46 554 71 517 q 21 640 21 592 l 156 640 q 172 602 158 614 q 213 590 186 590 q 248 601 236 590 q 260 629 260 613 q 238 665 260 650 q 150 679 217 679 l 150 781 m 763 972 l 900 972 l 358 0 l 221 0 l 763 972 m 853 -11 q 717 31 765 -11 q 668 132 668 74 q 686 199 668 168 q 746 244 704 231 q 690 289 707 260 q 672 354 672 318 q 722 455 672 413 q 853 497 772 497 q 985 455 935 497 q 1035 354 1035 413 q 1017 289 1035 318 q 960 244 1000 260 q 1021 199 1003 231 q 1039 132 1039 168 q 990 31 1039 74 q 853 -11 942 -11 m 853 107 q 890 120 878 107 q 903 153 903 133 q 890 186 903 174 q 853 199 878 199 q 815 186 828 199 q 803 153 803 174 q 815 120 803 133 q 853 107 828 107 m 853 297 q 888 309 876 297 q 900 340 900 321 q 888 370 900 358 q 853 382 876 382 q 818 371 831 382 q 806 340 806 360 q 817 310 806 322 q 853 297 829 297 z "},"⅝":{"ha":1069,"x_min":21,"x_max":1031,"o":"m 254 813 q 371 768 329 813 q 413 649 413 724 q 365 524 413 574 q 224 475 318 475 q 123 496 168 475 q 51 554 78 517 q 25 640 25 592 l 165 640 q 183 609 168 622 q 224 596 197 596 q 264 612 251 596 q 276 647 276 628 q 264 684 276 668 q 219 700 251 700 q 184 696 201 700 q 151 685 167 692 l 71 685 q 98 735 76 706 q 158 789 119 765 q 254 813 197 813 m 21 685 l 72 972 l 203 972 l 149 685 l 21 685 m 108 972 l 374 972 l 374 861 l 108 861 l 108 972 m 754 972 l 892 972 l 350 0 l 213 0 l 754 972 m 844 -11 q 708 31 757 -11 q 660 132 660 74 q 678 199 660 168 q 738 244 696 231 q 681 289 699 260 q 664 354 664 318 q 714 455 664 413 q 844 497 764 497 q 976 455 926 497 q 1026 354 1026 413 q 1009 289 1026 318 q 951 244 992 260 q 1013 199 994 231 q 1031 132 1031 168 q 982 31 1031 74 q 844 -11 933 -11 m 844 107 q 882 120 869 107 q 894 153 894 133 q 882 186 894 174 q 844 199 869 199 q 807 186 819 199 q 794 153 794 174 q 807 120 794 133 q 844 107 819 107 m 844 297 q 880 309 868 297 q 892 340 892 321 q 880 370 892 358 q 844 382 868 382 q 810 371 822 382 q 797 340 797 360 q 809 310 797 322 q 844 297 821 297 z "},"⅞":{"ha":972,"x_min":14,"x_max":933,"o":"m 90 486 q 127 772 90 644 q 244 972 164 900 l 357 972 l 357 879 q 290 791 317 840 q 252 669 264 742 q 240 486 240 596 l 90 486 m 14 972 l 324 972 l 324 846 l 14 846 l 14 972 m 657 972 l 794 972 l 253 0 l 115 0 l 657 972 m 747 -11 q 611 31 660 -11 q 563 132 563 74 q 581 199 563 168 q 640 244 599 231 q 584 289 601 260 q 567 354 567 318 q 617 455 567 413 q 747 497 667 497 q 879 455 829 497 q 929 354 929 413 q 912 289 929 318 q 854 244 894 260 q 915 199 897 231 q 933 132 933 168 q 885 31 933 74 q 747 -11 836 -11 m 747 107 q 785 120 772 107 q 797 153 797 133 q 785 186 797 174 q 747 199 772 199 q 710 186 722 199 q 697 153 697 174 q 710 120 697 133 q 747 107 722 107 m 747 297 q 783 309 771 297 q 794 340 794 321 q 783 370 794 358 q 747 382 771 382 q 713 371 725 382 q 700 340 700 360 q 712 310 700 322 q 747 297 724 297 z "},"₀":{"ha":488,"x_min":39,"x_max":449,"o":"m 244 -11 q 129 23 175 -11 q 61 115 83 57 q 39 243 39 174 q 61 372 39 314 q 129 463 83 429 q 244 497 175 497 q 360 463 315 497 q 427 370 406 428 q 449 243 449 313 q 427 116 449 174 q 360 24 406 58 q 244 -11 315 -11 m 244 113 q 278 128 267 113 q 295 174 290 144 q 300 243 300 204 q 295 313 300 283 q 278 358 290 342 q 244 374 267 374 q 200 339 211 374 q 189 243 189 304 q 200 148 189 183 q 244 113 211 113 z "},"₁":{"ha":410,"x_min":14,"x_max":396,"o":"m 131 486 l 279 486 l 279 0 l 131 0 l 131 486 m 14 486 l 149 486 l 149 360 l 14 360 l 14 486 m 14 118 l 149 118 l 149 0 l 14 0 l 14 118 m 260 118 l 396 118 l 396 0 l 260 0 l 260 118 z "},"₂":{"ha":415,"x_min":11,"x_max":397,"o":"m 17 0 q 34 115 11 69 q 93 190 57 160 q 167 242 129 219 q 230 285 204 264 q 256 338 256 307 q 244 372 256 361 q 210 383 232 383 q 170 365 181 383 q 157 322 160 347 l 17 322 q 73 451 17 404 q 208 497 129 497 q 347 450 299 497 q 396 338 396 403 q 372 249 396 283 q 312 192 347 215 q 242 144 276 168 q 186 88 207 121 q 171 0 165 54 l 17 0 m 74 111 l 397 111 l 397 0 l 17 0 l 74 111 z "},"₃":{"ha":439,"x_min":21,"x_max":400,"o":"m 150 294 q 243 310 222 294 q 264 344 264 326 q 251 372 264 361 q 217 382 239 382 q 180 372 197 382 q 156 332 163 361 l 21 332 q 47 418 21 381 q 118 476 74 456 q 214 497 163 497 q 347 455 297 497 q 397 354 397 413 q 385 296 397 322 q 340 253 372 269 q 243 233 307 238 l 243 264 q 367 224 333 260 q 400 133 400 188 q 355 31 400 74 q 219 -11 310 -11 q 115 10 160 -11 q 46 68 71 31 q 21 154 21 106 l 156 154 q 172 116 158 128 q 213 104 186 104 q 248 115 236 104 q 260 143 260 126 q 238 178 260 164 q 150 193 217 193 l 150 294 z "},"₄":{"ha":426,"x_min":10,"x_max":404,"o":"m 225 486 l 353 486 l 353 0 l 225 0 l 225 486 m 19 215 l 404 215 l 404 99 l 19 99 l 19 215 m 204 486 l 331 486 l 75 99 l 10 99 l 10 214 l 204 486 z "},"₅":{"ha":421,"x_min":21,"x_max":413,"o":"m 254 326 q 371 282 329 326 q 413 163 413 238 q 365 38 413 88 q 224 -11 318 -11 q 123 10 168 -11 q 51 68 78 31 q 25 154 25 106 l 165 154 q 183 123 168 136 q 224 110 197 110 q 264 126 251 110 q 276 161 276 142 q 264 198 276 182 q 219 214 251 214 q 184 210 201 214 q 151 199 167 206 l 71 199 q 98 249 76 219 q 158 303 119 279 q 254 326 197 326 m 21 199 l 72 486 l 203 486 l 149 199 l 21 199 m 108 486 l 374 486 l 374 375 l 108 375 l 108 486 z "},"₆":{"ha":450,"x_min":29,"x_max":411,"o":"m 268 349 q 257 374 267 364 q 226 385 247 385 q 178 356 200 385 q 161 274 157 328 l 118 274 q 171 313 140 300 q 239 326 201 326 q 367 280 324 326 q 411 163 411 233 q 365 38 411 88 q 228 -11 318 -11 q 129 11 175 -11 q 56 86 83 33 q 29 229 29 139 q 83 427 29 357 q 231 497 138 497 q 351 457 307 497 q 408 349 396 417 l 268 349 m 176 160 q 190 122 176 136 q 228 107 204 107 q 265 122 251 107 q 279 158 279 136 q 265 196 279 182 q 228 210 251 210 q 190 197 204 210 q 176 160 176 183 z "},"₇":{"ha":372,"x_min":14,"x_max":357,"o":"m 90 0 q 127 286 90 158 q 244 486 164 414 l 357 486 l 357 393 q 290 305 317 354 q 252 183 264 256 q 240 0 240 110 l 90 0 m 14 486 l 324 486 l 324 360 l 14 360 l 14 486 z "},"₈":{"ha":449,"x_min":39,"x_max":410,"o":"m 224 -11 q 88 31 136 -11 q 39 132 39 74 q 57 199 39 168 q 117 244 75 231 q 60 289 78 260 q 43 354 43 318 q 93 455 43 413 q 224 497 143 497 q 356 455 306 497 q 406 354 406 413 q 388 289 406 318 q 331 244 371 260 q 392 199 374 231 q 410 132 410 168 q 361 31 410 74 q 224 -11 313 -11 m 224 107 q 261 120 249 107 q 274 153 274 133 q 261 186 274 174 q 224 199 249 199 q 186 186 199 199 q 174 153 174 174 q 186 120 174 133 q 224 107 199 107 m 224 297 q 259 309 247 297 q 271 340 271 321 q 259 370 271 358 q 224 382 247 382 q 189 371 201 382 q 176 340 176 360 q 188 310 176 322 q 224 297 200 297 z "},"₉":{"ha":440,"x_min":19,"x_max":401,"o":"m 163 138 q 174 115 165 125 q 203 104 182 104 q 249 131 231 104 q 269 214 268 158 l 313 213 q 260 173 290 186 q 192 160 229 160 q 63 206 107 160 q 19 324 19 253 q 66 448 19 399 q 203 497 113 497 q 302 475 257 497 q 374 401 347 453 q 401 257 401 349 q 348 59 401 129 q 200 -11 294 -11 q 79 30 124 -11 q 22 138 35 71 l 163 138 m 256 326 q 242 367 256 351 q 204 382 228 382 q 165 367 179 382 q 150 328 150 351 q 165 288 150 303 q 204 274 179 274 q 242 288 228 274 q 256 326 256 301 z "},"⁰":{"ha":488,"x_min":39,"x_max":449,"o":"m 244 475 q 129 509 175 475 q 61 601 83 543 q 39 729 39 660 q 61 858 39 800 q 129 949 83 915 q 244 983 175 983 q 360 949 315 983 q 427 856 406 914 q 449 729 449 799 q 427 602 449 660 q 360 510 406 544 q 244 475 315 475 m 244 599 q 278 615 267 599 q 295 660 290 631 q 300 729 300 690 q 295 799 300 769 q 278 844 290 828 q 244 860 267 860 q 200 825 211 860 q 189 729 189 790 q 200 634 189 669 q 244 599 211 599 z "},"¹":{"ha":410,"x_min":14,"x_max":396,"o":"m 131 972 l 279 972 l 279 486 l 131 486 l 131 972 m 14 972 l 149 972 l 149 846 l 14 846 l 14 972 m 14 604 l 149 604 l 149 486 l 14 486 l 14 604 m 260 604 l 396 604 l 396 486 l 260 486 l 260 604 z "},"²":{"ha":415,"x_min":11,"x_max":397,"o":"m 17 486 q 34 601 11 556 q 93 676 57 646 q 167 728 129 706 q 230 772 204 750 q 256 824 256 793 q 244 858 256 847 q 210 869 232 869 q 170 851 181 869 q 157 808 160 833 l 17 808 q 73 937 17 890 q 208 983 129 983 q 347 936 299 983 q 396 824 396 889 q 372 735 396 769 q 312 678 347 701 q 242 631 276 654 q 186 574 207 607 q 171 486 165 540 l 17 486 m 74 597 l 397 597 l 397 486 l 17 486 l 74 597 z "},"³":{"ha":439,"x_min":21,"x_max":400,"o":"m 150 781 q 243 797 222 781 q 264 831 264 813 q 251 858 264 847 q 217 868 239 868 q 180 858 197 868 q 156 818 163 847 l 21 818 q 47 904 21 867 q 118 963 74 942 q 214 983 163 983 q 347 941 297 983 q 397 840 397 899 q 385 782 397 808 q 340 740 372 756 q 243 719 307 724 l 243 750 q 367 710 333 746 q 400 619 400 674 q 355 517 400 560 q 219 475 310 475 q 115 496 160 475 q 46 554 71 517 q 21 640 21 592 l 156 640 q 172 602 158 614 q 213 590 186 590 q 248 601 236 590 q 260 629 260 613 q 238 665 260 650 q 150 679 217 679 l 150 781 z "},"⁴":{"ha":426,"x_min":10,"x_max":404,"o":"m 225 972 l 353 972 l 353 486 l 225 486 l 225 972 m 19 701 l 404 701 l 404 585 l 19 585 l 19 701 m 204 972 l 331 972 l 75 585 l 10 585 l 10 700 l 204 972 z "},"⁵":{"ha":421,"x_min":21,"x_max":413,"o":"m 254 813 q 371 768 329 813 q 413 649 413 724 q 365 524 413 574 q 224 475 318 475 q 123 496 168 475 q 51 554 78 517 q 25 640 25 592 l 165 640 q 183 609 168 622 q 224 596 197 596 q 264 612 251 596 q 276 647 276 628 q 264 684 276 668 q 219 700 251 700 q 184 696 201 700 q 151 685 167 692 l 71 685 q 98 735 76 706 q 158 789 119 765 q 254 813 197 813 m 21 685 l 72 972 l 203 972 l 149 685 l 21 685 m 108 972 l 374 972 l 374 861 l 108 861 l 108 972 z "},"⁶":{"ha":450,"x_min":29,"x_max":411,"o":"m 268 835 q 257 860 267 850 q 226 871 247 871 q 178 842 200 871 q 161 760 157 814 l 118 760 q 171 799 140 786 q 239 813 201 813 q 367 766 324 813 q 411 649 411 719 q 365 524 411 574 q 228 475 318 475 q 129 497 175 475 q 56 572 83 519 q 29 715 29 625 q 83 913 29 843 q 231 983 138 983 q 351 943 307 983 q 408 835 396 903 l 268 835 m 176 646 q 190 608 176 622 q 228 593 204 593 q 265 608 251 593 q 279 644 279 622 q 265 682 279 668 q 228 696 251 696 q 190 683 204 696 q 176 646 176 669 z "},"⁷":{"ha":372,"x_min":14,"x_max":357,"o":"m 90 486 q 127 772 90 644 q 244 972 164 900 l 357 972 l 357 879 q 290 791 317 840 q 252 669 264 742 q 240 486 240 596 l 90 486 m 14 972 l 324 972 l 324 846 l 14 846 l 14 972 z "},"⁸":{"ha":449,"x_min":39,"x_max":410,"o":"m 224 475 q 88 517 136 475 q 39 618 39 560 q 57 685 39 654 q 117 731 75 717 q 60 775 78 746 q 43 840 43 804 q 93 941 43 899 q 224 983 143 983 q 356 941 306 983 q 406 840 406 899 q 388 775 406 804 q 331 731 371 746 q 392 685 374 717 q 410 618 410 654 q 361 517 410 560 q 224 475 313 475 m 224 593 q 261 606 249 593 q 274 639 274 619 q 261 672 274 660 q 224 685 249 685 q 186 672 199 685 q 174 639 174 660 q 186 606 174 619 q 224 593 199 593 m 224 783 q 259 795 247 783 q 271 826 271 807 q 259 856 271 844 q 224 868 247 868 q 189 857 201 868 q 176 826 176 846 q 188 796 176 808 q 224 783 200 783 z "},"⁹":{"ha":440,"x_min":19,"x_max":401,"o":"m 163 624 q 174 601 165 611 q 203 590 182 590 q 249 617 231 590 q 269 700 268 644 l 313 699 q 260 659 290 672 q 192 646 229 646 q 63 692 107 646 q 19 810 19 739 q 66 934 19 885 q 203 983 113 983 q 302 961 257 983 q 374 887 347 939 q 401 743 401 835 q 348 545 401 615 q 200 475 294 475 q 79 516 124 475 q 22 624 35 557 l 163 624 m 256 813 q 242 853 256 838 q 204 868 228 868 q 165 853 179 868 q 150 814 150 838 q 165 774 150 789 q 204 760 179 760 q 242 774 228 760 q 256 813 256 788 z "}," ":{"ha":278,"x_min":0,"x_max":0,"o":""}," ":{"ha":278,"x_min":0,"x_max":0,"o":""}," ":{"ha":833,"x_min":0,"x_max":0,"o":""}," ":{"ha":833,"x_min":0,"x_max":0,"o":""},"-":{"ha":550,"x_min":57,"x_max":494,"o":"m 57 529 l 494 529 l 494 360 l 57 360 l 57 529 z "},"–":{"ha":793,"x_min":57,"x_max":738,"o":"m 57 529 l 738 529 l 738 360 l 57 360 l 57 529 z "},"—":{"ha":999,"x_min":57,"x_max":943,"o":"m 57 529 l 943 529 l 943 360 l 57 360 l 57 529 z "},"_":{"ha":793,"x_min":57,"x_max":738,"o":"m 57 -42 l 738 -42 l 738 -211 l 57 -211 l 57 -42 z "},"(":{"ha":367,"x_min":39,"x_max":339,"o":"m 211 994 l 339 994 q 269 794 297 892 q 228 596 242 697 q 214 378 214 494 q 228 160 214 261 q 269 -39 242 58 q 339 -239 297 -136 l 211 -239 q 124 -58 163 -150 q 62 141 85 35 q 39 378 39 247 q 62 615 39 508 q 124 813 85 721 q 211 994 163 906 z "},")":{"ha":367,"x_min":28,"x_max":328,"o":"m 156 994 q 243 813 204 906 q 305 615 282 721 q 328 378 328 508 q 305 141 328 247 q 243 -58 282 35 q 156 -239 204 -150 l 28 -239 q 97 -39 69 -136 q 139 160 125 58 q 153 378 153 261 q 139 596 153 494 q 97 794 125 697 q 28 994 69 892 l 156 994 z "},"{":{"ha":483,"x_min":21,"x_max":456,"o":"m 418 -239 q 242 -197 304 -239 q 157 -83 181 -154 q 133 78 133 -11 q 109 235 133 168 q 21 313 85 303 l 21 443 q 109 521 85 454 q 133 678 133 588 q 157 838 133 767 q 242 952 181 910 q 418 994 304 994 l 456 994 l 456 883 l 418 883 q 340 857 365 883 q 308 777 315 831 q 301 640 301 724 q 264 448 301 510 q 157 378 226 386 q 264 308 226 369 q 301 115 301 246 q 308 -21 301 33 q 340 -101 315 -75 q 418 -128 365 -128 l 456 -128 l 456 -239 l 418 -239 z "},"}":{"ha":483,"x_min":28,"x_max":463,"o":"m 28 -239 l 28 -128 l 65 -128 q 144 -101 119 -128 q 175 -21 168 -75 q 182 115 182 33 q 219 308 182 246 q 326 378 257 369 q 219 448 257 386 q 182 640 182 510 q 175 777 182 724 q 144 857 168 831 q 65 883 119 883 l 28 883 l 28 994 l 65 994 q 242 952 181 994 q 326 838 303 910 q 350 678 350 767 q 374 521 350 588 q 463 443 399 454 l 463 313 q 374 235 399 303 q 350 78 350 168 q 326 -83 350 -11 q 242 -197 303 -154 q 65 -239 181 -239 l 28 -239 z "},"[":{"ha":501,"x_min":72,"x_max":474,"o":"m 72 972 l 247 972 l 247 -217 l 72 -217 l 72 972 m 247 972 l 474 972 l 474 861 l 247 861 l 247 972 m 247 -106 l 474 -106 l 474 -217 l 247 -217 l 247 -106 z "},"]":{"ha":501,"x_min":28,"x_max":429,"o":"m 429 972 l 429 -217 l 254 -217 l 254 972 l 429 972 m 254 972 l 254 861 l 28 861 l 28 972 l 254 972 m 254 -106 l 254 -217 l 28 -217 l 28 -106 l 254 -106 z "},"‚":{"ha":296,"x_min":42,"x_max":254,"o":"m 42 213 l 254 213 l 254 0 q 210 -119 254 -79 q 90 -158 165 -158 l 90 -67 q 138 -49 125 -67 q 150 0 150 -31 l 42 0 l 42 213 z "},"„":{"ha":564,"x_min":42,"x_max":522,"o":"m 310 213 l 522 213 l 522 0 q 478 -119 522 -79 q 358 -158 433 -158 l 358 -67 q 406 -49 393 -67 q 418 0 418 -31 l 310 0 l 310 213 m 42 213 l 254 213 l 254 0 q 210 -119 254 -79 q 90 -158 165 -158 l 90 -67 q 138 -49 125 -67 q 150 0 150 -31 l 42 0 l 42 213 z "},"“":{"ha":564,"x_min":42,"x_max":522,"o":"m 254 693 l 42 693 l 42 906 q 86 1024 42 985 q 206 1064 131 1064 l 206 972 q 158 955 171 972 q 146 906 146 938 l 254 906 l 254 693 m 522 693 l 310 693 l 310 906 q 354 1024 310 985 q 474 1064 399 1064 l 474 972 q 426 955 439 972 q 414 906 414 938 l 522 906 l 522 693 z "},"”":{"ha":564,"x_min":42,"x_max":522,"o":"m 310 1042 l 522 1042 l 522 829 q 478 710 522 750 q 358 671 433 671 l 358 763 q 406 781 393 763 q 418 829 418 799 l 310 829 l 310 1042 m 42 1042 l 254 1042 l 254 829 q 210 710 254 750 q 90 671 165 671 l 90 763 q 138 781 125 763 q 150 829 150 799 l 42 829 l 42 1042 z "},"‘":{"ha":296,"x_min":42,"x_max":254,"o":"m 254 693 l 42 693 l 42 906 q 86 1024 42 985 q 206 1064 131 1064 l 206 972 q 158 955 171 972 q 146 906 146 938 l 254 906 l 254 693 z "},"’":{"ha":296,"x_min":42,"x_max":254,"o":"m 42 1042 l 254 1042 l 254 829 q 210 710 254 750 q 90 671 165 671 l 90 763 q 138 781 125 763 q 150 829 150 799 l 42 829 l 42 1042 z "},"«":{"ha":849,"x_min":42,"x_max":800,"o":"m 240 701 l 465 701 l 267 385 l 465 68 l 240 68 l 42 385 l 240 701 m 575 701 l 800 701 l 601 385 l 800 68 l 575 68 l 376 385 l 575 701 z "},"»":{"ha":849,"x_min":49,"x_max":807,"o":"m 608 701 l 807 385 l 608 68 l 383 68 l 582 385 l 383 701 l 608 701 m 274 701 l 472 385 l 274 68 l 49 68 l 247 385 l 49 701 l 274 701 z "},"‹":{"ha":514,"x_min":42,"x_max":465,"o":"m 240 701 l 465 701 l 267 385 l 465 68 l 240 68 l 42 385 l 240 701 z "},"›":{"ha":514,"x_min":49,"x_max":472,"o":"m 274 701 l 472 385 l 274 68 l 49 68 l 247 385 l 49 701 l 274 701 z "},"\"":{"ha":564,"x_min":42,"x_max":522,"o":"m 310 1042 l 522 1042 l 522 829 q 478 710 522 750 q 358 671 433 671 l 358 763 q 406 781 393 763 q 418 829 418 799 l 310 829 l 310 1042 m 42 1042 l 254 1042 l 254 829 q 210 710 254 750 q 90 671 165 671 l 90 763 q 138 781 125 763 q 150 829 150 799 l 42 829 l 42 1042 z "},"'":{"ha":296,"x_min":42,"x_max":254,"o":"m 42 1042 l 254 1042 l 254 829 q 210 710 254 750 q 90 671 165 671 l 90 763 q 138 781 125 763 q 150 829 150 799 l 42 829 l 42 1042 z "},".":{"ha":296,"x_min":42,"x_max":254,"o":"m 42 213 l 254 213 l 254 0 l 42 0 l 42 213 z "},",":{"ha":296,"x_min":42,"x_max":254,"o":"m 42 213 l 254 213 l 254 0 q 210 -119 254 -79 q 90 -158 165 -158 l 90 -67 q 138 -49 125 -67 q 150 0 150 -31 l 42 0 l 42 213 z "},":":{"ha":310,"x_min":49,"x_max":261,"o":"m 49 213 l 261 213 l 261 0 l 49 0 l 49 213 m 49 778 l 261 778 l 261 565 l 49 565 l 49 778 z "},";":{"ha":310,"x_min":49,"x_max":261,"o":"m 97 -158 l 97 -67 q 144 -49 132 -67 q 157 0 157 -31 l 49 0 l 49 213 l 261 213 l 261 0 q 217 -119 261 -79 q 97 -158 172 -158 m 49 565 l 49 778 l 261 778 l 261 565 l 49 565 z "},"…":{"ha":907,"x_min":42,"x_max":865,"o":"m 347 213 l 560 213 l 560 0 l 347 0 l 347 213 m 653 213 l 865 213 l 865 0 l 653 0 l 653 213 m 42 213 l 254 213 l 254 0 l 42 0 l 42 213 z "},"!":{"ha":346,"x_min":67,"x_max":279,"o":"m 74 972 l 272 972 l 272 306 l 74 306 l 74 972 m 67 213 l 279 213 l 279 0 l 67 0 l 67 213 z "},"¡":{"ha":346,"x_min":67,"x_max":279,"o":"m 74 -194 l 74 472 l 272 472 l 272 -194 l 74 -194 m 67 565 l 67 778 l 279 778 l 279 565 l 67 565 z "},"?":{"ha":738,"x_min":28,"x_max":710,"o":"m 253 306 q 271 408 253 365 q 317 483 289 451 q 376 538 344 514 q 436 585 408 563 q 482 635 464 608 q 500 696 500 661 q 472 778 500 744 q 375 811 444 811 q 278 772 311 811 q 239 664 246 733 l 28 664 q 76 837 28 763 q 203 953 125 911 q 368 994 281 994 q 554 958 478 994 q 670 855 631 922 q 710 696 710 788 q 691 601 710 642 q 643 527 672 560 q 581 467 614 494 q 518 415 547 440 q 470 363 489 389 q 451 306 451 338 l 253 306 m 246 0 l 246 213 l 458 213 l 458 0 l 246 0 z "},"¿":{"ha":765,"x_min":42,"x_max":724,"o":"m 499 476 q 481 374 499 417 q 435 299 463 331 q 375 244 407 268 q 315 197 343 219 q 269 148 288 174 q 251 86 251 122 q 280 4 251 38 q 376 -29 308 -29 q 474 10 442 -29 q 513 118 507 50 l 724 118 q 675 -54 724 21 q 549 -171 626 -129 q 383 -212 472 -212 q 197 -176 274 -212 q 81 -72 121 -139 q 42 86 42 -6 q 60 181 42 140 q 108 255 79 222 q 171 315 138 288 q 233 367 204 342 q 281 419 263 393 q 300 476 300 446 l 499 476 m 506 782 l 506 569 l 293 569 l 293 782 l 506 782 z "},"·":{"ha":296,"x_min":42,"x_max":254,"o":"m 42 494 l 254 494 l 254 282 l 42 282 l 42 494 z "},"•":{"ha":361,"x_min":42,"x_max":319,"o":"m 181 317 q 83 359 124 317 q 42 458 42 401 q 83 557 42 515 q 181 599 124 599 q 278 557 238 599 q 319 458 319 515 q 278 359 319 401 q 181 317 238 317 z "},"*":{"ha":553,"x_min":47,"x_max":506,"o":"m 347 606 l 231 790 l 276 824 l 322 857 l 463 689 l 347 606 m 206 606 l 90 689 l 231 857 l 276 824 l 322 790 l 206 606 m 258 769 l 47 824 l 90 958 l 293 878 l 276 824 l 258 769 m 219 824 l 206 1042 l 347 1042 l 333 824 l 276 824 l 219 824 m 294 769 l 276 824 l 260 878 l 463 958 l 506 824 l 294 769 z "},"#":{"ha":911,"x_min":28,"x_max":883,"o":"m 103 778 l 883 778 l 883 603 l 103 603 l 103 778 m 28 363 l 808 363 l 808 188 l 28 188 l 28 363 m 276 972 l 467 972 l 286 0 l 96 0 l 276 972 m 625 972 l 815 972 l 635 0 l 444 0 l 625 972 z "},"/":{"ha":531,"x_min":28,"x_max":503,"o":"m 306 972 l 503 972 l 225 0 l 28 0 l 306 972 z "},"\\":{"ha":531,"x_min":28,"x_max":503,"o":"m 225 972 l 503 0 l 306 0 l 28 972 l 225 972 z "},"฿":{"ha":853,"x_min":72,"x_max":804,"o":"m 328 1042 l 457 1042 l 457 -69 l 328 -69 l 328 1042 m 72 972 l 274 972 l 274 0 l 72 0 l 72 972 m 149 578 l 368 578 q 453 585 414 578 q 517 615 493 592 q 540 688 540 639 q 517 760 540 736 q 453 790 493 783 q 368 797 414 797 l 149 797 l 149 972 l 368 972 q 560 948 474 972 q 699 862 647 924 q 750 688 750 800 q 735 595 750 643 q 683 513 719 547 q 582 475 647 479 l 582 521 q 695 488 644 518 q 775 407 746 457 q 804 293 804 357 q 753 117 804 182 q 615 26 701 53 q 422 0 528 0 l 149 0 l 149 175 l 422 175 q 508 184 468 175 q 571 219 547 193 q 594 293 594 244 q 571 365 594 342 q 508 396 547 389 q 422 403 468 403 l 149 403 l 149 578 z "},"¢":{"ha":833,"x_min":35,"x_max":797,"o":"m 432 -22 q 223 30 313 -22 q 84 175 133 82 q 35 388 35 268 q 84 601 35 508 q 223 747 133 694 q 432 800 313 800 q 619 753 538 800 q 748 633 701 707 q 794 472 794 558 l 585 472 q 569 543 585 510 q 521 598 554 576 q 432 619 488 619 q 318 589 361 619 q 256 506 275 558 q 238 388 238 453 q 256 272 238 324 q 318 189 275 219 q 432 158 361 158 q 522 182 488 158 q 574 244 557 206 q 590 326 590 282 l 797 326 q 751 147 797 226 q 624 23 706 68 q 432 -22 542 -22 m 357 -69 l 357 847 l 486 847 l 486 -69 l 357 -69 z "},"¤":{"ha":633,"x_min":21,"x_max":613,"o":"m 318 239 q 219 265 264 239 q 149 336 175 292 q 122 435 122 381 q 149 534 122 490 q 219 603 175 578 q 317 629 263 629 q 416 603 372 629 q 486 533 460 576 q 513 433 513 489 q 487 335 513 379 q 417 265 461 292 q 318 239 374 239 m 144 138 l 21 261 l 136 376 l 260 253 l 144 138 m 136 490 l 21 606 l 144 729 l 260 614 l 136 490 m 315 378 q 356 395 339 378 q 374 435 374 413 q 357 474 374 457 q 318 490 340 490 q 278 473 296 490 q 261 432 261 456 q 278 394 261 411 q 315 378 294 378 m 489 138 l 374 253 l 497 376 l 613 261 l 489 138 m 497 490 l 374 614 l 489 729 l 613 606 l 497 490 z "},"$":{"ha":879,"x_min":49,"x_max":831,"o":"m 447 -3 q 239 40 326 -3 q 102 155 151 82 q 49 317 53 228 l 253 317 q 313 214 260 251 q 454 176 365 176 q 577 199 533 176 q 621 271 621 221 q 590 327 621 307 q 510 360 560 347 q 401 386 460 374 q 282 417 342 399 q 172 469 222 436 q 92 556 122 501 q 61 692 61 610 q 106 833 61 768 q 235 936 150 897 q 442 975 321 975 q 632 933 549 975 q 763 819 715 892 q 811 651 811 746 l 607 651 q 583 729 603 699 q 526 775 563 760 q 435 790 489 790 q 340 778 376 790 q 288 744 304 765 q 271 694 271 722 q 301 633 271 656 q 382 597 332 611 q 492 572 432 583 q 610 544 551 561 q 719 496 669 526 q 800 414 769 465 q 831 283 831 363 q 732 70 831 143 q 447 -3 633 -3 m 364 -85 l 364 1042 l 517 1042 l 517 -85 l 364 -85 z "},"€":{"ha":1083,"x_min":32,"x_max":1044,"o":"m 600 -22 q 338 47 446 -22 q 175 231 231 115 q 119 488 119 346 q 151 684 119 592 q 243 846 182 776 q 394 955 304 915 q 600 994 483 994 q 906 891 796 994 q 1039 613 1017 788 l 825 613 q 801 697 818 660 q 758 759 785 733 q 692 798 731 785 q 600 811 653 811 q 445 765 506 811 q 357 644 385 718 q 329 488 329 569 q 357 330 329 404 q 445 208 385 256 q 600 161 506 161 q 700 178 658 161 q 770 225 742 194 q 814 299 799 256 q 833 396 829 342 l 1044 396 q 981 176 1035 271 q 833 30 928 82 q 600 -22 738 -22 m 32 296 l 32 435 l 590 435 l 590 296 l 32 296 m 32 518 l 32 657 l 590 657 l 590 518 l 32 518 z "},"₴":{"ha":956,"x_min":49,"x_max":907,"o":"m 49 672 l 907 672 l 907 539 l 49 539 l 49 672 m 49 444 l 907 444 l 907 311 l 49 311 l 49 444 m 603 629 q 642 663 628 643 q 656 708 656 682 q 613 782 656 753 q 489 811 571 811 q 388 790 426 811 q 331 728 350 768 l 111 728 q 179 869 126 810 q 310 962 232 929 q 482 994 389 994 q 686 956 600 994 q 819 851 772 917 q 865 708 865 786 q 857 629 865 665 l 603 629 m 354 342 q 315 312 329 329 q 300 268 300 294 q 349 191 300 215 q 468 167 397 167 q 574 191 528 167 q 643 256 619 215 l 868 256 q 795 116 850 178 q 658 19 740 54 q 476 -17 576 -17 q 193 58 296 -17 q 90 268 90 132 q 92 306 90 288 q 97 342 94 325 l 354 342 z "},"₽":{"ha":997,"x_min":65,"x_max":950,"o":"m 190 972 l 392 972 l 392 0 l 190 0 l 190 972 m 65 494 l 526 494 l 526 319 l 65 319 l 65 494 m 526 494 q 641 506 593 494 q 715 551 689 518 q 740 646 740 583 q 715 741 740 708 q 641 785 689 774 q 526 797 593 797 l 526 972 q 748 940 653 972 q 897 837 843 908 q 950 646 950 765 q 897 456 950 528 q 748 351 843 383 q 526 319 653 319 l 526 494 m 267 972 l 526 972 l 526 797 l 267 797 l 267 972 m 65 271 l 526 271 l 526 96 l 65 96 l 65 271 z "},"₹":{"ha":858,"x_min":47,"x_max":786,"o":"m 265 333 l 265 508 q 422 539 365 508 q 479 653 479 569 q 453 740 479 708 q 380 784 428 771 q 265 797 332 797 l 265 903 q 408 897 335 903 q 546 867 482 890 q 649 792 610 843 q 689 653 689 742 q 635 465 689 535 q 487 364 582 394 q 265 333 392 333 m 75 333 l 75 508 l 265 508 l 265 333 l 75 333 m 411 0 l 75 333 l 75 392 l 286 392 l 696 0 l 411 0 m 47 565 l 47 740 l 786 740 l 786 565 l 47 565 m 47 797 l 47 972 l 786 972 l 786 797 l 47 797 z "},"₪":{"ha":1051,"x_min":72,"x_max":979,"o":"m 543 253 l 543 740 q 532 785 543 772 q 493 797 521 797 l 114 797 l 114 972 l 506 972 q 639 942 586 972 q 718 852 692 913 q 744 700 744 792 l 744 253 l 543 253 m 72 0 l 72 972 l 274 972 l 274 0 l 72 0 m 546 0 q 413 30 467 0 q 333 121 360 60 q 307 272 307 182 l 307 719 l 508 719 l 508 232 q 519 188 508 201 q 558 175 531 175 l 938 175 l 938 0 l 546 0 m 778 0 l 778 972 l 979 972 l 979 0 l 778 0 z "},"£":{"ha":846,"x_min":72,"x_max":774,"o":"m 156 54 l 75 121 q 151 222 119 161 q 183 346 183 282 q 169 428 183 389 q 138 507 156 467 q 106 593 119 547 q 92 696 92 639 q 131 855 92 788 q 243 958 169 922 q 419 994 317 994 q 603 953 524 994 q 728 837 683 911 q 774 664 774 763 l 563 664 q 523 772 557 733 q 419 811 489 811 q 328 778 356 811 q 301 696 301 744 q 313 619 301 657 q 339 540 324 581 q 365 453 354 500 q 376 347 376 406 q 322 177 376 243 q 156 54 268 111 m 75 0 l 75 121 l 233 175 l 760 175 l 760 0 l 75 0 m 72 407 l 72 546 l 603 546 l 603 407 l 72 407 z "},"₩":{"ha":1522,"x_min":42,"x_max":1481,"o":"m 328 0 l 76 972 l 275 972 l 513 0 l 328 0 m 599 0 l 414 0 l 651 972 l 850 972 l 599 0 m 924 0 l 672 972 l 871 972 l 1108 0 l 924 0 m 1194 0 l 1010 0 l 1247 972 l 1446 972 l 1194 0 m 42 672 l 1481 672 l 1481 539 l 42 539 l 42 672 m 42 444 l 1481 444 l 1481 311 l 42 311 l 42 444 z "},"¥":{"ha":899,"x_min":42,"x_max":857,"o":"m 375 475 l 42 972 l 275 972 l 476 660 l 424 660 l 624 972 l 857 972 l 524 475 l 375 475 m 349 693 l 550 693 l 550 0 l 349 0 l 349 693 m 183 657 l 714 657 l 714 518 l 183 518 l 183 657 m 183 435 l 714 435 l 714 296 l 183 296 l 183 435 z "},"+":{"ha":793,"x_min":57,"x_max":738,"o":"m 57 599 l 738 599 l 738 429 l 57 429 l 57 599 m 482 854 l 482 174 l 313 174 l 313 854 l 482 854 z "},"−":{"ha":793,"x_min":57,"x_max":738,"o":"m 57 599 l 738 599 l 738 429 l 57 429 l 57 599 z "},"×":{"ha":686,"x_min":42,"x_max":644,"o":"m 161 815 l 643 333 l 524 213 l 42 694 l 161 815 m 644 696 l 161 213 l 42 333 l 524 814 l 644 696 z "},"÷":{"ha":793,"x_min":57,"x_max":738,"o":"m 57 599 l 738 599 l 738 429 l 57 429 l 57 599 m 396 668 q 316 701 349 668 q 283 781 283 733 q 316 861 283 828 q 396 894 349 894 q 476 861 443 894 q 510 781 510 828 q 476 701 510 733 q 396 668 443 668 m 396 133 q 316 166 349 133 q 283 246 283 199 q 316 326 283 293 q 396 360 349 360 q 476 326 443 360 q 510 246 510 293 q 476 166 510 199 q 396 133 443 133 z "},"=":{"ha":793,"x_min":57,"x_max":738,"o":"m 57 751 l 738 751 l 738 582 l 57 582 l 57 751 m 57 446 l 738 446 l 738 276 l 57 276 l 57 446 z "},"≠":{"ha":793,"x_min":57,"x_max":738,"o":"m 394 849 l 592 849 l 400 179 l 203 179 l 394 849 m 57 751 l 738 751 l 738 582 l 57 582 l 57 751 m 57 446 l 738 446 l 738 276 l 57 276 l 57 446 z "},">":{"ha":889,"x_min":56,"x_max":833,"o":"m 56 144 l 56 343 l 704 518 l 704 513 l 56 686 l 56 885 l 833 649 l 833 381 l 56 144 z "},"<":{"ha":889,"x_min":56,"x_max":833,"o":"m 833 144 l 56 381 l 56 649 l 833 885 l 833 686 l 185 513 l 185 518 l 833 343 l 833 144 z "},"≥":{"ha":889,"x_min":56,"x_max":833,"o":"m 57 269 l 833 269 l 833 100 l 57 100 l 57 269 m 56 297 l 56 482 l 833 621 l 833 464 l 56 297 m 56 871 l 833 635 l 833 474 l 56 682 l 56 871 z "},"≤":{"ha":896,"x_min":63,"x_max":840,"o":"m 839 269 l 839 100 l 63 100 l 63 269 l 839 269 m 840 297 l 63 464 l 63 621 l 840 482 l 840 297 m 840 871 l 840 682 l 63 474 l 63 635 l 840 871 z "},"±":{"ha":890,"x_min":57,"x_max":833,"o":"m 833 269 l 833 100 l 57 100 l 57 269 l 833 269 m 57 672 l 833 672 l 833 503 l 57 503 l 57 672 m 529 854 l 529 319 l 360 319 l 360 854 l 529 854 z "},"≈":{"ha":811,"x_min":56,"x_max":756,"o":"m 293 318 q 250 296 268 318 q 232 243 232 274 l 56 243 q 89 397 56 342 q 170 476 122 453 q 260 499 218 499 q 345 485 308 499 q 412 453 382 471 q 469 422 442 436 q 522 408 496 408 q 563 430 546 408 q 579 482 579 451 l 756 482 q 735 359 756 408 q 684 280 715 310 q 618 237 653 250 q 553 224 583 224 q 469 238 506 224 q 402 271 432 253 q 346 303 372 289 q 293 318 319 318 m 293 613 q 250 590 268 613 q 232 538 232 568 l 56 538 q 89 692 56 636 q 170 770 122 747 q 260 793 218 793 q 345 779 308 793 q 412 748 382 765 q 469 717 442 731 q 522 703 496 703 q 563 724 546 703 q 579 776 579 746 l 756 776 q 735 653 756 703 q 684 574 715 604 q 618 531 653 544 q 553 518 583 518 q 469 533 506 518 q 402 565 432 547 q 346 598 372 583 q 293 613 319 613 z "},"~":{"ha":811,"x_min":56,"x_max":756,"o":"m 293 439 q 250 417 268 439 q 232 364 232 394 l 56 364 q 89 518 56 463 q 170 597 122 574 q 260 619 218 619 q 345 606 308 619 q 412 574 382 592 q 469 543 442 557 q 522 529 496 529 q 563 551 546 529 q 579 603 579 572 l 756 603 q 735 480 756 529 q 684 401 715 431 q 618 358 653 371 q 553 344 583 344 q 469 359 506 344 q 402 392 432 374 q 346 424 372 410 q 293 439 319 439 z "},"¬":{"ha":793,"x_min":57,"x_max":738,"o":"m 57 599 l 738 599 l 738 429 l 57 429 l 57 599 m 568 233 l 568 560 l 738 560 l 738 233 l 568 233 z "},"^":{"ha":607,"x_min":42,"x_max":565,"o":"m 42 506 l 183 972 l 354 972 l 229 506 l 42 506 m 378 506 l 253 972 l 424 972 l 565 506 l 378 506 z "},"∞":{"ha":1164,"x_min":42,"x_max":1122,"o":"m 342 228 q 183 263 250 228 q 78 363 115 299 q 42 513 42 428 q 78 663 42 599 q 183 764 115 728 q 342 800 250 800 q 453 776 404 800 q 540 715 501 753 q 607 632 578 676 l 557 632 q 625 715 588 676 q 711 776 663 753 q 822 800 760 800 q 982 764 915 800 q 1085 663 1049 728 q 1122 513 1122 599 q 1085 363 1122 428 q 982 263 1049 299 q 822 228 915 228 q 711 251 760 228 q 625 313 663 275 q 557 393 588 350 l 607 393 q 540 313 578 350 q 453 251 501 275 q 342 228 404 228 m 342 406 q 413 426 382 406 q 464 481 443 447 q 497 554 485 515 l 496 471 q 463 545 485 511 q 412 601 442 579 q 342 622 382 622 q 269 590 293 622 q 244 513 244 558 q 269 437 244 468 q 342 406 293 406 m 822 406 q 895 437 871 406 q 919 513 919 468 q 895 590 919 558 q 822 622 871 622 q 753 601 783 622 q 701 545 722 579 q 668 471 681 511 l 667 554 q 700 481 679 515 q 751 426 721 447 q 822 406 782 406 z "},"∫":{"ha":518,"x_min":21,"x_max":497,"o":"m 175 656 q 188 780 175 722 q 231 881 200 838 q 318 948 263 924 q 460 972 374 972 l 497 972 l 497 847 l 460 847 q 382 824 407 847 q 350 756 357 801 q 343 642 343 711 l 343 206 q 331 81 343 139 q 287 -19 318 24 q 200 -87 256 -62 q 58 -111 144 -111 l 21 -111 l 21 14 l 58 14 q 137 37 113 14 q 168 106 161 60 q 175 219 175 151 l 175 656 z "},"∏":{"ha":985,"x_min":28,"x_max":957,"o":"m 167 972 l 368 972 l 368 0 l 167 0 l 167 972 m 617 972 l 818 972 l 818 0 l 617 0 l 617 972 m 28 972 l 957 972 l 957 797 l 28 797 l 28 972 z "},"∑":{"ha":813,"x_min":72,"x_max":754,"o":"m 72 972 l 749 972 l 749 797 l 185 797 l 210 840 l 517 536 l 517 435 l 211 132 l 186 175 l 754 175 l 754 0 l 72 0 l 72 244 l 385 542 l 385 431 l 72 726 l 72 972 z "},"√":{"ha":949,"x_min":25,"x_max":928,"o":"m 25 778 l 238 778 l 446 0 l 261 0 l 25 778 m 742 972 l 529 0 l 344 0 l 529 972 l 742 972 m 596 972 l 928 972 l 928 797 l 596 797 l 596 972 z "},"∂":{"ha":831,"x_min":35,"x_max":764,"o":"m 385 -22 q 203 28 282 -22 q 79 166 124 78 q 35 367 35 254 q 79 569 35 481 q 203 708 124 657 q 385 758 282 758 q 554 708 475 758 q 676 557 633 658 l 568 564 q 465 798 546 728 q 243 868 385 868 l 243 1042 q 485 990 385 1042 q 646 849 585 939 q 735 642 707 758 q 764 394 764 525 q 715 172 764 265 q 581 28 667 78 q 385 -22 496 -22 m 406 156 q 483 176 447 156 q 542 242 519 196 q 565 367 565 289 q 542 486 565 439 q 483 557 519 533 q 406 581 447 581 q 326 560 365 581 q 263 493 288 540 q 238 367 238 446 q 263 242 238 289 q 326 176 288 196 q 406 156 365 156 z "},"%":{"ha":1333,"x_min":49,"x_max":1285,"o":"m 835 972 l 1046 972 l 504 0 l 293 0 l 835 972 m 296 385 q 156 426 211 385 q 75 536 101 467 q 49 690 49 606 q 75 844 49 775 q 156 953 101 913 q 296 994 211 994 q 435 953 381 994 q 515 844 489 913 q 542 690 542 775 q 515 536 542 606 q 435 426 489 467 q 296 385 381 385 m 296 558 q 351 594 332 558 q 369 690 369 631 q 351 785 369 750 q 296 821 332 821 q 240 785 258 821 q 221 690 221 750 q 240 594 221 631 q 296 558 258 558 m 1039 -22 q 899 19 954 -22 q 818 129 844 60 q 792 283 792 199 q 818 437 792 368 q 899 547 844 506 q 1039 588 954 588 q 1178 547 1124 588 q 1258 437 1232 506 q 1285 283 1285 368 q 1258 129 1285 199 q 1178 19 1232 60 q 1039 -22 1124 -22 m 1039 151 q 1094 188 1075 151 q 1113 283 1113 224 q 1094 378 1113 343 q 1039 414 1075 414 q 983 378 1001 414 q 964 283 964 343 q 983 188 964 224 q 1039 151 1001 151 z "},"‰":{"ha":1882,"x_min":49,"x_max":1833,"o":"m 1588 -22 q 1448 19 1503 -22 q 1367 129 1393 60 q 1340 283 1340 199 q 1367 437 1340 368 q 1448 547 1393 506 q 1588 588 1503 588 q 1726 547 1672 588 q 1807 437 1781 506 q 1833 283 1833 368 q 1807 129 1833 199 q 1726 19 1781 60 q 1588 -22 1672 -22 m 1588 143 q 1646 181 1626 143 q 1665 283 1665 219 q 1646 385 1665 347 q 1588 422 1626 422 q 1528 385 1549 422 q 1508 283 1508 347 q 1528 181 1508 219 q 1588 143 1549 143 m 835 972 l 1046 972 l 504 0 l 293 0 l 835 972 m 296 385 q 156 426 211 385 q 75 536 101 467 q 49 690 49 606 q 75 844 49 775 q 156 953 101 913 q 296 994 211 994 q 435 953 381 994 q 515 844 489 913 q 542 690 542 775 q 515 536 542 606 q 435 426 489 467 q 296 385 381 385 m 296 558 q 351 594 332 558 q 369 690 369 631 q 351 785 369 750 q 296 821 332 821 q 240 785 258 821 q 221 690 221 750 q 240 594 221 631 q 296 558 258 558 m 1039 -22 q 899 19 954 -22 q 818 129 844 60 q 792 283 792 199 q 818 437 792 368 q 899 547 844 506 q 1039 588 954 588 q 1178 547 1124 588 q 1258 437 1232 506 q 1285 283 1285 368 q 1258 129 1285 199 q 1178 19 1232 60 q 1039 -22 1124 -22 m 1039 151 q 1094 188 1075 151 q 1113 283 1113 224 q 1094 378 1113 343 q 1039 414 1075 414 q 983 378 1001 414 q 964 283 964 343 q 983 188 964 224 q 1039 151 1001 151 z "},"↑":{"ha":842,"x_min":56,"x_max":786,"o":"m 421 994 l 786 629 l 667 510 l 476 700 l 521 718 l 521 0 l 321 0 l 321 718 l 365 700 l 175 510 l 56 629 l 421 994 z "},"↗":{"ha":885,"x_min":54,"x_max":829,"o":"m 311 971 l 829 971 l 829 454 l 661 454 l 661 724 l 706 706 l 197 197 l 54 340 l 563 849 l 581 804 l 311 804 l 311 971 z "},"→":{"ha":1104,"x_min":57,"x_max":1051,"o":"m 1051 475 l 686 110 l 567 229 l 757 419 l 775 375 l 57 375 l 57 575 l 775 575 l 757 531 l 567 721 l 686 840 l 1051 475 z "},"↘":{"ha":886,"x_min":56,"x_max":831,"o":"m 313 0 l 313 167 l 582 167 l 564 122 l 56 631 l 199 774 l 707 265 l 663 247 l 663 517 l 831 517 l 831 0 l 313 0 z "},"↓":{"ha":842,"x_min":56,"x_max":786,"o":"m 421 -22 l 56 343 l 175 463 l 365 272 l 321 254 l 321 972 l 521 972 l 521 254 l 476 272 l 667 463 l 786 343 l 421 -22 z "},"↙":{"ha":886,"x_min":56,"x_max":831,"o":"m 574 0 l 56 0 l 56 517 l 224 517 l 224 247 l 179 265 l 688 774 l 831 631 l 322 122 l 304 167 l 574 167 l 574 0 z "},"←":{"ha":1104,"x_min":54,"x_max":1049,"o":"m 54 474 l 419 839 l 539 719 l 349 529 l 331 574 l 1049 574 l 1049 374 l 331 374 l 349 418 l 539 228 l 419 108 l 54 474 z "},"↖":{"ha":885,"x_min":56,"x_max":831,"o":"m 574 971 l 574 804 l 304 804 l 322 849 l 831 340 l 688 197 l 179 706 l 224 724 l 224 454 l 56 454 l 56 971 l 574 971 z "},"↔":{"ha":1224,"x_min":56,"x_max":1168,"o":"m 421 108 l 56 475 l 421 840 l 539 721 l 393 575 l 831 575 l 685 721 l 803 840 l 1168 475 l 803 108 l 685 228 l 831 374 l 393 374 l 539 228 l 421 108 z "},"↕":{"ha":842,"x_min":56,"x_max":786,"o":"m 421 -22 l 56 343 l 175 463 l 321 317 l 321 656 l 175 510 l 56 629 l 421 994 l 786 629 l 667 510 l 521 656 l 521 317 l 667 463 l 786 343 l 421 -22 z "},"@":{"ha":1199,"x_min":39,"x_max":1160,"o":"m 588 -121 q 362 -78 463 -121 q 189 40 261 -36 q 78 215 117 115 q 39 428 39 314 q 81 634 39 536 q 198 808 122 732 q 376 928 274 885 q 600 972 479 972 q 833 928 729 972 q 1009 808 936 883 q 1121 640 1082 733 q 1160 451 1160 547 q 1128 295 1160 360 q 1038 197 1096 231 q 900 163 979 163 q 787 188 831 163 q 722 261 743 214 q 701 372 701 308 l 701 675 l 850 675 l 850 382 q 863 333 850 351 q 906 315 875 315 q 952 330 933 315 q 981 372 971 344 q 992 435 992 399 q 965 581 992 513 q 888 700 939 649 q 765 781 838 751 q 600 810 693 810 q 440 781 513 810 q 316 699 368 751 q 236 578 264 647 q 208 428 208 508 q 253 234 208 324 q 383 90 299 144 q 585 35 468 35 q 707 50 638 35 q 846 113 776 65 l 946 4 q 881 -46 929 -17 q 757 -98 832 -75 q 588 -121 682 -121 m 542 163 q 427 194 479 163 q 343 285 375 226 q 311 426 311 344 q 343 566 311 507 q 428 658 375 625 q 543 692 481 692 q 643 670 594 692 q 714 610 692 649 l 728 282 q 680 213 710 239 q 614 174 650 186 q 542 163 578 163 m 596 315 q 673 351 644 315 q 701 432 701 386 q 673 513 701 478 q 596 549 644 549 q 519 516 550 549 q 488 432 488 483 q 519 349 488 383 q 596 315 550 315 z "},"&":{"ha":933,"x_min":50,"x_max":906,"o":"m 424 0 q 149 74 247 0 q 50 264 50 147 q 76 380 50 326 q 162 469 103 433 q 318 510 221 504 l 319 467 q 167 508 225 474 q 83 594 110 542 q 57 708 57 647 q 102 851 57 786 q 229 956 147 917 q 422 994 311 994 q 607 953 528 994 q 731 837 686 911 q 775 664 775 763 l 574 664 q 535 776 574 740 q 415 811 497 811 q 331 797 364 811 q 282 760 297 783 q 267 708 267 738 q 319 610 267 640 q 514 581 372 581 l 514 406 q 316 376 372 406 q 260 278 260 346 q 298 201 260 228 q 417 175 336 175 l 490 175 l 490 0 l 424 0 m 574 0 l 574 664 l 775 664 l 775 0 l 574 0 m 514 406 l 514 581 l 906 581 l 906 406 l 514 406 z "},"¶":{"ha":1031,"x_min":47,"x_max":958,"o":"m 406 454 q 142 513 238 454 q 47 714 47 572 q 142 914 47 856 q 406 972 238 972 l 406 894 l 406 532 l 406 454 m 406 -278 l 406 972 l 607 972 l 607 -278 l 406 -278 m 688 -278 l 688 972 l 889 972 l 889 -278 l 688 -278 m 503 797 l 503 972 l 958 972 l 958 797 l 503 797 z "},"§":{"ha":733,"x_min":35,"x_max":699,"o":"m 375 347 q 433 353 404 347 q 482 377 463 360 q 501 428 501 394 q 476 470 501 456 q 411 493 451 485 q 322 509 371 501 q 224 530 274 517 q 135 568 175 543 q 69 635 94 593 q 44 744 44 678 q 85 864 44 807 q 200 958 126 921 q 368 994 274 994 q 525 961 453 994 q 642 867 597 928 q 686 728 686 807 l 488 728 q 447 804 482 783 q 363 825 411 825 q 272 802 303 825 q 242 744 242 779 q 267 697 242 714 q 332 672 292 681 q 422 656 372 663 q 519 636 471 649 q 608 600 568 624 q 674 535 649 576 q 699 428 699 493 q 651 309 699 356 q 533 239 603 263 l 375 347 m 356 535 q 271 510 300 533 q 242 454 242 488 q 267 407 242 424 q 332 381 292 390 q 422 365 372 372 q 519 346 471 358 q 608 310 568 333 q 674 244 649 286 q 699 138 699 203 q 658 8 699 64 q 544 -81 617 -49 q 372 -112 471 -112 q 205 -77 281 -112 q 83 19 129 -42 q 35 156 38 79 l 235 156 q 283 78 242 100 q 379 57 325 57 q 467 76 432 57 q 501 138 501 94 q 476 180 501 165 q 411 203 451 194 q 322 219 371 211 q 224 240 274 226 q 135 278 175 253 q 69 345 94 303 q 44 454 44 388 q 90 569 44 517 q 215 640 135 621 l 356 535 z "},"©":{"ha":1094,"x_min":39,"x_max":1056,"o":"m 547 -22 q 350 17 442 -22 q 188 127 258 57 q 78 289 118 197 q 39 486 39 381 q 78 683 39 592 q 188 845 118 775 q 350 955 258 915 q 547 994 442 994 q 744 955 653 994 q 906 845 836 915 q 1016 683 976 775 q 1056 486 1056 592 q 1016 289 1056 381 q 906 127 976 197 q 744 17 836 57 q 547 -22 653 -22 m 547 129 q 684 157 621 129 q 795 233 747 185 q 870 347 843 282 q 897 486 897 411 q 870 626 897 561 q 795 739 843 690 q 684 815 747 788 q 547 843 621 843 q 411 815 475 843 q 299 739 347 788 q 224 626 251 690 q 197 486 197 561 q 224 347 197 411 q 299 233 251 282 q 411 157 347 185 q 547 129 475 129 m 771 450 q 710 302 771 361 q 549 243 650 243 q 419 274 474 243 q 335 360 365 306 q 306 485 306 415 q 335 612 306 557 q 419 698 365 667 q 549 729 474 729 q 663 701 614 729 q 740 630 713 674 q 768 535 768 586 l 597 535 q 584 578 597 563 q 549 594 571 594 q 495 569 515 594 q 475 485 475 543 q 495 403 475 428 q 549 378 515 378 q 576 386 564 378 q 594 410 588 394 q 600 450 600 426 l 771 450 z "},"®":{"ha":1094,"x_min":39,"x_max":1056,"o":"m 547 -22 q 350 17 442 -22 q 188 127 258 57 q 78 289 118 197 q 39 486 39 381 q 78 683 39 592 q 188 845 118 775 q 350 955 258 915 q 547 994 442 994 q 744 955 653 994 q 906 845 836 915 q 1016 683 976 775 q 1056 486 1056 592 q 1016 289 1056 381 q 906 127 976 197 q 744 17 836 57 q 547 -22 653 -22 m 547 129 q 684 157 621 129 q 795 233 747 185 q 870 347 843 282 q 897 486 897 411 q 870 626 897 561 q 795 739 843 690 q 684 815 747 788 q 547 843 621 843 q 411 815 475 843 q 299 739 347 788 q 224 626 251 690 q 197 486 197 561 q 224 347 197 411 q 299 233 251 282 q 411 157 347 185 q 547 129 475 129 m 363 258 l 363 722 l 546 722 q 697 686 644 722 q 750 574 750 650 q 707 472 750 508 q 593 426 664 436 l 644 492 l 756 258 l 604 258 l 532 419 l 501 419 l 501 258 l 363 258 m 501 536 l 550 536 q 590 540 574 536 q 607 571 607 544 q 590 600 607 594 q 550 606 574 606 l 501 606 l 501 536 z "},"™":{"ha":1117,"x_min":42,"x_max":1068,"o":"m 189 972 l 324 972 l 324 456 l 189 456 l 189 972 m 42 972 l 471 972 l 471 851 l 42 851 l 42 972 m 706 456 l 571 972 l 708 972 l 835 456 l 706 456 m 857 456 l 726 456 l 853 972 l 990 972 l 857 456 m 494 972 l 625 972 l 625 456 l 494 456 l 494 972 m 936 972 l 1068 972 l 1068 456 l 936 456 l 936 972 z "},"°":{"ha":475,"x_min":42,"x_max":433,"o":"m 238 604 q 140 631 185 604 q 68 701 94 657 q 42 799 42 746 q 68 897 42 853 q 140 968 94 942 q 238 994 185 994 q 336 968 292 994 q 407 897 381 942 q 433 799 433 853 q 407 701 433 746 q 336 631 381 657 q 238 604 292 604 m 238 743 q 277 760 261 743 q 293 799 293 776 q 277 839 293 822 q 238 856 261 856 q 198 839 214 856 q 182 799 182 822 q 198 760 182 776 q 238 743 214 743 z "},"|":{"ha":346,"x_min":72,"x_max":274,"o":"m 72 1042 l 274 1042 l 274 -69 l 72 -69 l 72 1042 z "},"¦":{"ha":346,"x_min":72,"x_max":274,"o":"m 72 597 l 72 1042 l 274 1042 l 274 597 l 72 597 m 274 375 l 274 -69 l 72 -69 l 72 375 l 274 375 z "},"†":{"ha":618,"x_min":21,"x_max":597,"o":"m 208 1042 l 410 1042 l 410 -69 l 208 -69 l 208 1042 m 21 794 l 597 794 l 597 619 l 21 619 l 21 794 z "},"‡":{"ha":618,"x_min":21,"x_max":597,"o":"m 208 1042 l 410 1042 l 410 -69 l 208 -69 l 208 1042 m 21 794 l 597 794 l 597 619 l 21 619 l 21 794 m 21 378 l 597 378 l 597 203 l 21 203 l 21 378 z "},"̈":{"ha":0,"x_min":21,"x_max":515,"o":"m 21 1065 l 222 1065 l 222 879 l 21 879 l 21 1065 m 314 1065 l 515 1065 l 515 879 l 314 879 l 314 1065 z "},"̇":{"ha":0,"x_min":18,"x_max":204,"o":"m 18 1042 l 204 1042 l 204 856 l 18 856 l 18 1042 z "},"̀":{"ha":0,"x_min":25,"x_max":331,"o":"m 168 875 l 25 1069 l 247 1069 l 331 875 l 168 875 z "},"́":{"ha":0,"x_min":21,"x_max":326,"o":"m 326 1069 l 183 875 l 21 875 l 104 1069 l 326 1069 z "},"̋":{"ha":0,"x_min":18,"x_max":526,"o":"m 285 1069 l 181 875 l 18 875 l 88 1069 l 285 1069 m 526 1069 l 422 875 l 260 875 l 329 1069 l 526 1069 z "},"̂":{"ha":0,"x_min":26,"x_max":506,"o":"m 368 1069 l 506 875 l 328 875 l 232 1011 l 301 1011 l 204 875 l 26 875 l 164 1069 l 368 1069 z "},"̌":{"ha":0,"x_min":26,"x_max":506,"o":"m 164 875 l 26 1069 l 204 1069 l 301 933 l 232 933 l 328 1069 l 506 1069 l 368 875 l 164 875 z "},"̆":{"ha":0,"x_min":42,"x_max":514,"o":"m 514 1069 q 438 916 504 971 q 278 861 372 861 q 118 916 185 861 q 42 1069 51 971 l 203 1069 q 278 1001 211 1001 q 330 1019 310 1001 q 353 1069 350 1036 l 514 1069 z "},"̊":{"ha":0,"x_min":15,"x_max":299,"o":"m 157 839 q 56 881 97 839 q 15 981 15 922 q 56 1081 15 1039 q 157 1122 97 1122 q 257 1081 215 1122 q 299 981 299 1039 q 257 881 299 922 q 157 839 215 839 m 158 946 q 183 956 174 946 q 193 981 193 967 q 183 1006 193 996 q 158 1015 174 1015 q 134 1006 144 1015 q 124 982 124 996 q 134 956 124 967 q 158 946 144 946 z "},"̃":{"ha":0,"x_min":28,"x_max":532,"o":"m 210 929 q 182 918 192 929 q 172 883 172 907 l 28 883 q 52 999 28 957 q 110 1059 76 1042 q 174 1076 144 1076 q 249 1062 218 1076 q 303 1033 279 1047 q 353 1018 328 1018 q 378 1029 371 1018 q 386 1064 386 1040 l 532 1064 q 508 947 532 990 q 449 886 483 904 q 386 868 415 868 q 313 883 343 868 q 260 914 283 899 q 210 929 236 929 z "},"̄":{"ha":0,"x_min":21,"x_max":444,"o":"m 21 1050 l 444 1050 l 444 894 l 21 894 l 21 1050 z "},"̒":{"ha":0,"x_min":51,"x_max":244,"o":"m 196 1143 l 196 1065 q 157 1051 168 1065 q 146 1010 146 1036 l 244 1010 l 244 822 l 51 822 l 51 1010 q 92 1110 51 1076 q 196 1143 133 1143 z "},"̦":{"ha":0,"x_min":50,"x_max":243,"o":"m 99 -379 l 99 -301 q 138 -287 126 -301 q 149 -246 149 -272 l 50 -246 l 50 -58 l 243 -58 l 243 -246 q 202 -346 243 -312 q 99 -379 161 -379 z "},"̧":{"ha":0,"x_min":76,"x_max":401,"o":"m 115 56 l 244 56 l 244 -126 l 115 -126 l 115 56 m 182 -126 l 232 -35 q 358 -63 315 -35 q 401 -150 401 -92 q 359 -243 401 -208 q 235 -278 317 -278 l 76 -278 l 76 -174 l 182 -174 q 213 -167 206 -174 q 219 -150 219 -160 q 213 -133 219 -139 q 182 -126 206 -126 z "},"̨":{"ha":0,"x_min":42,"x_max":317,"o":"m 282 0 q 233 -15 253 -6 q 204 -35 214 -24 q 194 -62 194 -47 q 200 -82 194 -74 q 219 -95 206 -90 q 254 -100 232 -100 l 317 -100 l 317 -278 l 247 -278 q 100 -240 158 -278 q 42 -133 42 -201 q 88 -27 42 -69 q 218 49 133 15 l 282 0 z "},"¨":{"ha":507,"x_min":21,"x_max":515,"o":"m 21 1065 l 222 1065 l 222 879 l 21 879 l 21 1065 m 314 1065 l 515 1065 l 515 879 l 314 879 l 314 1065 z "},"˙":{"ha":222,"x_min":18,"x_max":204,"o":"m 18 1042 l 204 1042 l 204 856 l 18 856 l 18 1042 z "},"`":{"ha":319,"x_min":25,"x_max":331,"o":"m 168 875 l 25 1069 l 247 1069 l 331 875 l 168 875 z "},"´":{"ha":319,"x_min":21,"x_max":326,"o":"m 326 1069 l 183 875 l 21 875 l 104 1069 l 326 1069 z "},"˝":{"ha":561,"x_min":18,"x_max":526,"o":"m 285 1069 l 181 875 l 18 875 l 88 1069 l 285 1069 m 526 1069 l 422 875 l 260 875 l 329 1069 l 526 1069 z "},"ˆ":{"ha":490,"x_min":26,"x_max":506,"o":"m 368 1069 l 506 875 l 328 875 l 232 1011 l 301 1011 l 204 875 l 26 875 l 164 1069 l 368 1069 z "},"ˇ":{"ha":490,"x_min":26,"x_max":506,"o":"m 164 875 l 26 1069 l 204 1069 l 301 933 l 232 933 l 328 1069 l 506 1069 l 368 875 l 164 875 z "},"˘":{"ha":542,"x_min":42,"x_max":514,"o":"m 514 1069 q 438 916 504 971 q 278 861 372 861 q 118 916 185 861 q 42 1069 51 971 l 203 1069 q 278 1001 211 1001 q 330 1019 310 1001 q 353 1069 350 1036 l 514 1069 z "},"˚":{"ha":325,"x_min":15,"x_max":299,"o":"m 157 839 q 56 881 97 839 q 15 981 15 922 q 56 1081 15 1039 q 157 1122 97 1122 q 257 1081 215 1122 q 299 981 299 1039 q 257 881 299 922 q 157 839 215 839 m 158 946 q 183 956 174 946 q 193 981 193 967 q 183 1006 193 996 q 158 1015 174 1015 q 134 1006 144 1015 q 124 982 124 996 q 134 956 124 967 q 158 946 144 946 z "},"˜":{"ha":585,"x_min":28,"x_max":532,"o":"m 210 929 q 182 918 192 929 q 172 883 172 907 l 28 883 q 52 999 28 957 q 110 1059 76 1042 q 174 1076 144 1076 q 249 1062 218 1076 q 303 1033 279 1047 q 353 1018 328 1018 q 378 1029 371 1018 q 386 1064 386 1040 l 532 1064 q 508 947 532 990 q 449 886 483 904 q 386 868 415 868 q 313 883 343 868 q 260 914 283 899 q 210 929 236 929 z "},"¯":{"ha":508,"x_min":21,"x_max":444,"o":"m 21 1050 l 444 1050 l 444 894 l 21 894 l 21 1050 z "},"¸":{"ha":422,"x_min":76,"x_max":401,"o":"m 115 56 l 244 56 l 244 -126 l 115 -126 l 115 56 m 182 -126 l 232 -35 q 358 -63 315 -35 q 401 -150 401 -92 q 359 -243 401 -208 q 235 -278 317 -278 l 76 -278 l 76 -174 l 182 -174 q 213 -167 206 -174 q 219 -150 219 -160 q 213 -133 219 -139 q 182 -126 206 -126 z "},"˛":{"ha":311,"x_min":42,"x_max":317,"o":"m 282 0 q 233 -15 253 -6 q 204 -35 214 -24 q 194 -62 194 -47 q 200 -82 194 -74 q 219 -95 206 -90 q 254 -100 232 -100 l 317 -100 l 317 -278 l 247 -278 q 100 -240 158 -278 q 42 -133 42 -201 q 88 -27 42 -69 q 218 49 133 15 l 282 0 z "}}}
